<svg xmlns="http://www.w3.org/2000/svg" width="272.9" height="55.5" viewBox="0 0 272.9 55.5">
    <g id="kuraimi-logo" transform="translate(-36.4 -2.2)">
        <g id="Group_10" data-name="Group 10">
            <g id="Group_9" data-name="Group 9">
                <path id="Path_144" data-name="Path 144" d="M297.3,18.6l1.5,1.4-1.5,1.5L295.8,20Z" fill="#fff"/>
                <path id="Path_145" data-name="Path 145" d="M306.2,30.5l1.2,1.1-1.3,1.2-1.2-1.2Z" fill="#fff"/>
                <path id="Path_146" data-name="Path 146" d="M271.4,29.2h-5.6V27H269V16.9l2.4-1.2Z" fill="#fff"/>
                <path id="Path_147" data-name="Path 147" d="M275.3,15.7V27.9L273,29.2V16.9Z" fill="#fff"/>
                <path id="Path_148" data-name="Path 148" d="M302.5,29.2H292.4V27h7.4c-.3-.6-.5-1.2-.9-1.9a7.844,7.844,0,0,0-1.1-1.8l2-2.1a11.434,11.434,0,0,1,1.3,3.1,9.3,9.3,0,0,1,.4,2.7h.9v2.2Z" fill="#fff"/>
                <path id="Path_149" data-name="Path 149" d="M307.6,21.3a12.08,12.08,0,0,1,1.7,5.7l-.2,2.2h-8.7V27h7.1a6.633,6.633,0,0,0-.9-1.9,9.908,9.908,0,0,0-1.1-1.7Z" fill="#fff"/>
                <path id="Path_150" data-name="Path 150" d="M286,20.9a1.136,1.136,0,0,0,.8.3,3.4,3.4,0,0,0,1-.1c.3-.1.7-.2,1-.3a6.89,6.89,0,0,0,.8-.3L289,22a9.441,9.441,0,0,1-.9.3c-.4.1-.7.3-1.1.4-.3.2-.7.3-1,.5a1.344,1.344,0,0,0-.6.7l-.1-.3.3-.9a1.794,1.794,0,0,1,.5-.7c-.4-.1-.6-.2-.7-.4a1.445,1.445,0,0,1-.2-.7,2.663,2.663,0,0,1,.3-1.2,2.361,2.361,0,0,1,.8-.9,3.7,3.7,0,0,1,1.1-.5,2.979,2.979,0,0,1,1.3.1l-.2,1.4a1.479,1.479,0,0,0-1.3,0,3.179,3.179,0,0,0-1.2,1.1" fill="#fff"/>
                <path id="Path_151" data-name="Path 151" d="M281.4,27a3.178,3.178,0,0,1-.3-.9,4.5,4.5,0,0,1,.1-2.3,5.488,5.488,0,0,1,1.2-2.1l-1-.9a13.3,13.3,0,0,0-1.4,1.9,6.525,6.525,0,0,0-.8,2.2,6.028,6.028,0,0,0-.1,2.3,4.842,4.842,0,0,0,.7,1.8l1.4-2.1h.2Z" fill="#fff"/>
                <path id="Path_152" data-name="Path 152" d="M292.1,17.3V27H281.2l-1.4,2.1a.1.1,0,0,0,.1.1h14.5V16.1Z" fill="#fff"/>
                <g id="Group_7" data-name="Group 7">
                    <path id="Path_153" data-name="Path 153" d="M174.7,28.1l1.3-1.3V20.5c0-.6-1.1-.6-1.5-.2h-.9s1.9-1.6,4.5-3.5c.5,0,.4.6.3.7a3.651,3.651,0,0,0-.7,1v4.8h.5s4.2-2.8,6.9-4.4c.3-.5-.2-.9-.5-1.2,0,0-.5-.4-.4-.7.2-.4,1.2.4,3.7,2.3,0,0,.6.3.1.6-.3-.1-.7-.3-1-.1,0,0-6.7,3.9-7.1,4.2,0,0,4.3,1.3,9,2.5a1.218,1.218,0,0,1,.9,1.4c-.1,1.2,0,2.2-1.1,2.3H175.2c-.5.1-.7.6-.9.8-.2.1-1.8-1.5-2.6-3.8,0-.3.6-.6,1.1,0a3.2,3.2,0,0,0,1.7,1.5H187c1.3,0,1-.7.1-.7-1-.3-7.7-2.2-8.3-2.3s-.7-.1-.9,0v1.2l1.6,1.4Z" fill="#fff"/>
                    <path id="Path_154" data-name="Path 154" d="M194.6,22.8l2.3-3.9-2.3-3.3-2.5,2.5Z" fill="#fff"/>
                    <path id="Path_155" data-name="Path 155" d="M182.2,10.7l3.9-2.6,3.3,2.2-2.3,2.6Z" fill="#fff"/>
                    <path id="Path_156" data-name="Path 156" d="M191.8,17.6l2.4-2.6s-2.6-3.8-4.3-4.4l-2.4,2.7a29.055,29.055,0,0,1,4.3,4.3" fill="#fff"/>
                    <path id="Path_157" data-name="Path 157" d="M189.6,9.7l3.8-2.5L188.7,5l-2.3,2.7Z" fill="#fff"/>
                    <path id="Path_158" data-name="Path 158" d="M195.1,15.1l2.1,2.8,2.6-3.5-2.1-3.9Z" fill="#fff"/>
                    <path id="Path_159" data-name="Path 159" d="M168,22.9l-2.3-4,2.4-3.2,2.4,2.4Z" fill="#fff"/>
                    <path id="Path_160" data-name="Path 160" d="M180.4,10.7l-3.8-2.6-3.4,2.2,2.3,2.6Z" fill="#fff"/>
                    <path id="Path_161" data-name="Path 161" d="M170.8,17.6,168.4,15s2.6-3.8,4.2-4.4l2.4,2.7c.1,0-4,3.9-4.2,4.3" fill="#fff"/>
                    <path id="Path_162" data-name="Path 162" d="M173.1,9.7l-3.9-2.5,4.7-2.1,2.3,2.6Z" fill="#fff"/>
                    <path id="Path_163" data-name="Path 163" d="M167.6,15.1l-2.2,2.8-2.6-3.5,2.1-3.9Z" fill="#fff"/>
                    <path id="Path_164" data-name="Path 164" d="M167.9,26.5l-2.3,4,2.3,3.2,2.5-2.4Z" fill="#fff"/>
                    <path id="Path_165" data-name="Path 165" d="M180.3,38.7l-3.9,2.6-3.3-2.2,2.3-2.6Z" fill="#fff"/>
                    <path id="Path_166" data-name="Path 166" d="M170.7,31.8l-2.4,2.6s2.6,3.8,4.2,4.4l2.4-2.7a58.192,58.192,0,0,1-4.2-4.3" fill="#fff"/>
                    <path id="Path_167" data-name="Path 167" d="M173,39.7l-3.9,2.5,4.7,2.1,2.3-2.6Z" fill="#fff"/>
                    <path id="Path_168" data-name="Path 168" d="M167.4,34.3l-2.1-2.8L162.7,35l2.1,3.9Z" fill="#fff"/>
                    <path id="Path_169" data-name="Path 169" d="M194.5,26.5l2.3,4-2.3,3.2L192,31.3Z" fill="#fff"/>
                    <path id="Path_170" data-name="Path 170" d="M182.1,38.7l3.9,2.5,3.3-2.1L187,36.5Z" fill="#fff"/>
                    <path id="Path_171" data-name="Path 171" d="M191.7,31.7l2.4,2.6s-2.6,3.8-4.3,4.4L187.4,36a34.8,34.8,0,0,0,4.3-4.3" fill="#fff"/>
                    <path id="Path_172" data-name="Path 172" d="M189.4,39.7l3.9,2.5-4.7,2.1-2.3-2.6Z" fill="#fff"/>
                    <path id="Path_173" data-name="Path 173" d="M195,34.3l2.1-2.8,2.6,3.5-2.1,3.9Z" fill="#fff"/>
                    <path id="Path_174" data-name="Path 174" d="M181.2,2.2l2.3,3.2-2.4,4-2.2-4.1Z" fill="#fff"/>
                    <path id="Path_175" data-name="Path 175" d="M181.2,47.2l2.5-3.1-2.4-4.4L178.9,44Z" fill="#fff"/>
                    <path id="Path_176" data-name="Path 176" d="M202.3,24.9l-3.2,2.3-4-2.4,4.2-2.2Z" fill="#fff"/>
                    <path id="Path_177" data-name="Path 177" d="M160.5,24.9l3.2,2.3,4-2.4-3.9-2.2Z" fill="#fff"/>
                </g>
                <path id="Path_178" data-name="Path 178" d="M47.4,31.1V18.3H48v12h4.8v.8Z" fill="#fff"/>
                <path id="Path_179" data-name="Path 179" d="M53.5,31.8H46.8V17.6h1.9V29.7h4.8Z" fill="#fff"/>
                <path id="Path_180" data-name="Path 180" d="M70.8,29.9a3.977,3.977,0,0,1-2.3,1.2h-.7A4.005,4.005,0,0,1,64.4,27V18.2H65V27a3.113,3.113,0,0,0,.8,2.2,3.412,3.412,0,0,0,1.8,1.1h1.2a2.891,2.891,0,0,0,1.8-1.1,3.3,3.3,0,0,0,.8-2.2V18.2H72V27a4.77,4.77,0,0,1-1.2,2.9" fill="#fff"/>
                <path id="Path_181" data-name="Path 181" d="M68.3,31.8h-.6A4.45,4.45,0,0,1,65,30.4a4.62,4.62,0,0,1-1.2-3.3V17.7h1.9V27a2.792,2.792,0,0,0,.6,1.8,2.43,2.43,0,0,0,1.4.9h.8a2.679,2.679,0,0,0,2-2.7V17.6h1.9V27a4.511,4.511,0,0,1-3.9,4.7.349.349,0,0,1-.2.1" fill="#fff"/>
                <path id="Path_182" data-name="Path 182" d="M82.2,31.1c-.1,0-.2-.1-.3-.1s-.2-.1-.3-.1a13.372,13.372,0,0,1-2.9-1.5,9.517,9.517,0,0,1-2.4-2.5l.3-.6a.6.6,0,0,0,.4.1c.1,0,.3.1.4.1H78a2.948,2.948,0,0,0,2.2-1.1,3.62,3.62,0,0,0,1-2.7,3.62,3.62,0,0,0-1-2.7A3.568,3.568,0,0,0,78,18.9H74.4V31h-.6V18.3h4a3.731,3.731,0,0,1,2.7,1.2,4.459,4.459,0,0,1,1.2,3.3A4.378,4.378,0,0,1,80.5,26a4.3,4.3,0,0,1-2.7,1.3h-.3c-.1,0,0,.1-.2,0a13.654,13.654,0,0,0,2.3,1.9,10.075,10.075,0,0,0,2.6,1.2Z" fill="#fff"/>
                <path id="Path_183" data-name="Path 183" d="M82.7,31.9l-.7-.1c-.1,0-.2-.1-.4-.1-.1,0-.2-.1-.3-.1h-.1A15.254,15.254,0,0,1,78.1,30a9.579,9.579,0,0,1-2.6-2.7l-.2-.3.8-1.5.6.2c.1,0,.2.1.3.1a.367.367,0,0,1,.3.1h.4a2.593,2.593,0,0,0,1.8-.9,2.732,2.732,0,0,0,.8-2.2,3.3,3.3,0,0,0-.8-2.2,2.235,2.235,0,0,0-1.7-.9H75V31.8H73.1V17.6h4.7A4.659,4.659,0,0,1,81,19a5.308,5.308,0,0,1,1.4,3.7A5.137,5.137,0,0,1,81,26.4a4.929,4.929,0,0,1-2,1.3l1.2.9a8.56,8.56,0,0,0,2.4,1.1l.6.2Z" fill="#fff"/>
                <path id="Path_184" data-name="Path 184" d="M93,31.1a2.769,2.769,0,0,0-.1-.9c0-.3-.1-.6-.1-.9h-7c0,.3-.1.6-.1.9s-.1.6-.1.9h-.5a2.769,2.769,0,0,1,.1-.9c0-.3.1-.6.1-.8h.4l-.3-.7a29.42,29.42,0,0,1,1.4-5.3,21.606,21.606,0,0,1,2.6-4.7,20.747,20.747,0,0,1,3,5.7,29.45,29.45,0,0,1,1.3,6.7H93Zm-1.6-7.2a20.966,20.966,0,0,0-2.2-4.2A20.965,20.965,0,0,0,87,23.9a19.1,19.1,0,0,0-1.2,4.7h6.8a19.1,19.1,0,0,0-1.2-4.7" fill="#fff"/>
                <path id="Path_185" data-name="Path 185" d="M94.3,31.8H92.4v-.6a2.769,2.769,0,0,0-.1-.9V30H86.4v.2c0,.3-.1.6-.1.9v.6H84.4l.1-.7V30c0-.3.1-.6.1-.9l.1-.5h0v-.2a34.1,34.1,0,0,1,1.4-5.5,22.717,22.717,0,0,1,2.7-4.8l.5-.7.5.7A22.2,22.2,0,0,1,92.9,24a29.141,29.141,0,0,1,1.3,6.9Zm-7.6-3.9h5.2a23.761,23.761,0,0,0-1.1-3.8,13.687,13.687,0,0,0-1.6-3.2,31.825,31.825,0,0,0-1.6,3.2c-.3,1.2-.7,2.5-.9,3.8" fill="#fff"/>
                <path id="Path_186" data-name="Path 186" d="M45,31.1a2.769,2.769,0,0,0-.1-.9c0-.3-.1-.6-.1-.9h-7c0,.3-.1.6-.1.9s-.1.6-.1.9h-.5a2.769,2.769,0,0,1,.1-.9c0-.3.1-.6.1-.8l.1-.6v-.1a29.419,29.419,0,0,1,1.4-5.3,21.606,21.606,0,0,1,2.6-4.7,20.747,20.747,0,0,1,3,5.7,29.45,29.45,0,0,1,1.3,6.7H45Zm-1.5-7.2a20.965,20.965,0,0,0-2.2-4.2,20.965,20.965,0,0,0-2.2,4.2,19.1,19.1,0,0,0-1.2,4.7h6.8a35.931,35.931,0,0,0-1.2-4.7" fill="#fff"/>
                <path id="Path_187" data-name="Path 187" d="M46.3,31.8H44.4v-.6a2.769,2.769,0,0,0-.1-.9V30H38.4v.3c0,.3-.1.6-.1.9v.6H36.4l.1-.7v-.9c0-.3.1-.6.1-.9l.1-.7a30.513,30.513,0,0,1,1.4-5.4,22.717,22.717,0,0,1,2.7-4.8l.5-.7.5.7a22.2,22.2,0,0,1,3.1,5.9,29.141,29.141,0,0,1,1.3,6.9Zm-7.6-3.9h5.2a23.761,23.761,0,0,0-1.1-3.8,13.687,13.687,0,0,0-1.6-3.2,31.825,31.825,0,0,0-1.6,3.2c-.3,1.2-.7,2.5-.9,3.8" fill="#fff"/>
                <rect id="Rectangle_11" data-name="Rectangle 11" width="0.6" height="12.8" transform="translate(95.7 18.3)" fill="#fff"/>
                <rect id="Rectangle_12" data-name="Rectangle 12" width="1.9" height="14.1" transform="translate(95 17.6)" fill="#fff"/>
                <path id="Path_188" data-name="Path 188" d="M105,24.1a13.723,13.723,0,0,0-1.4,4.6H103a13.723,13.723,0,0,0-1.4-4.6,14.447,14.447,0,0,0-2.8-3.7V31h-.6V19l.1.1.1.1.1.1.1.1a12.893,12.893,0,0,1,2.8,3.3,10.376,10.376,0,0,1,1.7,3.7" fill="#fff"/>
                <path id="Path_189" data-name="Path 189" d="M99.6,31.8H97.7V17.6l1.1,1,.1.1.1.1.1.1.1.1a14.25,14.25,0,0,1,2.9,3.5l.1.2a12.469,12.469,0,0,1,1.5,2.8,7.741,7.741,0,0,1,.7-1.6l1.2.6a12.529,12.529,0,0,0-1.3,4.4l-.1.6h-1.7l-.1-.6a13.186,13.186,0,0,0-1.3-4.4,11.355,11.355,0,0,0-1.5-2.3v9.6Z" fill="#fff"/>
                <path id="Path_190" data-name="Path 190" d="M103.6,26.5a12.449,12.449,0,0,1,1.7-3.7,12.892,12.892,0,0,1,2.8-3.3l.1-.1.1-.1.1-.1.1-.1v12h-.6V20.4a15.016,15.016,0,0,0-2.8,3.7,13.723,13.723,0,0,0-1.4,4.6h-.6a13.723,13.723,0,0,0-1.4-4.6" fill="#fff"/>
                <path id="Path_191" data-name="Path 191" d="M109.3,31.8h-1.9V22.2a11.355,11.355,0,0,0-1.5,2.3,12.529,12.529,0,0,0-1.3,4.4l-.1.6h-1.7l-.1-.6a13.186,13.186,0,0,0-1.3-4.4l1.2-.6a11.11,11.11,0,0,1,.7,1.6,15.089,15.089,0,0,1,1.5-2.8l.1-.2a16.382,16.382,0,0,1,2.9-3.5l.1-.1.1-.1.1-.1.1-.1,1.1-1V31.8Z" fill="#fff"/>
                <path id="Path_192" data-name="Path 192" d="M55.8,26.1a2.2,2.2,0,0,1,.1-.8v-7h-.6V31.1h.6V28.2h-.1Z" fill="#fff"/>
                <path id="Path_193" data-name="Path 193" d="M56.5,31.8H54.6V17.7h1.9v9.8h.1v4.3Z" fill="#fff"/>
                <path id="Path_194" data-name="Path 194" d="M62.6,29.8a7.686,7.686,0,0,0-1.3-2,5.936,5.936,0,0,0-1.8-1.3,8.083,8.083,0,0,0-2.2-.7l-.6-.1.4-.4,4.2-3.8a1.827,1.827,0,0,1,1-.6h.2V19.3c0-.3-.1-.8-.3-.9h-.1a1.464,1.464,0,0,0-.8.5c-1.1,1.1-2.1,1.9-2.8,2.5a12.314,12.314,0,0,0-1.6,1.5,5.939,5.939,0,0,0-.8,1.1,1.268,1.268,0,0,0-.1.6V28h.1a6.6,6.6,0,0,1,1.4.1,4.491,4.491,0,0,1,1.8.7,4.009,4.009,0,0,1,1.5,1.4,3.384,3.384,0,0,1,.7,1.6h1.7a5.869,5.869,0,0,0-.6-2" fill="#fff"/>
                <rect id="Rectangle_13" data-name="Rectangle 13" width="0.7" height="13" transform="translate(110.5 18.2)" fill="#fff"/>
                <rect id="Rectangle_14" data-name="Rectangle 14" width="1.7" height="14.1" transform="translate(110 17.7)" fill="#fff"/>
                <path id="Path_195" data-name="Path 195" d="M134.6,31.1a2.768,2.768,0,0,0-.1-.9c0-.3-.1-.6-.1-.9h-7c0,.3-.1.6-.1.9s-.1.6-.1.9h-.5a2.769,2.769,0,0,1,.1-.9c0-.3.1-.6.1-.8h.4l-.3-.7a29.42,29.42,0,0,1,1.4-5.3,21.605,21.605,0,0,1,2.6-4.7,20.747,20.747,0,0,1,3,5.7,29.45,29.45,0,0,1,1.3,6.7h-.7Zm-1.5-7.2a20.966,20.966,0,0,0-2.2-4.2,20.965,20.965,0,0,0-2.2,4.2,19.1,19.1,0,0,0-1.2,4.7h6.8a35.935,35.935,0,0,0-1.2-4.7" fill="#fff"/>
                <path id="Path_196" data-name="Path 196" d="M135.9,31.8H134v-.6a2.768,2.768,0,0,0-.1-.9V30H128v.2c0,.3-.1.6-.1.9v.6H126V31c0-.1.3-2.5.3-2.5a34.1,34.1,0,0,1,1.4-5.5,22.717,22.717,0,0,1,2.7-4.8l.5-.7.5.7a22.2,22.2,0,0,1,3.1,5.9,29.141,29.141,0,0,1,1.3,6.9ZM128.3,28h5.2a23.761,23.761,0,0,0-1.1-3.8,13.686,13.686,0,0,0-1.6-3.2,31.823,31.823,0,0,0-1.6,3.2,30.492,30.492,0,0,0-.9,3.8" fill="#fff"/>
                <path id="Path_197" data-name="Path 197" d="M144.9,19.2v8.7c-3.6-7.2-8.1-10.3-8.1-10.3V31.8h1.9V22.2a29.891,29.891,0,0,1,6.2,9.6h1.9V17.7c.1-.2-1.7,1.4-1.9,1.5" fill="#fff"/>
                <path id="Path_198" data-name="Path 198" d="M155.8,29.7a7.685,7.685,0,0,0-1.3-2,5.936,5.936,0,0,0-1.8-1.3,8.083,8.083,0,0,0-2.2-.7l-.6-.1.4-.4,4.2-3.8a1.827,1.827,0,0,1,1-.6h.2V19.2c0-.3-.1-.8-.3-.9h-.1a1.464,1.464,0,0,0-.8.5c-1.1,1.1-2.1,1.9-2.8,2.5a12.314,12.314,0,0,0-1.6,1.5,2.652,2.652,0,0,0-.5.6V17.5h-1.9V31.6h1.9V28a4.1,4.1,0,0,1,1.1.1,4.491,4.491,0,0,1,1.8.7,4.009,4.009,0,0,1,1.5,1.4,3.384,3.384,0,0,1,.7,1.6h1.7a5.252,5.252,0,0,0-.6-2.1" fill="#fff"/>
                <path id="Path_199" data-name="Path 199" d="M117.7,29.2h0V17.1h-1.9V29.8h1.9Z" fill="#fff"/>
                <path id="Path_200" data-name="Path 200" d="M125.2,27.2a5.26,5.26,0,0,0-.6-2.6c.1-.1.1-.3.2-.4a5.822,5.822,0,0,0,.3-1.9,5.073,5.073,0,0,0-.7-2.8,5.5,5.5,0,0,0-.7-.9,5.008,5.008,0,0,0-.8-.7,3.986,3.986,0,0,0-2.4-.7h-2.8v2h3a3.537,3.537,0,0,1,1.7.9c.1.1.2.2.2.3a2.456,2.456,0,0,1,.5,1.5v.4a3.453,3.453,0,0,1-.5,1.8l-.1.1a3.824,3.824,0,0,1-1.8.9h-.4a.367.367,0,0,1-.3-.1c-.1,0-.2-.1-.3-.1l-.6-.2-.8,1.5a3.666,3.666,0,0,0,4.7.2h0a4.331,4.331,0,0,0,.1.5v.4a2.883,2.883,0,0,1-.6,1.9l-.3.3a1.756,1.756,0,0,1-.5.4h-6.1v2h6.6a2.994,2.994,0,0,0,.8-.4,2.651,2.651,0,0,0,.6-.5,4.44,4.44,0,0,0,.8-1.1,4.876,4.876,0,0,0,.3-.7h0a3.719,3.719,0,0,0,.5-2" fill="#fff"/>
                <g id="Group_8" data-name="Group 8">
                    <path id="Path_201" data-name="Path 201" d="M226.2,54a1.689,1.689,0,0,1,.3,1v.9h-1.8c-.2,0-.3,0-.4-.1a.367.367,0,0,1-.1-.3v-.3c0-.1.1-.2.1-.3v.2c0,.1.1.1.3.1H226a1.136,1.136,0,0,0-.3-.8c-.2-.2-.3-.4-.5-.6l.4-.7.6.9" fill="#fff"/>
                    <path id="Path_202" data-name="Path 202" d="M223.8,55.6a2.016,2.016,0,0,1-.3,1.1c-.2.3-.4.7-.6,1l-.7-.6a1.575,1.575,0,0,0,.7-.7,5.735,5.735,0,0,0,.4-.7h-.7a.756.756,0,0,1-.4-.1c-.1,0-.2-.1-.3-.1l-.2-.2v-.2a.9.9,0,0,1,.1-.5,1.421,1.421,0,0,1,.2-.6,2.186,2.186,0,0,1,.3-.5.764.764,0,0,1,.5-.2c.2,0,.3.1.5.2a2.186,2.186,0,0,1,.3.5c.1.2.1.4.2.6a4.331,4.331,0,0,0,.1.5.749.749,0,0,0-.1.5m-1.7-1c0,.1.1.1.2.2.1,0,.2.1.3.1h.7v-.4c-.1-.2-.1-.3-.3-.4-.1-.1-.2-.1-.4-.1-.1,0-.2.1-.3.2-.1,0-.2.2-.2.4" fill="#fff"/>
                    <path id="Path_203" data-name="Path 203" d="M220.1,53.8a.864.864,0,0,1,.6.3,2.092,2.092,0,0,1,.4.6,1.445,1.445,0,0,1,.2.7,1.268,1.268,0,0,1-.1.6H212v-.7h7.2a.6.6,0,0,1,.1-.4c0-.2.1-.3.2-.5a1.38,1.38,0,0,1,.3-.4c0-.1.1-.2.3-.2m.6,1.5v-.2a.349.349,0,0,0-.1-.2c0-.1-.1-.1-.2-.2-.1,0-.1-.1-.2-.1s-.2.1-.3.2a.764.764,0,0,0-.2.5Z" fill="#fff"/>
                    <path id="Path_204" data-name="Path 204" d="M212.7,55.3v.6h-1.3V52.2l.7-.4v3.5Z" fill="#fff"/>
                    <path id="Path_205" data-name="Path 205" d="M208.4,53.8a.864.864,0,0,1,.6.3,2.092,2.092,0,0,1,.4.6,1.445,1.445,0,0,1,.2.7,1.268,1.268,0,0,1-.1.6H205v-.7h2.5a.6.6,0,0,1,.1-.4c0-.2.1-.3.2-.5a1.38,1.38,0,0,1,.3-.4c0-.1.1-.2.3-.2m.6,1.5v-.2a.349.349,0,0,0-.1-.2c0-.1-.1-.1-.2-.2-.1,0-.1-.1-.2-.1s-.2.1-.3.2a.764.764,0,0,0-.2.5Z" fill="#fff"/>
                    <path id="Path_206" data-name="Path 206" d="M205.5,55.9h-1.3c-.1,0-.2,0-.2-.1-.1,0-.1-.1-.2-.1l-.2.2c-.1,0-.1.1-.2.1H190.3v-.7h13.1c-.1-.1-.2-.3-.3-.4s-.2-.3-.3-.4-.3-.2-.4-.3a.9.9,0,0,0-.5-.1l.4-.6c.2,0,.4-.1.7-.1s.5-.1.8-.1a2.2,2.2,0,0,1,.8.1c.2.1.4.1.6.3.1.1.1.2.1.4a.367.367,0,0,1-.1.3c-.1.1-.1.2-.2.3s-.2.2-.2.3l-.3.2h1v.7Zm-1.6-1a.349.349,0,0,1,.2-.1l.2-.2.2-.2c0-.1.1-.1.1-.2a.215.215,0,0,0-.2-.2c-.1,0-.3-.1-.4-.1h-.8c.2.1.3.3.4.4,0,.3.2.4.3.6" fill="#fff"/>
                    <path id="Path_207" data-name="Path 207" d="M188.3,53.6c.1.1.1.1.2.1h.3c.1,0,.2-.1.3-.1a.349.349,0,0,0,.2-.1l-.1.4c-.1,0-.1,0-.2.1-.1,0-.2.1-.3.1s-.2.1-.3.1l-.2.2v-.1c0-.1,0-.2.1-.2,0-.1.1-.1.1-.2-.1,0-.2,0-.2-.1v-.2a.367.367,0,0,1,.1-.3c.1-.1.1-.2.2-.2a.367.367,0,0,1,.3-.1h.3l-.1.4a.188.188,0,0,0-.3,0,.52.52,0,0,0-.4.2" fill="#fff"/>
                    <path id="Path_208" data-name="Path 208" d="M187.1,55.3a.349.349,0,0,0-.1-.2v-.7l.3-.6-.3-.3c-.1.2-.3.3-.4.5a1.421,1.421,0,0,0-.2.6v.7a.764.764,0,0,0,.2.5l.5-.5Z" fill="#fff"/>
                    <path id="Path_209" data-name="Path 209" d="M189.9,52.2v3.1H187l-.4.6h3.9V51.8Z" fill="#fff"/>
                    <path id="Path_210" data-name="Path 210" d="M139,55.9h-.3l-.3-1c0-.1-.1-.2-.1-.3a.349.349,0,0,0-.1-.2l-.2-.2c-.1,0-.1-.1-.2-.1h-1.1v1.7h-.2V52h1.8c.1,0,.2.1.3.2s.2.2.2.3a.749.749,0,0,1,.1.5v.4c0,.1-.1.2-.1.3-.1.1-.1.2-.2.2a.367.367,0,0,1-.3.1c.1.1.1.1.1.2s.1.1.1.2.1.1.1.2,0,.2.1.2Zm-2.3-2h1.5c.1,0,.2-.1.3-.1a.769.769,0,0,0,.2-.3c0-.1.1-.2.1-.4a.707.707,0,0,0-.8-.8h-1.2v1.6Z" fill="#fff"/>
                    <path id="Path_211" data-name="Path 211" d="M139.2,56.1h-.6l-.3-1.1c0-.1-.1-.2-.1-.3s-.1-.1-.1-.2a.1.1,0,0,0-.1-.1h-1.2v1.7h-.5V52h2a.758.758,0,0,1,.4.2,1.38,1.38,0,0,1,.3.4,1.083,1.083,0,0,1,.1.6v.4c0,.1-.1.2-.1.3-.1.1-.1.2-.2.3l-.1.1h0c0,.1.1.1.1.2s.1.1.1.2Zm-1.2-2h0m-1.2-.3h1.4a.349.349,0,0,0,.2-.1c.1,0,.1-.1.1-.2v-.3c0-.2-.1-.4-.2-.4a.749.749,0,0,0-.5-.1h-1Z" fill="#fff"/>
                    <path id="Path_212" data-name="Path 212" d="M140.1,55.9h-.2V53.2h.2Zm0-3.4h-.2v-.4h.2Z" fill="#fff"/>
                    <path id="Path_213" data-name="Path 213" d="M140.2,56.1h-.5v-3h.5Zm0-3.4h-.5V52h.5Z" fill="#fff"/>
                    <path id="Path_214" data-name="Path 214" d="M142.9,55.8a1.268,1.268,0,0,1-.1.6.52.52,0,0,1-.2.4c-.1.1-.2.2-.3.2s-.3.1-.4.1a.6.6,0,0,1-.4-.1c-.1,0-.2-.1-.3-.1l-.2-.2c0-.1-.1-.2-.1-.3h.2a.52.52,0,0,0,.2.4.749.749,0,0,0,.5.1.367.367,0,0,0,.3-.1.215.215,0,0,0,.2-.2.367.367,0,0,0,.1-.3v-.7c-.1.1-.2.2-.2.3-.1.1-.1.1-.2.1s-.1.1-.2.1h-.2c-.2,0-.3,0-.4-.1l-.3-.3c-.1-.1-.1-.3-.2-.4,0-.2-.1-.4-.1-.6a1.268,1.268,0,0,1,.1-.6c.1-.2.1-.3.2-.5l.3-.3c.1-.1.2-.1.4-.1h.2c.1,0,.1,0,.2.1.1,0,.1.1.2.1s.1.1.2.2v-.3h.2v2.5Zm-.3-2a1.381,1.381,0,0,0-.4-.3.6.6,0,0,0-.4-.1.367.367,0,0,0-.3.1.215.215,0,0,0-.2.2c-.1.1-.1.2-.1.4a4.331,4.331,0,0,0-.1.5,1.549,1.549,0,0,0,.2.8.55.55,0,0,0,.5.3c.2,0,.3,0,.4-.1l.4-.4V53.8Z" fill="#fff"/>
                    <path id="Path_215" data-name="Path 215" d="M141.9,57.1c-.2,0-.3,0-.4-.1-.1,0-.2-.1-.3-.2s-.2-.2-.2-.3c-.1-.1-.1-.2-.1-.4v-.2h.5V56c0,.2.1.2.1.2.1.1.2.1.4.1h.3c.1,0,.1-.1.2-.1,0-.1.1-.1.1-.2v-.2c-.1.1-.1.1-.2.1a.349.349,0,0,0-.2.1,1.483,1.483,0,0,1-.7-.1c-.1-.1-.3-.2-.3-.3a.764.764,0,0,1-.2-.5c0-.2-.1-.4-.1-.6s0-.5.1-.6c.1-.2.1-.4.2-.5s.2-.3.4-.3a1.483,1.483,0,0,1,.7-.1c.1,0,.1,0,.2.1.1,0,.1.1.2.1v-.1h.5v2.7a1.268,1.268,0,0,1-.1.6.52.52,0,0,1-.2.4,1.381,1.381,0,0,1-.4.3h-.5m0-3.5c-.1,0-.2,0-.2.1-.1,0-.1.1-.2.2a.367.367,0,0,0-.1.3v.5a1.884,1.884,0,0,0,.2.8c.1.2.2.2.4.2a.367.367,0,0,0,.3-.1l.3-.3V54.1c-.1-.1-.2-.2-.3-.2-.2-.3-.3-.3-.4-.3" fill="#fff"/>
                    <path id="Path_216" data-name="Path 216" d="M143.9,53.6l.2-.2a.31.31,0,0,1,.2-.1c.1,0,.1-.1.2-.1h.2c.5,0,.7.3.7,1V56h-.2V53.9a.349.349,0,0,0-.1-.2c0-.1-.1-.1-.2-.1h-.3a.6.6,0,0,0-.4.1c-.1.1-.3.2-.4.4v2h-.2V52.3h.2v1.3Z" fill="#fff"/>
                    <path id="Path_217" data-name="Path 217" d="M145.7,56.1h-.5V53.9c0-.1,0-.1-.1-.2l-.1-.1a.507.507,0,0,0-.5.1l-.3.3v2.1h-.5V52h.5v1.3c.1-.1.2-.1.2-.2a.349.349,0,0,0,.2-.1h.2c.4,0,.9.2.9,1.1v2Z" fill="#fff"/>
                    <path id="Path_218" data-name="Path 218" d="M147.1,55.9h-.2a.367.367,0,0,1-.3-.1c-.1,0-.1-.1-.1-.2s-.1-.2-.1-.3V53.2h-.3v-.3h.3v-.7h.2v.7h.4v.3h-.4v2c0,.1,0,.1.1.2l.1.1h.3Z" fill="#fff"/>
                    <path id="Path_219" data-name="Path 219" d="M146.9,56.1a.367.367,0,0,1-.3-.1.215.215,0,0,1-.2-.2c0-.1-.1-.2-.1-.3V53.6H146V53h.3v-.7h.5V53h.4v.6h-.4v1.8h.4V56H147a.1.1,0,0,1-.1.1m-.3-.4h0a.1.1,0,0,0,.1.1h.1c-.1,0-.1-.1-.2-.1h0" fill="#fff"/>
                    <path id="Path_220" data-name="Path 220" d="M152.8,54.8a1.136,1.136,0,0,1-.3.8,1.222,1.222,0,0,1-.9.3h-1.2V52.1h1.2a1.165,1.165,0,0,1,.7.2.779.779,0,0,1,.3.7v.3a.367.367,0,0,1-.1.3.215.215,0,0,1-.2.2.367.367,0,0,1-.3.1c.2,0,.3.1.4.1.1.1.2.1.2.2a82894.525,82894.525,0,0,1,.2.6m-2.1-1h.9a.707.707,0,0,0,.8-.8.764.764,0,0,0-.2-.5.845.845,0,0,0-.6-.2h-.9Zm0,1.8h.9c.6,0,.9-.3.9-.8v-.4a.215.215,0,0,0-.2-.2.367.367,0,0,0-.3-.1h-1.4v1.5Z" fill="#fff"/>
                    <path id="Path_221" data-name="Path 221" d="M151.7,56.1h-1.3V52h1.3a1.032,1.032,0,0,1,1.1,1.1v.3a.367.367,0,0,1-.1.3.215.215,0,0,1-.2.2h.1l.3.3a.367.367,0,0,1,.1.3v.3a1.222,1.222,0,0,1-.3.9,1.284,1.284,0,0,1-1,.4m-.8-.6h.8c.7,0,.8-.3.8-.6v-.3c0-.1-.1-.1-.1-.2-.1-.1-.1-.1-.2-.1h-1.1v1.2Zm0-1.9h.7c.3,0,.4,0,.5-.1s.1-.2.1-.4,0-.3-.1-.4a.749.749,0,0,0-.5-.1h-.8v1Z" fill="#fff"/>
                    <path id="Path_222" data-name="Path 222" d="M154.5,56a.9.9,0,0,1-.5-.1c-.1-.1-.3-.2-.4-.3a.758.758,0,0,1-.2-.4,1.85,1.85,0,0,1,0-1.2c.1-.2.1-.3.2-.4l.3-.3a.6.6,0,0,1,.4-.1c.2,0,.3,0,.4.1l.3.3a.758.758,0,0,1,.2.4,1.268,1.268,0,0,1,.1.6v.1h-1.9a.9.9,0,0,0,.1.5c0,.1.1.2.2.3s.2.2.3.2.2.1.3.1h.2a.349.349,0,0,0,.2-.1c.1,0,.1-.1.2-.2,0-.1.1-.1.1-.2h.2c0,.1-.1.2-.1.3-.1.1-.1.2-.2.3s-.2.1-.3.2c.2-.1.1-.1-.1-.1m.8-1.7a.908.908,0,0,0-.3-.7c-.1-.2-.3-.2-.5-.2a.367.367,0,0,0-.3.1.215.215,0,0,0-.2.2c-.1.1-.1.2-.2.3,0,.1-.1.3-.1.4h1.6Z" fill="#fff"/>
                    <path id="Path_223" data-name="Path 223" d="M154.5,56.1a.749.749,0,0,1-.5-.1,1.38,1.38,0,0,1-.4-.3,2.186,2.186,0,0,1-.3-.5,1.85,1.85,0,0,1,0-1.2c.1-.2.1-.4.2-.5a1.381,1.381,0,0,1,.4-.3,1.167,1.167,0,0,1,1,0,1.38,1.38,0,0,1,.4.3.764.764,0,0,1,.2.5,1.268,1.268,0,0,1,.1.6v.2h-1.9a.367.367,0,0,0,.1.3c0,.1.1.2.2.3l.2.2a.446.446,0,0,0,.5,0c.1,0,.1,0,.2-.1a.1.1,0,0,0,.1-.1.31.31,0,0,1,.1-.2v-.1h.6v.2c0,.1-.1.3-.1.4l-.3.3c-.1.1-.2.1-.3.2a.9.9,0,0,0-.5-.1m-.7-1.9h1.3a.52.52,0,0,0-.2-.4.758.758,0,0,0-.4-.2h-.2c-.1,0-.1.1-.2.1l-.2.2c0,.2,0,.2-.1.3" fill="#fff"/>
                    <path id="Path_224" data-name="Path 224" d="M157.1,56a.908.908,0,0,1-1-.8h.3a.52.52,0,0,0,.2.4.749.749,0,0,0,.5.1h.3a.349.349,0,0,0,.2-.1c.1,0,.1-.1.1-.2V55a.1.1,0,0,0-.1-.1c-.1,0-.1-.1-.2-.1s-.2-.1-.4-.1c-.1,0-.2-.1-.3-.1s-.2-.1-.3-.1l-.2-.2c0-.1-.1-.2-.1-.3a.367.367,0,0,1,.1-.3.215.215,0,0,1,.2-.2.367.367,0,0,1,.3-.1h.3a1.445,1.445,0,0,1,.7.2.764.764,0,0,1,.2.5h-.3c0-.1-.1-.2-.2-.3s-.2-.1-.4-.1h-.3c-.1,0-.1,0-.2.1a.1.1,0,0,0-.1.1v.3a.1.1,0,0,0,.1.1c.1,0,.1.1.2.1s.2.1.4.1c.1,0,.3.1.4.1s.2.1.3.2l.2.2c0,.1.1.2.1.3a.367.367,0,0,1-.1.3c0,.1-.1.2-.2.3s-.2.1-.3.2c-.1-.1-.2-.1-.4-.1" fill="#fff"/>
                    <path id="Path_225" data-name="Path 225" d="M157.1,56.1c-.8,0-1.1-.5-1.1-.9V55h.6v.1c0,.1.1.2.1.3.1.1.2.1.4.1h.2c.1,0,.1,0,.2-.1l.1-.1v-.2a.1.1,0,0,0-.1-.1.349.349,0,0,0-.2-.1c-.1,0-.2-.1-.4-.1-.1,0-.3-.1-.4-.1s-.2-.1-.3-.2-.2-.2-.2-.3-.1-.2-.1-.4a.756.756,0,0,1,.1-.4c0-.1.1-.2.2-.3s.2-.1.3-.2c.1,0,.3-.1.4-.1a1.165,1.165,0,0,1,.7.2.6.6,0,0,1,.3.6v.2h-.5v-.1a.349.349,0,0,0-.1-.2c-.1,0-.2-.1-.4-.1h-.2c-.1,0-.1,0-.2.1l-.1.1v.3a.349.349,0,0,0,.2.1c.1,0,.2.1.4.1.1,0,.3.1.4.1s.2.1.3.2.1.2.2.3c0,.1.1.2.1.3a.6.6,0,0,1-.1.4c-.1.1-.1.2-.2.3s-.2.2-.3.2c0,.2-.1.2-.3.2m-.6-1.8c.1,0,.1.1.2.1h0c0-.1-.1-.1-.2-.1" fill="#fff"/>
                    <path id="Path_226" data-name="Path 226" d="M159,55.9h-.2V53.2h.2Zm0-3.4h-.2v-.4h.2Z" fill="#fff"/>
                    <path id="Path_227" data-name="Path 227" d="M159.2,56.1h-.5v-3h.5Zm0-3.4h-.5V52h.5Z" fill="#fff"/>
                    <path id="Path_228" data-name="Path 228" d="M161.4,55.5c-.1.1-.1.2-.2.2-.1.1-.1.1-.2.1s-.1.1-.2.1h-.2c-.2,0-.3,0-.4-.1l-.3-.3c-.1-.1-.1-.3-.2-.4s-.1-.4-.1-.6a1.268,1.268,0,0,1,.1-.6c0-.2.1-.3.2-.5l.3-.3c.1-.1.2-.1.4-.1h.4c.1,0,.1.1.2.1s.1.1.2.2V51.9h.2v3.8h-.2Zm0-1.7a1.381,1.381,0,0,0-.4-.3.6.6,0,0,0-.4-.1.367.367,0,0,0-.3.1.215.215,0,0,0-.2.2c-.1.1-.1.2-.1.4a4.331,4.331,0,0,0-.1.5,1.549,1.549,0,0,0,.2.8.55.55,0,0,0,.5.3c.2,0,.3,0,.4-.1l.4-.4V53.8Z" fill="#fff"/>
                    <path id="Path_229" data-name="Path 229" d="M160.6,56.1a.9.9,0,0,1-.5-.1c-.1-.1-.3-.2-.3-.3a.764.764,0,0,1-.2-.5c0-.2-.1-.4-.1-.6s0-.5.1-.6c.1-.2.1-.4.2-.5s.2-.3.4-.3a1.268,1.268,0,0,1,.6-.1c.1,0,.1,0,.2.1.1,0,.1.1.2.1V52.1h.5v4.1h-.5V56c-.1.1-.1.1-.2.1a.349.349,0,0,0-.2.1c-.1-.1-.1-.1-.2-.1m0-2.5c-.1,0-.2,0-.2.1-.1,0-.1.1-.2.2a.367.367,0,0,0-.1.3v.5a1.884,1.884,0,0,0,.2.8c.1.2.2.2.4.2a.367.367,0,0,0,.3-.1l.3-.3V54.1c-.1-.1-.2-.2-.3-.2-.1-.3-.2-.3-.4-.3" fill="#fff"/>
                    <path id="Path_230" data-name="Path 230" d="M163.4,56a.9.9,0,0,1-.5-.1c-.1-.1-.3-.2-.4-.3a.758.758,0,0,1-.2-.4,1.85,1.85,0,0,1,0-1.2c.1-.2.1-.3.2-.4l.3-.3a.6.6,0,0,1,.4-.1c.2,0,.3,0,.4.1l.3.3a.758.758,0,0,1,.2.4,1.268,1.268,0,0,1,.1.6v.1h-1.9a.9.9,0,0,0,.1.5c0,.1.1.2.2.3s.2.2.3.2.2.1.3.1h.2a.349.349,0,0,0,.2-.1c.1,0,.1-.1.2-.2,0-.1.1-.1.1-.2h.2c0,.1-.1.2-.1.3-.1.1-.1.2-.2.3s-.2.1-.3.2c.2-.1.1-.1-.1-.1m.8-1.7a.908.908,0,0,0-.3-.7c-.1-.2-.3-.2-.5-.2a.367.367,0,0,0-.3.1.215.215,0,0,0-.2.2c-.1.1-.1.2-.2.3,0,.1-.1.3-.1.4h1.6Z" fill="#fff"/>
                    <path id="Path_231" data-name="Path 231" d="M163.4,56.1a.749.749,0,0,1-.5-.1,1.38,1.38,0,0,1-.4-.3,2.186,2.186,0,0,1-.3-.5,1.85,1.85,0,0,1,0-1.2c.1-.2.1-.4.2-.5a1.381,1.381,0,0,1,.4-.3,1.167,1.167,0,0,1,1,0,1.38,1.38,0,0,1,.4.3.764.764,0,0,1,.2.5,1.268,1.268,0,0,1,.1.6v.2h-1.9a.367.367,0,0,0,.1.3c0,.1.1.2.2.3l.2.2a.446.446,0,0,0,.5,0c.1,0,.1,0,.2-.1a.1.1,0,0,0,.1-.1.31.31,0,0,1,.1-.2v-.1h.6v.2c0,.1-.1.3-.1.4l-.3.3c-.1.1-.2.1-.3.2a.9.9,0,0,0-.5-.1m-.7-1.9H164a.52.52,0,0,0-.2-.4.616.616,0,0,0-.7-.1c-.1,0-.1.1-.2.1l-.2.2c.1.1.1.1,0,.2" fill="#fff"/>
                    <path id="Path_232" data-name="Path 232" d="M170.6,52.1l-1.3,2.2v1.6H169V54.3l-1.3-2.2h.3l1.1,1.9,1.2-1.9Z" fill="#fff"/>
                    <path id="Path_233" data-name="Path 233" d="M169.4,56.1h-.5V54.3l-1.5-2.4h.6l1.1,1.8,1.1-1.8h.7l-1.5,2.4Z" fill="#fff"/>
                    <path id="Path_234" data-name="Path 234" d="M172.1,53.1c.2,0,.3,0,.4.1l.3.3a.758.758,0,0,1,.2.4,1.85,1.85,0,0,1,0,1.2c-.1.2-.1.3-.2.4l-.3.3a.85.85,0,0,1-.8,0l-.3-.3a.758.758,0,0,1-.2-.4,1.85,1.85,0,0,1,0-1.2c.1-.2.1-.3.2-.4l.3-.3c.1,0,.2-.1.4-.1m0,2.6a.367.367,0,0,0,.3-.1c.1,0,.2-.1.3-.2s.1-.2.2-.4a4.331,4.331,0,0,0,.1-.5.749.749,0,0,0-.1-.5.758.758,0,0,0-.2-.4c-.1-.1-.2-.2-.3-.2s-.2-.1-.3-.1a.367.367,0,0,0-.3.1c-.1,0-.2.1-.3.2s-.1.2-.2.4a4.331,4.331,0,0,0-.1.5.749.749,0,0,0,.1.5.758.758,0,0,0,.2.4c.1.1.2.2.3.2,0,.1.2.1.3.1" fill="#fff"/>
                    <path id="Path_235" data-name="Path 235" d="M172.1,56.1a.749.749,0,0,1-.5-.1,1.38,1.38,0,0,1-.4-.3.764.764,0,0,1-.2-.5,1.268,1.268,0,0,1-.1-.6c0-.2,0-.5.1-.6.1-.2.1-.4.2-.5a1.381,1.381,0,0,1,.4-.3,1.7,1.7,0,0,1,1,0,1.38,1.38,0,0,1,.4.3.764.764,0,0,1,.2.5,1.268,1.268,0,0,1,.1.6c0,.2,0,.5-.1.6-.1.2-.1.4-.2.5s-.2.3-.4.3a.9.9,0,0,1-.5.1m0-2.5a.367.367,0,0,0-.3.1c-.1,0-.1.1-.2.2a.367.367,0,0,0-.1.3,4.331,4.331,0,0,0-.1.5.9.9,0,0,0,.1.5c0,.1.1.2.1.3l.2.2a.446.446,0,0,0,.5,0c.1,0,.1-.1.2-.2a.367.367,0,0,0,.1-.3,4.331,4.331,0,0,0,.1-.5.9.9,0,0,0-.1-.5c0-.1-.1-.2-.1-.3l-.2-.2c0-.1-.1-.1-.2-.1" fill="#fff"/>
                    <path id="Path_236" data-name="Path 236" d="M175.4,55.6c-.1.1-.1.2-.2.2a.31.31,0,0,1-.2.1.349.349,0,0,0-.2.1h-.2c-.5,0-.7-.3-.7-1V53.2h.2V55a1.083,1.083,0,0,0,.1.6.52.52,0,0,0,.4.2c.2,0,.3,0,.4-.1s.3-.2.4-.4v-2h.2V56h-.2Z" fill="#fff"/>
                    <path id="Path_237" data-name="Path 237" d="M174.5,56.1c-.4,0-.9-.2-.9-1.1V53.1h.5V55a2.034,2.034,0,0,0,.1.5.581.581,0,0,0,.7,0l.3-.3V53.1h.5v3h-.5v-.2a.31.31,0,0,1-.2.1c-.1,0-.2.1-.3.1h-.2" fill="#fff"/>
                    <rect id="Rectangle_15" data-name="Rectangle 15" width="0.5" height="0.5" transform="translate(179.4 55.4)" fill="#fff"/>
                    <path id="Path_238" data-name="Path 238" d="M179.9,56h-.6v-.6h.6Zm-.5-.1h.4v-.4h-.4Z" fill="#fff"/>
                    <rect id="Rectangle_16" data-name="Rectangle 16" width="0.5" height="0.5" transform="translate(181.2 55.4)" fill="#fff"/>
                    <path id="Path_239" data-name="Path 239" d="M181.7,56h-.6v-.6h.6Zm-.5-.1h.4v-.4h-.4Z" fill="#fff"/>
                    <rect id="Rectangle_17" data-name="Rectangle 17" width="0.5" height="0.5" transform="translate(183 55.4)" fill="#fff"/>
                    <path id="Path_240" data-name="Path 240" d="M183.5,56H183v-.6h.6V56Zm-.5-.1h.4v-.4H183Z" fill="#fff"/>
                    <path id="Path_241" data-name="Path 241" d="M212.5,50.1a8.8,8.8,0,0,1-1.5.5h0l.1-.3a13.781,13.781,0,0,0,1.6-.6h0Zm0,.6a8.8,8.8,0,0,1-1.5.5h0l.1-.3a13.781,13.781,0,0,0,1.6-.6h0Z" fill="#fff"/>
                </g>
                <path id="Path_242" data-name="Path 242" d="M224.4,29.1h-1.8a5.778,5.778,0,0,1-1.3,2,6.222,6.222,0,0,1-1.9,1.4,9.172,9.172,0,0,1-2.3.9,10.679,10.679,0,0,1-2.5.3,10.236,10.236,0,0,1-3.3-.6,5.265,5.265,0,0,1-2-1.5,4.025,4.025,0,0,1-.9-2,5.95,5.95,0,0,1,.1-2.3,8.264,8.264,0,0,1,.8-2.2,9.351,9.351,0,0,1,1.4-1.9l1,.9a7.194,7.194,0,0,0-1.2,2.1,3.655,3.655,0,0,0-.1,2.3,4.665,4.665,0,0,0,1.2,2,4.465,4.465,0,0,0,2.8,1,9.223,9.223,0,0,0,3.6-.7,5.786,5.786,0,0,0,2.8-2,6.889,6.889,0,0,0-.8-.3l-.9-.3a9.249,9.249,0,0,1-1-.5,3.043,3.043,0,0,1-.8-.8,1.645,1.645,0,0,1-.2-1c0-.4.1-.8.1-1.1a5.3,5.3,0,0,0,1.2,1,7.459,7.459,0,0,0,1.2.7,5.415,5.415,0,0,0,1.5.4,10.889,10.889,0,0,0,1.9.1h1.4Z" fill="#fff"/>
                <path id="Path_243" data-name="Path 243" d="M228.1,29.2h-6.5a1.2,1.2,0,0,1-1.3-1.1.91.91,0,0,1,.4-.8,1.222,1.222,0,0,1,.9-.3h6.5Z" fill="#fff"/>
                <path id="Path_244" data-name="Path 244" d="M228,29.2V27h2c.1-.4.2-.8.3-1.3a4.715,4.715,0,0,1,.6-1.5,4,4,0,0,1,1-1.2,2.456,2.456,0,0,1,1.5-.5,2.767,2.767,0,0,1,1.6.5,5.8,5.8,0,0,1,1,1.2,4.715,4.715,0,0,1,.6,1.5c.1.5.3,1,.4,1.4h1.2v2.2H228Zm7.4-2.2a1.952,1.952,0,0,0-.1-.7,1.612,1.612,0,0,0-.4-.7l-.6-.6a1.077,1.077,0,0,0-.8-.2,1.217,1.217,0,0,0-1,.6,5.162,5.162,0,0,0-.9,1.7h3.8Z" fill="#fff"/>
                <path id="Path_245" data-name="Path 245" d="M244.9,21.3a12.08,12.08,0,0,1,1.7,5.7l-.2,2.2h-8.7V27h7.1a6.632,6.632,0,0,0-.9-1.9,9.908,9.908,0,0,0-1.1-1.7Zm-4,9.1,1.2,1.2-1.3,1.2-1.2-1.2Zm2.6.1,1.2,1.2-1.3,1.2-1.2-1.2Z" fill="#fff"/>
                <path id="Path_246" data-name="Path 246" d="M253.1,29.2a9.708,9.708,0,0,1-1.1,3.4,14.8,14.8,0,0,1-2.2,2.9l-2.5-1.9a10.679,10.679,0,0,0,2.9-2.6,8.093,8.093,0,0,0,1.2-3.3,6.15,6.15,0,0,0-.3-1.1,5.36,5.36,0,0,0-.5-1.1,8.792,8.792,0,0,0-.6-1l-.6-.9,1.7-2.1a11.113,11.113,0,0,1,1.3,2.7,26.806,26.806,0,0,1,.7,2.7h1v2.2h-1Z" fill="#fff"/>
                <path id="Path_247" data-name="Path 247" d="M260.2,22a8.805,8.805,0,0,1,2.4,1.1,6.9,6.9,0,0,1,1.8,1.6,5.535,5.535,0,0,1,1,2.2h.7v2.2H253.8V27h8.8a3.369,3.369,0,0,0-1.1-1.7,5.244,5.244,0,0,0-1.8-1,14.191,14.191,0,0,0-2.2-.5,16.95,16.95,0,0,0-2.2-.1V21.6a2.5,2.5,0,0,1,.3-1.3,4.636,4.636,0,0,1,1-1q.75-.45,2.1-1.2c.9-.5,2.1-1.1,3.5-2a1.981,1.981,0,0,1,1.5-.4.8.8,0,0,1,.6.9v1.8a.918.918,0,0,0-.6-.4,2.385,2.385,0,0,0-1.2.4l-5.3,2.9c1.1.3,2.1.5,3,.7" fill="#fff"/>
                <path id="Path_248" data-name="Path 248" d="M208.4,30.9v1.8h-1.7l-.1-1.8Z" fill="#fff"/>
                <path id="Path_249" data-name="Path 249" d="M210.3,32.8v1.8l-1.7-.1-.1-1.7Z" fill="#fff"/>
            </g>
        </g>
        <g id="Group_11" data-name="Group 11">
            <path id="Path_250" data-name="Path 250" d="M212.5,43.6h-.6a4.054,4.054,0,0,1-.5.9,1.344,1.344,0,0,1-.7.6,2.994,2.994,0,0,1-.8.4,2.769,2.769,0,0,1-.9.1,2.133,2.133,0,0,1-1.2-.3,2.169,2.169,0,0,1-.7-.6,1.613,1.613,0,0,1-.3-.9v-1c.1-.3.2-.7.3-1a2.178,2.178,0,0,1,.5-.8l.4.4a3.552,3.552,0,0,0-.4.9,3.4,3.4,0,0,0-.1,1,2.01,2.01,0,0,0,.4.8,1.528,1.528,0,0,0,1,.4,3.079,3.079,0,0,0,1.3-.3,2.723,2.723,0,0,0,1-.8c-.1,0-.2-.1-.3-.1s-.2-.1-.3-.1c-.1-.1-.2-.1-.3-.2l-.3-.3a.6.6,0,0,1-.1-.4v-.5c.1.2.3.3.4.4s.3.2.4.3.3.1.5.2h1.2v.9Zm-3.6,2.5.6.6-.6.6-.6-.6Zm1.3,0,.6.6-.6.6-.6-.6Z" fill="#fff"/>
            <path id="Path_251" data-name="Path 251" d="M214.6,40.8a1.033,1.033,0,0,1,.8.4,2.178,2.178,0,0,1,.5.8,2.92,2.92,0,0,1,.2.9,1.949,1.949,0,0,1-.1.8h-3.5v-.9h1a3.536,3.536,0,0,0,.1-.6,1.072,1.072,0,0,1,.2-.6,2.186,2.186,0,0,1,.3-.5A.462.462,0,0,1,214.6,40.8Zm.8,1.9a.367.367,0,0,0-.1-.3.367.367,0,0,1-.1-.3c-.1-.1-.1-.2-.2-.2s-.2-.1-.3-.1a.758.758,0,0,0-.4.2,2.39,2.39,0,0,0-.3.7h1.4Z" fill="#fff"/>
            <path id="Path_252" data-name="Path 252" d="M220.4,41.4v.8c0,.1.1.3.1.4.1.1.1.2.2.2h.1v.9h-.5c-.1,0-.3-.1-.3-.2a.6.6,0,0,1-.1-.4,2.836,2.836,0,0,1-1.1.8,3.9,3.9,0,0,1-1.6.2l-.6-.9h.9a1.483,1.483,0,0,0,.7-.1v-1c-.1-.3-.2-.7-.3-1a10.371,10.371,0,0,1-.4-1,7.931,7.931,0,0,0-.4-.9l.8-.7a6.9,6.9,0,0,0,.4,1,7.6,7.6,0,0,1,.4,1.1,4.3,4.3,0,0,1,.2,1.2,1.645,1.645,0,0,1-.2,1,.877.877,0,0,0,.7-.6,2.92,2.92,0,0,0,.2-.9V38.8l.9-.5v3.1Z" fill="#fff"/>
            <path id="Path_253" data-name="Path 253" d="M226.2,41.7a3.751,3.751,0,0,1,.1,1v.4a.6.6,0,0,1-.1.4h-5.5v-.9h1.6c0-.1,0-.1-.1-.2a.367.367,0,0,1-.1-.3c0-.1-.1-.2-.1-.3a.349.349,0,0,0-.1-.2l.6-.7c0,.1.1.3.1.4s.1.3.1.4.1.3.1.4.1.3.1.4H224l-.3-.6a4.875,4.875,0,0,1-.3-.7l.6-.8a2.967,2.967,0,0,1,.4,1.1,3.751,3.751,0,0,1,.1,1h1.1a4.875,4.875,0,0,0-.3-.7,2.507,2.507,0,0,0-.4-.7l.6-.8A4.3,4.3,0,0,1,226.2,41.7Z" fill="#fff"/>
            <path id="Path_254" data-name="Path 254" d="M230.8,41.4a5.067,5.067,0,0,1-.2,1.3,2.7,2.7,0,0,1-.7.8,3,3,0,0,1-1,.4,5.283,5.283,0,0,1-1.3.1l-.6-.9h.9a1.483,1.483,0,0,0,.7-.1V42c-.1-.3-.2-.7-.3-1a10.371,10.371,0,0,1-.4-1,3.552,3.552,0,0,1-.4-.9l.8-.7a6.9,6.9,0,0,0,.4,1,7.6,7.6,0,0,1,.4,1.1,5.019,5.019,0,0,1,.2,1.2,1.645,1.645,0,0,1-.2,1,.877.877,0,0,0,.7-.6,2.92,2.92,0,0,0,.2-.9V38.7l.9-.5v3.2Zm-2.9,4.3c.1.1.2.1.3.2h.4c.1,0,.3-.1.4-.1.1-.1.2-.1.3-.2l-.2.7c-.1,0-.2.1-.4.1a.52.52,0,0,0-.4.2.758.758,0,0,1-.4.2l-.3.3V47c0-.1.1-.3.1-.4s.1-.2.2-.3c-.1,0-.3-.1-.3-.2a.367.367,0,0,1-.1-.3.749.749,0,0,1,.1-.5,1.38,1.38,0,0,1,.3-.4.764.764,0,0,1,.5-.2h.5l-.1.6a.638.638,0,0,0-.6,0A.693.693,0,0,0,227.9,45.7Z" fill="#fff"/>
            <path id="Path_255" data-name="Path 255" d="M232.7,38.1v5l-.9.5V38.7Z" fill="#fff"/>
            <path id="Path_256" data-name="Path 256" d="M237.1,43.6a5.733,5.733,0,0,1-.4,1.4,8.341,8.341,0,0,1-.8,1.2l-.9-.8a5.471,5.471,0,0,0,1.1-1,2.891,2.891,0,0,0,.4-1.4c0-.1-.1-.3-.1-.4a.52.52,0,0,0-.2-.4c-.1-.1-.1-.3-.2-.4a.758.758,0,0,1-.2-.4l.6-.9a5.36,5.36,0,0,1,.5,1.1,4.253,4.253,0,0,1,.2,1.1h.4v.9h-.4Z" fill="#fff"/>
            <path id="Path_257" data-name="Path 257" d="M242.1,43.6h-1.6a.367.367,0,0,1-.3-.1l-.2-.2-.2.2a.367.367,0,0,1-.3.1h-2.1v-.9h2.1a2.092,2.092,0,0,0-.4-.6,2.182,2.182,0,0,0-.4-.5c-.2-.1-.3-.3-.5-.3a1.483,1.483,0,0,0-.7-.1l.5-.9c.2,0,.5-.1.8-.1s.7-.1,1-.1a3.4,3.4,0,0,1,1,.1,2.01,2.01,0,0,1,.8.4c.1.2.2.3.2.5a.9.9,0,0,1-.1.5c-.1.1-.1.3-.3.4s-.2.3-.3.4l-.3.3h1.3Zm-2-1.3c.1,0,.1-.1.2-.2s.2-.1.2-.2.1-.2.2-.3a.31.31,0,0,0,.1-.2c0-.1-.1-.2-.2-.3-.2,0-.3-.1-.5-.1h-1l.6.6A4.349,4.349,0,0,1,240.1,42.3Zm.1-3.9.6.6-.6.6-.6-.6Z" fill="#fff"/>
            <path id="Path_258" data-name="Path 258" d="M249.4,42.7a1560889438963.039,1560889438963.039,0,0,1-.2.8H242v-.9h1.6a3.7,3.7,0,0,0-.5-1.1l.7-.7.3.9a2.92,2.92,0,0,1,.2.9h.3l.5-.5.6-.6a4.349,4.349,0,0,1,.7-.6,2.507,2.507,0,0,1,.7-.4,1.854,1.854,0,0,1,.7-.2,1.7,1.7,0,0,1,.7.1,1.756,1.756,0,0,1,.5.4l.3.6a1.268,1.268,0,0,1,.1.6A.846.846,0,0,1,249.4,42.7Zm-.6,0a.9.9,0,0,0-.1-.5.52.52,0,0,0-.2-.4l-.3-.3a.749.749,0,0,0-.5-.1,1.268,1.268,0,0,0-.6.1,2.186,2.186,0,0,0-.5.3,2.182,2.182,0,0,1-.5.4c-.2.1-.3.3-.4.4h3.1Z" fill="#fff"/>
            <path id="Path_259" data-name="Path 259" d="M250.4,37.3c.1.1.2.1.3.2h.4c.1,0,.3-.1.4-.1.1-.1.2-.1.3-.2l-.2.7c-.1,0-.2.1-.4.1a.52.52,0,0,0-.4.2.758.758,0,0,1-.4.2l-.3.3-.1-.1c0-.1.1-.3.1-.4s.1-.2.2-.3c-.1,0-.3-.1-.3-.2a.367.367,0,0,1-.1-.3.749.749,0,0,1,.1-.5,1.38,1.38,0,0,1,.3-.4.764.764,0,0,1,.5-.2h.5l-.1.6a.638.638,0,0,0-.6,0C250.7,36.9,250.5,37.1,250.4,37.3Zm3.6,4.1a5.067,5.067,0,0,1-.2,1.3,2.7,2.7,0,0,1-.7.8,3,3,0,0,1-1,.4,5.283,5.283,0,0,1-1.3.1l-.6-.9h.9a1.483,1.483,0,0,0,.7-.1V42c-.1-.3-.2-.7-.3-1a10.371,10.371,0,0,1-.4-1,3.552,3.552,0,0,1-.4-.9l.8-.7a6.9,6.9,0,0,0,.4,1,7.6,7.6,0,0,1,.4,1.1,5.019,5.019,0,0,1,.2,1.2,1.645,1.645,0,0,1-.2,1,.877.877,0,0,0,.7-.6,2.92,2.92,0,0,0,.2-.9V38.7l.9-.5v3.2Z" fill="#fff"/>
            <path id="Path_260" data-name="Path 260" d="M255.8,38.1v5l-.9.5V38.7Z" fill="#fff"/>
            <path id="Path_261" data-name="Path 261" d="M263.9,43.6h-.5a2.92,2.92,0,0,1-.2.9,3.508,3.508,0,0,1-.5.8,3.039,3.039,0,0,1-.7.5,2.92,2.92,0,0,1-.9.2,2.958,2.958,0,0,1-1-.2,1.794,1.794,0,0,1-.7-.5,2.177,2.177,0,0,1-.5-.8,2.125,2.125,0,0,1,0-1.8,1.555,1.555,0,0,1,.6-.8l.3.3a1.4,1.4,0,0,0-.3.9,2.483,2.483,0,0,0,.1.9,1.794,1.794,0,0,0,.5.7,1.222,1.222,0,0,0,.9.3,1.433,1.433,0,0,0,1.1-.5,1.7,1.7,0,0,0,.4-1.3V38.7l.9-.5v4.4h.5v1Z" fill="#fff"/>
            <path id="Path_262" data-name="Path 262" d="M266.4,40.4a6.018,6.018,0,0,1,.6,2.3l-.1.9h-3.2v-.9h2.6c-.1-.3-.2-.5-.3-.8-.1-.2-.3-.5-.4-.7Zm-1.6,4,.6.6-.6.6-.6-.6Zm1.3,0,.6.6-.6.6-.6-.6Z" fill="#fff"/>
            <path id="Path_263" data-name="Path 263" d="M270.2,43.6a8.333,8.333,0,0,1-.4,1.5,9.131,9.131,0,0,1-.8,1.3l-.9-.8a4.5,4.5,0,0,0,1-.9,4.671,4.671,0,0,0,.5-1h-.9a.9.9,0,0,1-.5-.1c-.2-.1-.3-.1-.4-.2l-.2-.2v-.3a1.952,1.952,0,0,1,.1-.7,1.884,1.884,0,0,1,.2-.8,1.612,1.612,0,0,1,.4-.7.864.864,0,0,1,.6-.3.713.713,0,0,1,.6.3,2.092,2.092,0,0,1,.4.6,1.884,1.884,0,0,1,.2.8,1.952,1.952,0,0,1,.1.7h.3v.9h-.3ZM268,42.3a.215.215,0,0,0,.2.2.749.749,0,0,0,.5.1h.8v-.3a.367.367,0,0,0-.1-.3,1.629,1.629,0,0,0-.3-.6c-.2-.1-.3-.2-.5-.2a.52.52,0,0,0-.4.2A3.711,3.711,0,0,0,268,42.3Z" fill="#fff"/>
            <path id="Path_264" data-name="Path 264" d="M270.4,43.6v-.9h.7a4.331,4.331,0,0,0,.1-.5,1.421,1.421,0,0,1,.2-.6,1,1,0,0,1,.4-.5.764.764,0,0,1,.5-.2,1.421,1.421,0,0,1,.6.2,1,1,0,0,1,.4.5,1.421,1.421,0,0,1,.2.6c0,.2.1.4.1.6h.4v.9h-3.6Zm2.7-.9a.367.367,0,0,0-.1-.3.367.367,0,0,1-.1-.3c-.1-.1-.1-.2-.2-.2s-.2-.1-.3-.1a.758.758,0,0,0-.4.2,2.389,2.389,0,0,0-.3.7h1.4Z" fill="#fff"/>
            <path id="Path_265" data-name="Path 265" d="M277.6,43.6H274v-.9h2.6a6.885,6.885,0,0,1-.3-.8,4.348,4.348,0,0,0-.4-.7l.7-.9a5.023,5.023,0,0,1,.5,1.3,4.907,4.907,0,0,1,.1,1.1h.3v.9Zm-2.5-4.9.6.6-.6.6-.6-.6Zm1.5,0,.6.6-.6.6-.6-.6Z" fill="#fff"/>
            <path id="Path_266" data-name="Path 266" d="M280,43.6h-2.5v-.9h1.2V38.8l.9-.5v4.4h.5v.9Z" fill="#fff"/>
            <path id="Path_267" data-name="Path 267" d="M281.9,43.6h-2v-.9h1.2V38.8l.9-.5v5.3Z" fill="#fff"/>
        </g>
        <g id="Group_12" data-name="Group 12">
            <path id="Path_268" data-name="Path 268" d="M81.6,39v5.4h-.9V39Z" fill="#fff"/>
            <path id="Path_269" data-name="Path 269" d="M82.6,43.4a2.133,2.133,0,0,0,1.2.3c.6,0,.9-.3.9-.7s-.2-.7-.9-.9a1.687,1.687,0,0,1-1.3-1.6,1.605,1.605,0,0,1,1.7-1.6,2.133,2.133,0,0,1,1.2.3l-.2.8a1.964,1.964,0,0,0-1-.3c-.6,0-.8.3-.8.7s.3.6.9.9c.8.4,1.3.8,1.3,1.6,0,.9-.6,1.6-1.9,1.6a3.548,3.548,0,0,1-1.3-.3Z" fill="#fff"/>
            <path id="Path_270" data-name="Path 270" d="M86.4,39h.9v4.6h2v.8H86.4Z" fill="#fff"/>
            <path id="Path_271" data-name="Path 271" d="M91,42.9l-.4,1.5h-.9L91.3,39h1.1L94,44.4H93l-.4-1.5Zm1.4-.7L92,40.8a3.553,3.553,0,0,1-.2-1h0c-.1.3-.1.7-.2,1l-.4,1.3h1.2Z" fill="#fff"/>
            <path id="Path_272" data-name="Path 272" d="M98.7,42.2c0-.7-.1-1.5-.1-2.3h0L98,42l-.7,2.4h-.7L96,42.1a15.985,15.985,0,0,1-.5-2.1h0c0,.7-.1,1.6-.1,2.3l-.1,2.2h-.8l.3-5.4H96l.6,2.2c.2.6.3,1.3.5,1.9h0a13.322,13.322,0,0,1,.5-1.9l.7-2.2h1.2l.3,5.4h-.9Z" fill="#fff"/>
            <path id="Path_273" data-name="Path 273" d="M101.5,39v5.4h-.9V39Z" fill="#fff"/>
            <path id="Path_274" data-name="Path 274" d="M106,44.3a3.475,3.475,0,0,1-1.3.2,2.42,2.42,0,0,1-2.5-2.7,2.61,2.61,0,0,1,2.6-2.9,2.872,2.872,0,0,1,1.2.2l-.2.8a2.509,2.509,0,0,0-1-.2c-1,0-1.7.7-1.7,2,0,1.2.6,2,1.7,2a2.958,2.958,0,0,0,1-.2Z" fill="#fff"/>
            <path id="Path_275" data-name="Path 275" d="M112.4,42.2c0-.7-.1-1.5-.1-2.3h0l-.6,2.1-.7,2.4h-.7l-.7-2.3a15.985,15.985,0,0,1-.5-2.1h0c0,.7-.1,1.6-.1,2.3l-.1,2.2h-.8l.3-5.4h1.2l.6,2.2c.2.6.3,1.3.5,1.9h0a13.322,13.322,0,0,1,.5-1.9l.7-2.2h1.2l.3,5.4h-.9Z" fill="#fff"/>
            <path id="Path_276" data-name="Path 276" d="M115.2,39v5.4h-.9V39Z" fill="#fff"/>
            <path id="Path_277" data-name="Path 277" d="M119.7,44.3a3.475,3.475,0,0,1-1.3.2,2.42,2.42,0,0,1-2.5-2.7,2.61,2.61,0,0,1,2.6-2.9,2.872,2.872,0,0,1,1.2.2l-.2.8a2.509,2.509,0,0,0-1-.2c-1,0-1.7.7-1.7,2,0,1.2.6,2,1.7,2a2.958,2.958,0,0,0,1-.2Z" fill="#fff"/>
            <path id="Path_278" data-name="Path 278" d="M120.5,39.1a5.313,5.313,0,0,1,1.4-.1,2.076,2.076,0,0,1,1.5.4,1.246,1.246,0,0,1,.4,1.1,1.461,1.461,0,0,1-.9,1.4h0a1.318,1.318,0,0,1,.7,1c.2.7.3,1.3.4,1.5h-1a4.906,4.906,0,0,1-.3-1.3.988.988,0,0,0-.9-1h-.5v2.2h-.9V39.1Zm.9,2.4h.5a.923.923,0,0,0,1-.9c0-.6-.4-.9-1-.9h-.6v1.8Z" fill="#fff"/>
            <path id="Path_279" data-name="Path 279" d="M129,41.7c0,1.8-1,2.9-2.3,2.9-1.4,0-2.3-1.2-2.3-2.8,0-1.7.9-2.8,2.3-2.8C128.1,38.9,129,40.1,129,41.7Zm-3.7.1c0,1.1.5,2,1.4,2s1.4-.9,1.4-2c0-1-.5-2-1.4-2C125.8,39.7,125.3,40.6,125.3,41.8Z" fill="#fff"/>
            <path id="Path_280" data-name="Path 280" d="M129.7,39h2.8v.8h-1.9v1.5h1.8v.8h-1.8v2.3h-.9V39Z" fill="#fff"/>
            <path id="Path_281" data-name="Path 281" d="M134.3,39v5.4h-.9V39Z" fill="#fff"/>
            <path id="Path_282" data-name="Path 282" d="M135.3,44.4V39h1l1.3,2.3a14.166,14.166,0,0,1,.8,1.8h0a16.222,16.222,0,0,1-.1-2.3V39h.8v5.4h-.9L136.9,42c-.3-.6-.6-1.3-.9-1.9h0v4.2h-.7Z" fill="#fff"/>
            <path id="Path_283" data-name="Path 283" d="M141.2,42.9l-.4,1.5h-.9l1.6-5.4h1.1l1.6,5.4h-1l-.4-1.5Zm1.4-.7-.4-1.3a3.553,3.553,0,0,1-.2-1h0c-.1.3-.1.7-.2,1l-.4,1.3Z" fill="#fff"/>
            <path id="Path_284" data-name="Path 284" d="M144.9,44.4V39h1l1.3,2.3a14.166,14.166,0,0,1,.8,1.8h0a16.222,16.222,0,0,1-.1-2.3V39h.8v5.4h-.9L146.5,42c-.3-.6-.6-1.3-.9-1.9h0v4.2h-.7Z" fill="#fff"/>
            <path id="Path_285" data-name="Path 285" d="M153.3,44.3a3.475,3.475,0,0,1-1.3.2,2.42,2.42,0,0,1-2.5-2.7,2.61,2.61,0,0,1,2.6-2.9,2.872,2.872,0,0,1,1.2.2l-.2.8a2.509,2.509,0,0,0-1-.2c-1,0-1.7.7-1.7,2,0,1.2.6,2,1.7,2a2.958,2.958,0,0,0,1-.2Z" fill="#fff"/>
            <path id="Path_286" data-name="Path 286" d="M156.8,42H155v1.6h2.1v.8h-3V39h2.8v.8h-2v1.4h1.8V42Z" fill="#fff"/>
        </g>
    </g>
</svg>
