<?xml version="1.0" encoding="utf-8"?>
<!-- Generator: Adobe Illustrator 24.0.1, SVG Export Plug-In . SVG Version: 6.00 Build 0)  -->
<svg version="1.1" id="Layer_1" xmlns="http://www.w3.org/2000/svg" xmlns:xlink="http://www.w3.org/1999/xlink" x="0px" y="0px"
	 viewBox="0 0 345.7 59.9" style="enable-background:new 0 0 345.7 59.9;" xml:space="preserve">
<style type="text/css">
	.st0{fill:#726198;}
</style>
<g>
	<g>
		<g>
			<polygon class="st0" points="297.3,18.6 298.8,20 297.3,21.5 295.8,20 			"/>
			<polygon class="st0" points="306.2,30.5 307.4,31.6 306.1,32.8 304.9,31.6 			"/>
			<polygon class="st0" points="271.4,29.2 265.8,29.2 265.8,27 269,27 269,16.9 271.4,15.7 			"/>
			<polygon class="st0" points="275.3,15.7 275.3,27.9 273,29.2 273,16.9 			"/>
			<path class="st0" d="M302.5,29.2h-10.1V27h7.4c-0.3-0.6-0.5-1.2-0.9-1.9c-0.3-0.7-0.7-1.3-1.1-1.8l2-2.1c0.6,1.1,1.1,2.1,1.3,3.1
				c0.3,1,0.4,1.9,0.4,2.7h0.9V29.2z"/>
			<path class="st0" d="M307.6,21.3c1.2,2.2,1.7,4.1,1.7,5.7l-0.2,2.2h-8.7V27h7.1c-0.2-0.7-0.5-1.3-0.9-1.9
				c-0.3-0.6-0.7-1.2-1.1-1.7L307.6,21.3z"/>
			<path class="st0" d="M286,20.9c0.2,0.2,0.5,0.3,0.8,0.3c0.3,0,0.7,0,1-0.1c0.3-0.1,0.7-0.2,1-0.3c0.3-0.1,0.6-0.2,0.8-0.3L289,22
				c-0.2,0.1-0.6,0.2-0.9,0.3c-0.4,0.1-0.7,0.3-1.1,0.4c-0.3,0.2-0.7,0.3-1,0.5c-0.3,0.2-0.5,0.4-0.6,0.7l-0.1-0.3
				c0.1-0.3,0.2-0.6,0.3-0.9c0.1-0.3,0.3-0.5,0.5-0.7c-0.4-0.1-0.6-0.2-0.7-0.4c-0.1-0.2-0.2-0.4-0.2-0.7c0-0.4,0.1-0.8,0.3-1.2
				c0.2-0.4,0.5-0.7,0.8-0.9c0.3-0.2,0.7-0.4,1.1-0.5c0.4-0.1,0.8,0,1.3,0.1l-0.2,1.4c-0.4-0.2-0.8-0.2-1.3,0
				C286.7,20.1,286.3,20.4,286,20.9"/>
			<path class="st0" d="M281.4,27c-0.1-0.3-0.3-0.6-0.3-0.9c-0.2-0.8-0.1-1.5,0.1-2.3c0.3-0.8,0.6-1.5,1.2-2.1l-1-0.9
				c-0.5,0.6-1,1.2-1.4,1.9c-0.4,0.7-0.7,1.5-0.8,2.2c-0.2,0.8-0.2,1.6-0.1,2.3c0.1,0.7,0.4,1.3,0.7,1.8l1.4-2.1H281.4z"/>
			<path class="st0" d="M292.1,17.3v6V27h-2.9h-6.9h-1h-0.1l-1.4,2.1c0,0,0,0.1,0.1,0.1h1.3h8.6h4.6v-3.6v-2.1v-7.4L292.1,17.3z"/>
			<g>
				<path class="st0" d="M174.7,28.1l1.3-1.3v-6.3c0-0.6-1.1-0.6-1.5-0.2c-0.4,0-0.9,0-0.9,0s1.9-1.6,4.5-3.5c0.5,0,0.4,0.6,0.3,0.7
					c0,0-0.5,0.5-0.7,1v4.6v0.2h0.5c0,0,4.2-2.8,6.9-4.4c0.3-0.5-0.2-0.9-0.5-1.2c0,0-0.5-0.4-0.4-0.7c0.2-0.4,1.2,0.4,3.7,2.3
					c0,0,0.6,0.3,0.1,0.6c-0.3-0.1-0.7-0.3-1-0.1c0,0-6.7,3.9-7.1,4.2c0,0,4.3,1.3,9,2.5c0,0,1,0.2,0.9,1.4c-0.1,1.2,0,2.2-1.1,2.3
					c0,0-12.8,0-13.5,0c-0.5,0.1-0.7,0.6-0.9,0.8c-0.2,0.1-1.8-1.5-2.6-3.8c0-0.3,0.6-0.6,1.1,0c0.4,0.6,0.7,1.1,1.7,1.5
					c0,0,11.1,0,12.5,0c1.3,0,1-0.7,0.1-0.7c-1-0.3-7.7-2.2-8.3-2.3c-0.6-0.1-0.7-0.1-0.9,0l0,1.2l1.6,1.4L174.7,28.1z"/>
				<polygon class="st0" points="194.6,22.8 196.9,18.9 194.6,15.6 192.1,18.1 				"/>
				<polygon class="st0" points="182.2,10.7 186.1,8.1 189.4,10.3 187.1,12.9 				"/>
				<path class="st0" d="M191.8,17.6l2.4-2.6c0,0-2.6-3.8-4.3-4.4l-2.4,2.7C187.6,13.2,191.7,17.1,191.8,17.6"/>
				<polygon class="st0" points="189.6,9.7 193.4,7.2 188.7,5 186.4,7.7 				"/>
				<polygon class="st0" points="195.1,15.1 197.2,17.9 199.8,14.4 197.7,10.5 				"/>
				<polygon class="st0" points="168,22.9 165.7,18.9 168.1,15.7 170.5,18.1 				"/>
				<polygon class="st0" points="180.4,10.7 176.6,8.1 173.2,10.3 175.5,12.9 				"/>
				<path class="st0" d="M170.8,17.6l-2.4-2.6c0,0,2.6-3.8,4.2-4.4l2.4,2.7C175.1,13.3,171,17.2,170.8,17.6"/>
				<polygon class="st0" points="173.1,9.7 169.2,7.2 173.9,5.1 176.2,7.7 				"/>
				<polygon class="st0" points="167.6,15.1 165.4,17.9 162.8,14.4 164.9,10.5 				"/>
				<polygon class="st0" points="167.9,26.5 165.6,30.5 167.9,33.7 170.4,31.3 				"/>
				<polygon class="st0" points="180.3,38.7 176.4,41.3 173.1,39.1 175.4,36.5 				"/>
				<path class="st0" d="M170.7,31.8l-2.4,2.6c0,0,2.6,3.8,4.2,4.4l2.4-2.7C174.9,36.2,170.9,32.2,170.7,31.8"/>
				<polygon class="st0" points="173,39.7 169.1,42.2 173.8,44.3 176.1,41.7 				"/>
				<polygon class="st0" points="167.4,34.3 165.3,31.5 162.7,35 164.8,38.9 				"/>
				<polygon class="st0" points="194.5,26.5 196.8,30.5 194.5,33.7 192,31.3 				"/>
				<polygon class="st0" points="182.1,38.7 186,41.2 189.3,39.1 187,36.5 				"/>
				<path class="st0" d="M191.7,31.7l2.4,2.6c0,0-2.6,3.8-4.3,4.4l-2.4-2.7C187.5,36.1,191.5,32.2,191.7,31.7"/>
				<polygon class="st0" points="189.4,39.7 193.3,42.2 188.6,44.3 186.3,41.7 				"/>
				<polygon class="st0" points="195,34.3 197.1,31.5 199.7,35 197.6,38.9 				"/>
				<polygon class="st0" points="181.2,2.2 183.5,5.4 181.1,9.4 178.9,5.3 				"/>
				<polygon class="st0" points="181.2,47.2 183.7,44.1 181.3,39.7 178.9,44 				"/>
				<polygon class="st0" points="202.3,24.9 199.1,27.2 195.1,24.8 199.3,22.6 				"/>
				<polygon class="st0" points="160.5,24.9 163.7,27.2 167.7,24.8 163.8,22.6 				"/>
			</g>
			<polygon class="st0" points="47.4,31.1 47.4,18.3 48,18.3 48,30.3 52.8,30.3 52.8,31.1 			"/>
			<polygon class="st0" points="53.5,31.8 46.8,31.8 46.8,17.6 48.7,17.6 48.7,29.7 53.5,29.7 			"/>
			<path class="st0" d="M70.8,29.9c-0.7,0.7-1.5,1.1-2.3,1.2c-0.1,0-0.1,0-0.2,0h-0.2H68c-0.1,0-0.1,0-0.2,0
				c-0.8-0.1-1.6-0.5-2.3-1.2c-0.7-0.7-1.1-1.7-1.1-2.9v-8.8H65v2.2v2.2v2.2V27c0,0.9,0.3,1.7,0.8,2.2c0.5,0.6,1.1,0.9,1.8,1.1
				c0.1,0,0.2,0,0.3,0c0.1,0,0.2,0,0.3,0c0.1,0,0.2,0,0.3,0c0.1,0,0.2,0,0.3,0c0.7-0.1,1.3-0.5,1.8-1.1c0.5-0.6,0.8-1.3,0.8-2.2
				v-8.8h0.6v2.2v2.2v2.2V27C71.9,28.2,71.5,29.1,70.8,29.9"/>
			<path class="st0" d="M68.3,31.8H68c-0.1,0-0.2,0-0.3,0c-1-0.1-1.9-0.6-2.7-1.4c-0.8-0.8-1.2-2-1.2-3.3v-9.4h1.9V27
				c0,0.7,0.2,1.3,0.6,1.8c0.4,0.5,0.9,0.8,1.4,0.9c0.1,0,0.1,0,0.2,0c0.1,0,0.3,0,0.4,0c0.1,0,0.1,0,0.2,0c0.5-0.1,1-0.4,1.4-0.9
				c0.4-0.4,0.6-1,0.6-1.8v-9.4h1.9V27c0,1.4-0.4,2.5-1.2,3.3c-0.8,0.8-1.7,1.3-2.7,1.4C68.5,31.7,68.4,31.8,68.3,31.8"/>
			<path class="st0" d="M82.2,31.1c-0.1,0-0.2-0.1-0.3-0.1c-0.1,0-0.2-0.1-0.3-0.1c-1-0.3-1.9-0.9-2.9-1.5c-0.9-0.7-1.8-1.5-2.4-2.5
				l0.3-0.6c0.1,0.1,0.3,0.1,0.4,0.1c0.1,0,0.3,0.1,0.4,0.1c0.1,0,0.1,0,0.2,0c0.1,0,0.1,0,0.2,0h0.1h0.1c0.8,0,1.6-0.4,2.2-1.1
				c0.7-0.7,1-1.6,1-2.7c0-1.1-0.3-2-1-2.7c-0.7-0.7-1.4-1-2.2-1.1h-0.1h-0.1h-3.4v12.1h-0.6V18.3h2h2c1,0,1.9,0.4,2.7,1.2
				c0.8,0.8,1.2,1.9,1.2,3.3c0,1.3-0.4,2.4-1.2,3.2c-0.8,0.8-1.7,1.2-2.7,1.3h-0.1h0h-0.2c-0.1,0,0,0.1-0.2,0
				c0.7,0.7,1.5,1.4,2.3,1.9c0.9,0.6,1.7,0.9,2.6,1.2L82.2,31.1z"/>
			<path class="st0" d="M82.7,31.9L82,31.8c-0.1,0-0.2-0.1-0.4-0.1c-0.1,0-0.2-0.1-0.3-0.1l-0.1,0c-1-0.4-2.1-0.9-3.1-1.6
				c-1-0.7-1.9-1.6-2.6-2.7l-0.2-0.3l0.8-1.5l0.6,0.2c0.1,0,0.2,0.1,0.3,0.1c0.1,0,0.2,0,0.3,0.1c0.1,0,0.1,0,0.2,0c0,0,0.1,0,0.1,0
				h0.1c0.6,0,1.2-0.3,1.8-0.9c0.6-0.5,0.8-1.3,0.8-2.2c0-0.9-0.3-1.6-0.8-2.2c-0.5-0.6-1.1-0.9-1.7-0.9H75v12.1h-1.9V17.6h4.7
				c1.2,0,2.2,0.5,3.2,1.4c0.9,1,1.4,2.2,1.4,3.7c0,1.5-0.5,2.8-1.4,3.7c-0.6,0.6-1.3,1.1-2,1.3c0.4,0.3,0.8,0.6,1.2,0.9
				c0.8,0.5,1.6,0.9,2.4,1.1l0.6,0.2L82.7,31.9z"/>
			<path class="st0" d="M93,31.1c0-0.3,0-0.6-0.1-0.9c0-0.3-0.1-0.6-0.1-0.9h-7c0,0.3-0.1,0.6-0.1,0.9c0,0.3-0.1,0.6-0.1,0.9l-0.5,0
				c0-0.3,0-0.6,0.1-0.9c0-0.3,0.1-0.6,0.1-0.8l0.4,0l-0.3-0.7c0.3-1.9,0.8-3.6,1.4-5.3c0.7-1.7,1.5-3.2,2.6-4.7
				c1.3,1.7,2.3,3.7,3,5.7c0.7,2.1,1.1,4.4,1.3,6.7H93z M91.4,23.9c-0.6-1.5-1.3-2.9-2.2-4.2c-0.9,1.3-1.6,2.7-2.2,4.2
				c-0.6,1.5-1,3.1-1.2,4.7h6.8C92.4,27,92,25.4,91.4,23.9"/>
			<path class="st0" d="M94.3,31.8h-1.9l0-0.6c0-0.3,0-0.6-0.1-0.9c0-0.1,0-0.2,0-0.3h-5.7l0,0l-0.2,0c0,0.1,0,0.2,0,0.2
				c0,0.3-0.1,0.6-0.1,0.9l0,0.6l-1.9,0l0.1-0.7c0-0.1,0-0.2,0-0.4c0-0.2,0-0.4,0-0.6c0-0.3,0.1-0.6,0.1-0.9l0.1-0.5l0,0l0-0.2
				c0.3-1.9,0.8-3.7,1.4-5.5c0.7-1.7,1.6-3.3,2.7-4.8l0.5-0.7l0.5,0.7c1.3,1.8,2.4,3.8,3.1,5.9c0.7,2.1,1.1,4.4,1.3,6.9L94.3,31.8z
				 M86.7,27.9h5.2c-0.3-1.3-0.6-2.6-1.1-3.8c-0.4-1.1-0.9-2.2-1.6-3.2c-0.6,1-1.1,2.1-1.6,3.2C87.3,25.3,86.9,26.6,86.7,27.9"/>
			<path class="st0" d="M45,31.1c0-0.3,0-0.6-0.1-0.9c0-0.3-0.1-0.6-0.1-0.9h-7c0,0.3-0.1,0.6-0.1,0.9c0,0.3-0.1,0.6-0.1,0.9l-0.5,0
				c0-0.3,0-0.6,0.1-0.9c0-0.3,0.1-0.6,0.1-0.8l0.1-0.6l0-0.1c0.3-1.9,0.8-3.6,1.4-5.3c0.7-1.7,1.5-3.2,2.6-4.7
				c1.3,1.7,2.3,3.7,3,5.7c0.7,2.1,1.1,4.4,1.3,6.7H45z M43.5,23.9c-0.6-1.5-1.3-2.9-2.2-4.2c-0.9,1.3-1.6,2.7-2.2,4.2
				c-0.6,1.5-1,3.1-1.2,4.7h6.8C44.4,27,44,25.4,43.5,23.9"/>
			<path class="st0" d="M46.3,31.8h-1.9l0-0.6c0-0.3,0-0.6-0.1-0.9c0-0.1,0-0.2,0-0.3h-5.9c0,0.1,0,0.2,0,0.3c0,0.3-0.1,0.6-0.1,0.9
				l0,0.6l-1.9,0l0.1-0.7c0-0.1,0-0.2,0-0.4c0-0.2,0-0.4,0-0.5c0-0.3,0.1-0.6,0.1-0.9l0.1-0.7c0.3-1.9,0.8-3.7,1.4-5.4
				c0.7-1.7,1.6-3.3,2.7-4.8l0.5-0.7l0.5,0.7c1.3,1.8,2.4,3.8,3.1,5.9c0.7,2.1,1.1,4.4,1.3,6.9L46.3,31.8z M38.7,27.9h5.2
				c-0.3-1.3-0.6-2.6-1.1-3.8c-0.4-1.1-0.9-2.2-1.6-3.2c-0.6,1-1.1,2.1-1.6,3.2C39.3,25.3,38.9,26.6,38.7,27.9"/>
			<rect x="95.7" y="18.3" class="st0" width="0.6" height="12.8"/>
			<rect x="95" y="17.6" class="st0" width="1.9" height="14.1"/>
			<path class="st0" d="M105,24.1c-0.7,1.4-1.2,2.9-1.4,4.6h-0.6c-0.2-1.7-0.7-3.2-1.4-4.6c-0.7-1.4-1.7-2.6-2.8-3.7v10.6h-0.6v-12
				c0,0,0.1,0.1,0.1,0.1c0,0,0.1,0.1,0.1,0.1c0,0,0.1,0.1,0.1,0.1c0,0,0.1,0.1,0.1,0.1c1.1,0.9,2,2,2.8,3.3c0.8,1.3,1.4,2.2,1.7,3.7
				"/>
			<path class="st0" d="M99.6,31.8h-1.9V17.6l1.1,1c0,0,0.1,0.1,0.1,0.1l0.1,0.1l0.1,0.1c0,0,0.1,0.1,0.1,0.1c1.1,1,2.1,2.1,2.9,3.5
				l0.1,0.2c0.6,0.9,1.1,1.7,1.5,2.8c0.2-0.6,0.4-1.1,0.7-1.6l1.2,0.6c-0.7,1.3-1.1,2.8-1.3,4.4l-0.1,0.6h-1.7l-0.1-0.6
				c-0.2-1.6-0.6-3-1.3-4.4c-0.4-0.8-0.9-1.6-1.5-2.3V31.8z"/>
			<path class="st0" d="M103.6,26.5c0.4-1.5,0.9-2.4,1.7-3.7c0.8-1.3,1.7-2.4,2.8-3.3c0,0,0.1-0.1,0.1-0.1c0,0,0.1-0.1,0.1-0.1
				c0,0,0.1-0.1,0.1-0.1c0,0,0.1-0.1,0.1-0.1v12h-0.6V20.4c-1.1,1-2,2.3-2.8,3.7c-0.7,1.4-1.2,2.9-1.4,4.6h-0.6
				c-0.2-1.7-0.7-3.2-1.4-4.6"/>
			<path class="st0" d="M109.3,31.8h-1.9v-9.6c-0.6,0.7-1.1,1.5-1.5,2.3c-0.7,1.3-1.1,2.8-1.3,4.4l-0.1,0.6h-1.7l-0.1-0.6
				c-0.2-1.6-0.6-3-1.3-4.4l1.2-0.6c0.3,0.5,0.5,1.1,0.7,1.6c0.4-1.1,0.9-1.8,1.5-2.8l0.1-0.2c0.8-1.3,1.8-2.5,2.9-3.5
				c0,0,0.1-0.1,0.1-0.1l0.1-0.1l0.1-0.1l0.1-0.1l1.1-1V31.8z"/>
			<path class="st0" d="M55.8,26.1c0-0.3,0-0.5,0.1-0.8v-7h-0.6v12.8h0.6v-2.9c0,0,0,0-0.1,0V26.1z"/>
			<path class="st0" d="M56.5,31.8h-1.9V17.7h1.9l0,7.8c0,0.2,0,0.4,0,0.6v1.4l0.1,0V31.8z"/>
			<path class="st0" d="M62.6,29.8c-0.4-0.8-0.8-1.5-1.3-2c-0.5-0.5-1.1-1-1.8-1.3c-0.7-0.3-1.4-0.6-2.2-0.7l-0.6-0.1l0.4-0.4
				l4.2-3.8c0.4-0.4,0.8-0.6,1-0.6c0,0,0.1,0,0.1,0c0,0,0.1,0,0.1,0v-1.6c0-0.3-0.1-0.8-0.3-0.9c0,0-0.1,0-0.1,0
				c-0.1,0-0.4,0.1-0.8,0.5c-1.1,1.1-2.1,1.9-2.8,2.5c-0.7,0.6-1.3,1.1-1.6,1.5c-0.4,0.4-0.6,0.8-0.8,1.1c-0.1,0.2-0.1,0.4-0.1,0.6
				v3.4c0,0,0,0,0.1,0c0.5,0,0.9,0,1.4,0.1c0.6,0.1,1.2,0.3,1.8,0.7c0.6,0.3,1.1,0.8,1.5,1.4c0.3,0.4,0.6,0.9,0.7,1.6h1.7
				C63.1,31,62.9,30.4,62.6,29.8"/>
			<rect x="110.5" y="18.2" class="st0" width="0.7" height="13"/>
			<rect x="110" y="17.7" class="st0" width="1.7" height="14.1"/>
			<path class="st0" d="M134.6,31.1c0-0.3,0-0.6-0.1-0.9c0-0.3-0.1-0.6-0.1-0.9h-7c0,0.3-0.1,0.6-0.1,0.9c0,0.3-0.1,0.6-0.1,0.9
				l-0.5,0c0-0.3,0-0.6,0.1-0.9c0-0.3,0.1-0.6,0.1-0.8l0.4,0l-0.3-0.7c0.3-1.9,0.8-3.6,1.4-5.3c0.7-1.7,1.5-3.2,2.6-4.7
				c1.3,1.7,2.3,3.7,3,5.7c0.7,2.1,1.1,4.4,1.3,6.7H134.6z M133.1,23.9c-0.6-1.5-1.3-2.9-2.2-4.2c-0.9,1.3-1.6,2.7-2.2,4.2
				c-0.6,1.5-1,3.1-1.2,4.7h6.8C134,27,133.6,25.4,133.1,23.9"/>
			<path class="st0" d="M135.9,31.8H134l0-0.6c0-0.3,0-0.6-0.1-0.9c0-0.1,0-0.2,0-0.3l-5.9,0c0,0.1,0,0.2,0,0.2
				c0,0.3-0.1,0.6-0.1,0.9l0,0.6l-1.9,0L126,31c0-0.1,0.3-2.5,0.3-2.5c0.3-1.9,0.8-3.7,1.4-5.5c0.7-1.7,1.6-3.3,2.7-4.8l0.5-0.7
				l0.5,0.7c1.3,1.8,2.4,3.8,3.1,5.9c0.7,2.1,1.1,4.4,1.3,6.9L135.9,31.8z M128.3,28h5.2c-0.3-1.3-0.6-2.6-1.1-3.8
				c-0.4-1.1-0.9-2.2-1.6-3.2c-0.6,1-1.1,2.1-1.6,3.2C128.9,25.3,128.5,26.6,128.3,28"/>
			<path class="st0" d="M144.9,19.2c0,0,0,7.1,0,8.7c-3.6-7.2-8.1-10.3-8.1-10.3v14.2h1.9v-9.6c4.1,4,6.2,9.6,6.2,9.6h1.9v-4.1v-2.3
				v-0.4v-1v-6.3C146.9,17.5,145.1,19.1,144.9,19.2"/>
			<path class="st0" d="M155.8,29.7c-0.4-0.8-0.8-1.5-1.3-2c-0.5-0.5-1.1-1-1.8-1.3c-0.7-0.3-1.4-0.6-2.2-0.7l-0.6-0.1l0.4-0.4
				l4.2-3.8c0.4-0.4,0.8-0.6,1-0.6c0,0,0.1,0,0.1,0c0,0,0.1,0,0.1,0v-1.6c0-0.3-0.1-0.8-0.3-0.9c0,0-0.1,0-0.1,0
				c-0.1,0-0.4,0.1-0.8,0.5c-1.1,1.1-2.1,1.9-2.8,2.5c-0.7,0.6-1.3,1.1-1.6,1.5c-0.2,0.2-0.4,0.4-0.5,0.6l0-5.9h-1.9v14.1h1.9V28
				c0.4,0,0.7,0,1.1,0.1c0.6,0.1,1.2,0.3,1.8,0.7c0.6,0.3,1.1,0.8,1.5,1.4c0.3,0.4,0.6,0.9,0.7,1.6h1.7
				C156.3,30.9,156.1,30.2,155.8,29.7"/>
			<polygon class="st0" points="117.7,29.2 117.7,29.2 117.7,17.1 115.8,17.1 115.8,29.8 117.7,29.8 			"/>
			<path class="st0" d="M125.2,27.2c0-1-0.2-1.9-0.6-2.6c0.1-0.1,0.1-0.3,0.2-0.4c0.2-0.6,0.3-1.2,0.3-1.9c0-1.1-0.2-2-0.7-2.8
				c-0.2-0.3-0.4-0.6-0.7-0.9c-0.3-0.3-0.5-0.5-0.8-0.7c-0.7-0.5-1.5-0.7-2.4-0.7h-4.7v0h1.9l0,2h2.9c0,0,0,0,0.1,0
				c0.6,0.1,1.1,0.4,1.7,0.9c0.1,0.1,0.2,0.2,0.2,0.3c0.3,0.4,0.5,0.9,0.5,1.5c0,0.1,0,0.2,0,0.4c0,0.7-0.2,1.3-0.5,1.8
				c0,0-0.1,0.1-0.1,0.1c-0.6,0.5-1.2,0.8-1.8,0.9h-0.1c0,0-0.1,0-0.1,0c-0.1,0-0.1,0-0.2,0c-0.1,0-0.2,0-0.3-0.1
				c-0.1,0-0.2-0.1-0.3-0.1l-0.6-0.2l-0.8,1.5c2.2,1.7,4.1,0.7,4.7,0.2c0,0,0,0,0,0c0,0.2,0.1,0.4,0.1,0.5c0,0.1,0,0.2,0,0.4
				c0,0.8-0.2,1.4-0.6,1.9c-0.1,0.1-0.2,0.2-0.3,0.3c-0.2,0.2-0.3,0.3-0.5,0.4h-4.2h-1.9v2h6.6c0.3-0.1,0.5-0.2,0.8-0.4
				c0.2-0.1,0.4-0.3,0.6-0.5c0.3-0.3,0.6-0.7,0.8-1.1c0.1-0.2,0.2-0.4,0.3-0.7c-0.1-0.2-0.1-0.2,0,0
				C125.1,28.5,125.2,27.9,125.2,27.2"/>
			<g>
				<path class="st0" d="M226.2,54c0.2,0.3,0.3,0.6,0.3,1c0,0.1,0,0.3,0,0.4c0,0.2,0,0.3,0,0.5h-1.8c-0.2,0-0.3,0-0.4-0.1
					c-0.1-0.1-0.1-0.2-0.1-0.3c0-0.1,0-0.2,0-0.3c0-0.1,0.1-0.2,0.1-0.3c0,0.1,0,0.2,0,0.2c0,0.1,0.1,0.1,0.3,0.1h1.4
					c0-0.3-0.1-0.6-0.3-0.8c-0.2-0.2-0.3-0.4-0.5-0.6l0.4-0.7C225.8,53.4,226,53.7,226.2,54"/>
				<path class="st0" d="M223.8,55.6c0,0.4-0.1,0.8-0.3,1.1c-0.2,0.3-0.4,0.7-0.6,1l-0.7-0.6c0.3-0.2,0.6-0.4,0.7-0.7
					c0.2-0.3,0.3-0.5,0.4-0.7c-0.1,0-0.2,0-0.3,0c-0.1,0-0.2,0-0.4,0c-0.1,0-0.2,0-0.4-0.1c-0.1,0-0.2-0.1-0.3-0.1
					c-0.1-0.1-0.1-0.1-0.2-0.2c0-0.1,0-0.1,0-0.2c0-0.2,0-0.3,0.1-0.5c0-0.2,0.1-0.4,0.2-0.6c0.1-0.2,0.2-0.4,0.3-0.5
					c0.1-0.1,0.3-0.2,0.5-0.2c0.2,0,0.3,0.1,0.5,0.2c0.1,0.1,0.2,0.3,0.3,0.5c0.1,0.2,0.1,0.4,0.2,0.6c0,0.2,0.1,0.4,0.1,0.5
					C223.8,55.2,223.8,55.4,223.8,55.6 M222.1,54.6c0,0.1,0.1,0.1,0.2,0.2c0.1,0,0.2,0.1,0.3,0.1c0.1,0,0.3,0,0.4,0
					c0.1,0,0.2,0,0.3,0c0-0.1,0-0.1,0-0.2c0-0.1,0-0.1,0-0.2c-0.1-0.2-0.1-0.3-0.3-0.4c-0.1-0.1-0.2-0.1-0.4-0.1
					c-0.1,0-0.2,0.1-0.3,0.2C222.2,54.2,222.1,54.4,222.1,54.6"/>
				<path class="st0" d="M220.1,53.8c0.2,0,0.4,0.1,0.6,0.3c0.2,0.2,0.3,0.4,0.4,0.6c0.1,0.2,0.2,0.4,0.2,0.7c0,0.2,0,0.4-0.1,0.6
					h-9.2v-0.7h7.2c0-0.1,0-0.3,0.1-0.4c0-0.2,0.1-0.3,0.2-0.5c0.1-0.2,0.2-0.3,0.3-0.4C219.8,53.9,219.9,53.8,220.1,53.8
					 M220.7,55.3c0-0.1,0-0.1,0-0.2c0-0.1-0.1-0.2-0.1-0.2c0-0.1-0.1-0.1-0.2-0.2c-0.1,0-0.1-0.1-0.2-0.1c-0.1,0-0.2,0.1-0.3,0.2
					c-0.1,0.1-0.2,0.3-0.2,0.5H220.7z"/>
				<polygon class="st0" points="212.7,55.3 212.7,55.9 211.4,55.9 211.4,52.2 212.1,51.8 212.1,55.3 				"/>
				<path class="st0" d="M208.4,53.8c0.2,0,0.4,0.1,0.6,0.3c0.2,0.2,0.3,0.4,0.4,0.6c0.1,0.2,0.2,0.4,0.2,0.7c0,0.2,0,0.4-0.1,0.6
					H205v-0.7h2.5c0-0.1,0-0.3,0.1-0.4c0-0.2,0.1-0.3,0.2-0.5c0.1-0.2,0.2-0.3,0.3-0.4C208.1,53.9,208.2,53.8,208.4,53.8 M209,55.3
					c0-0.1,0-0.1,0-0.2c0-0.1-0.1-0.2-0.1-0.2c0-0.1-0.1-0.1-0.2-0.2c-0.1,0-0.1-0.1-0.2-0.1c-0.1,0-0.2,0.1-0.3,0.2
					c-0.1,0.1-0.2,0.3-0.2,0.5H209z"/>
				<path class="st0" d="M205.5,55.9h-1.3c-0.1,0-0.2,0-0.2-0.1c-0.1,0-0.1-0.1-0.2-0.1c-0.1,0.1-0.1,0.1-0.2,0.2
					c-0.1,0-0.1,0.1-0.2,0.1h-13.1v-0.7h13.1c-0.1-0.1-0.2-0.3-0.3-0.4c-0.1-0.1-0.2-0.3-0.3-0.4c-0.1-0.1-0.3-0.2-0.4-0.3
					c-0.2-0.1-0.3-0.1-0.5-0.1l0.4-0.6c0.2,0,0.4-0.1,0.7-0.1c0.3,0,0.5-0.1,0.8-0.1c0.3,0,0.5,0,0.8,0.1c0.2,0.1,0.4,0.1,0.6,0.3
					c0.1,0.1,0.1,0.2,0.1,0.4c0,0.1,0,0.2-0.1,0.3c-0.1,0.1-0.1,0.2-0.2,0.3c-0.1,0.1-0.2,0.2-0.2,0.3l-0.3,0.2h1V55.9z M203.9,54.9
					c0,0,0.1-0.1,0.2-0.1c0.1-0.1,0.1-0.1,0.2-0.2c0.1-0.1,0.1-0.1,0.2-0.2c0-0.1,0.1-0.1,0.1-0.2c0-0.1-0.1-0.2-0.2-0.2
					c-0.1,0-0.3-0.1-0.4-0.1c-0.2,0-0.3,0-0.5,0c-0.2,0-0.3,0-0.3,0c0.2,0.1,0.3,0.3,0.4,0.4C203.6,54.6,203.8,54.7,203.9,54.9"/>
				<path class="st0" d="M188.3,53.6c0.1,0.1,0.1,0.1,0.2,0.1c0.1,0,0.2,0,0.3,0c0.1,0,0.2-0.1,0.3-0.1c0.1,0,0.2-0.1,0.2-0.1
					l-0.1,0.4c-0.1,0-0.1,0-0.2,0.1c-0.1,0-0.2,0.1-0.3,0.1c-0.1,0-0.2,0.1-0.3,0.1c-0.1,0.1-0.1,0.1-0.2,0.2l0-0.1
					c0-0.1,0-0.2,0.1-0.2c0-0.1,0.1-0.1,0.1-0.2c-0.1,0-0.2,0-0.2-0.1c0,0,0-0.1,0-0.2c0-0.1,0-0.2,0.1-0.3c0.1-0.1,0.1-0.2,0.2-0.2
					c0.1-0.1,0.2-0.1,0.3-0.1c0.1,0,0.2,0,0.3,0l-0.1,0.4c-0.1-0.1-0.2-0.1-0.3,0C188.5,53.4,188.4,53.5,188.3,53.6"/>
				<path class="st0" d="M187.1,55.3c0-0.1-0.1-0.2-0.1-0.2c0-0.2,0-0.4,0-0.7c0.1-0.2,0.2-0.4,0.3-0.6l-0.3-0.3
					c-0.1,0.2-0.3,0.3-0.4,0.5c-0.1,0.2-0.2,0.4-0.2,0.6c0,0.2,0,0.4,0,0.7c0,0.2,0.1,0.4,0.2,0.5L187.1,55.3L187.1,55.3z"/>
				<path class="st0" d="M189.9,52.2v2.1v1h-0.8h-1.8h-0.3h0l-0.4,0.6c0,0,0,0,0,0h0.4h2.3h1.2v-1v-0.6v-2.5L189.9,52.2z"/>
				<path class="st0" d="M139,55.9h-0.3l-0.3-1c0-0.1-0.1-0.2-0.1-0.3c0-0.1-0.1-0.2-0.1-0.2c-0.1-0.1-0.1-0.1-0.2-0.2
					c-0.1,0-0.1-0.1-0.2-0.1h-1.1v1.7h-0.2v-3.8h1.4c0.1,0,0.3,0,0.4,0c0.1,0,0.2,0.1,0.3,0.2c0.1,0.1,0.2,0.2,0.2,0.3
					c0.1,0.1,0.1,0.3,0.1,0.5c0,0.1,0,0.2,0,0.4c0,0.1-0.1,0.2-0.1,0.3c-0.1,0.1-0.1,0.2-0.2,0.2c-0.1,0.1-0.2,0.1-0.3,0.1
					c0.1,0.1,0.1,0.1,0.1,0.2c0,0.1,0.1,0.1,0.1,0.2c0,0.1,0.1,0.1,0.1,0.2c0,0.1,0,0.2,0.1,0.2L139,55.9z M136.7,53.9h1.1
					c0.2,0,0.3,0,0.4,0c0.1,0,0.2-0.1,0.3-0.1c0.1-0.1,0.1-0.1,0.2-0.3c0-0.1,0.1-0.2,0.1-0.4c0-0.3-0.1-0.5-0.2-0.6
					c-0.1-0.1-0.3-0.2-0.6-0.2h-1.2V53.9z"/>
				<path class="st0" d="M139.2,56.1h-0.6l-0.3-1.1c0-0.1-0.1-0.2-0.1-0.3c0-0.1-0.1-0.1-0.1-0.2c0-0.1-0.1-0.1-0.1-0.1
					c0,0-0.1,0-0.2,0h-1v1.7h-0.5v-4.1h1.6c0.1,0,0.3,0,0.4,0c0.1,0,0.3,0.1,0.4,0.2c0.1,0.1,0.2,0.2,0.3,0.4
					c0.1,0.2,0.1,0.3,0.1,0.6c0,0.1,0,0.3,0,0.4c0,0.1-0.1,0.2-0.1,0.3c-0.1,0.1-0.1,0.2-0.2,0.3c0,0-0.1,0.1-0.1,0.1c0,0,0,0,0,0
					c0,0.1,0.1,0.1,0.1,0.2c0,0.1,0.1,0.1,0.1,0.2L139.2,56.1z M138,54.1C138,54.1,138,54.1,138,54.1L138,54.1
					C138,54.1,138,54.1,138,54.1 M136.8,53.8h1c0.1,0,0.3,0,0.4,0c0.1,0,0.2-0.1,0.2-0.1c0.1,0,0.1-0.1,0.1-0.2c0-0.1,0-0.2,0-0.3
					c0-0.2-0.1-0.4-0.2-0.4c-0.1-0.1-0.3-0.1-0.5-0.1h-1V53.8z"/>
				<path class="st0" d="M140.1,55.9h-0.2v-2.7h0.2V55.9z M140.1,52.5h-0.2v-0.4h0.2V52.5z"/>
				<path class="st0" d="M140.2,56.1h-0.5v-3h0.5V56.1z M140.2,52.7h-0.5v-0.7h0.5V52.7z"/>
				<path class="st0" d="M142.9,55.8c0,0.2,0,0.4-0.1,0.6c0,0.2-0.1,0.3-0.2,0.4c-0.1,0.1-0.2,0.2-0.3,0.2c-0.1,0-0.3,0.1-0.4,0.1
					c-0.1,0-0.3,0-0.4-0.1c-0.1,0-0.2-0.1-0.3-0.1c-0.1-0.1-0.1-0.1-0.2-0.2c0-0.1-0.1-0.2-0.1-0.3h0.2c0,0.2,0.1,0.3,0.2,0.4
					c0.1,0.1,0.3,0.1,0.5,0.1c0.1,0,0.2,0,0.3-0.1c0.1,0,0.2-0.1,0.2-0.2c0.1-0.1,0.1-0.2,0.1-0.3c0-0.1,0-0.3,0-0.5v-0.2
					c-0.1,0.1-0.2,0.2-0.2,0.3c-0.1,0.1-0.1,0.1-0.2,0.1c-0.1,0-0.1,0.1-0.2,0.1c-0.1,0-0.1,0-0.2,0c-0.2,0-0.3,0-0.4-0.1
					c-0.1-0.1-0.2-0.2-0.3-0.3c-0.1-0.1-0.1-0.3-0.2-0.4c0-0.2-0.1-0.4-0.1-0.6c0-0.2,0-0.4,0.1-0.6s0.1-0.3,0.2-0.5
					c0.1-0.1,0.2-0.2,0.3-0.3s0.2-0.1,0.4-0.1c0.1,0,0.1,0,0.2,0c0.1,0,0.1,0,0.2,0.1c0.1,0,0.1,0.1,0.2,0.1c0.1,0,0.1,0.1,0.2,0.2
					v-0.3h0.2V55.8z M142.6,53.8c-0.1-0.1-0.2-0.2-0.4-0.3c-0.1-0.1-0.3-0.1-0.4-0.1c-0.1,0-0.2,0-0.3,0.1c-0.1,0-0.2,0.1-0.2,0.2
					c-0.1,0.1-0.1,0.2-0.1,0.4c0,0.1-0.1,0.3-0.1,0.5c0,0.4,0.1,0.6,0.2,0.8c0.1,0.2,0.3,0.3,0.5,0.3c0.2,0,0.3,0,0.4-0.1
					c0.1-0.1,0.2-0.2,0.4-0.4V53.8z"/>
				<path class="st0" d="M141.9,57.1c-0.2,0-0.3,0-0.4-0.1c-0.1,0-0.2-0.1-0.3-0.2c-0.1-0.1-0.2-0.2-0.2-0.3
					c-0.1-0.1-0.1-0.2-0.1-0.4l0-0.2h0.5l0,0.1c0,0.2,0.1,0.2,0.1,0.2c0.1,0.1,0.2,0.1,0.4,0.1c0.1,0,0.2,0,0.3,0
					c0.1,0,0.1-0.1,0.2-0.1c0-0.1,0.1-0.1,0.1-0.2c0-0.1,0-0.1,0-0.2c-0.1,0.1-0.1,0.1-0.2,0.1c-0.1,0-0.2,0.1-0.2,0.1
					c-0.3,0-0.5,0-0.7-0.1c-0.1-0.1-0.3-0.2-0.3-0.3c-0.1-0.1-0.2-0.3-0.2-0.5c0-0.2-0.1-0.4-0.1-0.6c0-0.2,0-0.5,0.1-0.6
					c0.1-0.2,0.1-0.4,0.2-0.5c0.1-0.1,0.2-0.3,0.4-0.3c0.2-0.1,0.4-0.1,0.7-0.1c0.1,0,0.1,0,0.2,0.1c0.1,0,0.1,0.1,0.2,0.1v-0.1h0.5
					v2.7c0,0.2,0,0.4-0.1,0.6c0,0.2-0.1,0.3-0.2,0.4c-0.1,0.1-0.2,0.2-0.4,0.3C142.2,57.1,142.1,57.1,141.9,57.1 M141.9,53.6
					c-0.1,0-0.2,0-0.2,0.1c-0.1,0-0.1,0.1-0.2,0.2c-0.1,0.1-0.1,0.2-0.1,0.3c0,0.1,0,0.3,0,0.5c0,0.3,0.1,0.6,0.2,0.8
					c0.1,0.2,0.2,0.2,0.4,0.2c0.1,0,0.2,0,0.3-0.1c0.1-0.1,0.2-0.2,0.3-0.3v-1.2c-0.1-0.1-0.2-0.2-0.3-0.2
					C142.1,53.6,142,53.6,141.9,53.6"/>
				<path class="st0" d="M143.9,53.6c0.1-0.1,0.2-0.2,0.2-0.2c0.1-0.1,0.2-0.1,0.2-0.1c0.1,0,0.1-0.1,0.2-0.1c0.1,0,0.1,0,0.2,0
					c0.5,0,0.7,0.3,0.7,1v1.8h-0.2v-1.8c0-0.1,0-0.2,0-0.3c0-0.1-0.1-0.2-0.1-0.2c0-0.1-0.1-0.1-0.2-0.1c-0.1,0-0.2,0-0.3,0
					c-0.1,0-0.3,0-0.4,0.1c-0.1,0.1-0.3,0.2-0.4,0.4v2h-0.2v-3.8h0.2V53.6z"/>
				<path class="st0" d="M145.7,56.1h-0.5v-1.9c0-0.1,0-0.2,0-0.3c0-0.1,0-0.1-0.1-0.2c0,0-0.1-0.1-0.1-0.1c-0.1,0-0.3-0.1-0.5,0.1
					c-0.1,0.1-0.2,0.2-0.3,0.3v2.1h-0.5v-4.1h0.5v1.3c0.1-0.1,0.2-0.1,0.2-0.2c0.1,0,0.2-0.1,0.2-0.1c0.1,0,0.1,0,0.2,0
					c0.4,0,0.9,0.2,0.9,1.1V56.1z"/>
				<path class="st0" d="M147.1,55.9c0,0-0.1,0-0.1,0c0,0-0.1,0-0.1,0c-0.1,0-0.2,0-0.3-0.1c-0.1,0-0.1-0.1-0.1-0.2
					c0-0.1-0.1-0.2-0.1-0.3c0-0.1,0-0.2,0-0.4v-1.7h-0.3v-0.3h0.3v-0.7h0.2v0.7h0.4v0.3h-0.4v1.7c0,0.1,0,0.2,0,0.3
					c0,0.1,0,0.1,0.1,0.2c0,0,0.1,0.1,0.1,0.1c0,0,0.1,0,0.1,0h0.1c0,0,0,0,0.1,0V55.9z"/>
				<path class="st0" d="M146.9,56.1c-0.1,0-0.2,0-0.3-0.1c-0.1,0-0.2-0.1-0.2-0.2c0-0.1-0.1-0.2-0.1-0.3c0-0.1,0-0.2,0-0.4v-1.5
					h-0.3v-0.6h0.3v-0.7h0.5v0.7h0.4v0.6h-0.4v1.5c0,0.1,0,0.2,0,0.2c0,0.1,0,0.1,0,0.1c0.1,0,0.1,0,0.1,0h0.1c0,0,0,0,0,0l0.2,0
					v0.6l-0.1,0c0,0-0.1,0-0.1,0C147,56.1,146.9,56.1,146.9,56.1 M146.6,55.7C146.6,55.7,146.6,55.7,146.6,55.7
					c0,0.1,0.1,0.1,0.1,0.1c0,0,0.1,0,0.1,0C146.7,55.8,146.7,55.7,146.6,55.7C146.6,55.7,146.6,55.7,146.6,55.7"/>
				<path class="st0" d="M152.8,54.8c0,0.3-0.1,0.6-0.3,0.8c-0.2,0.2-0.5,0.3-0.9,0.3h-1.2v-3.8h1.2c0.3,0,0.6,0.1,0.7,0.2
					c0.2,0.1,0.3,0.4,0.3,0.7c0,0.1,0,0.2,0,0.3c0,0.1,0,0.2-0.1,0.3c0,0.1-0.1,0.2-0.2,0.2c-0.1,0.1-0.2,0.1-0.3,0.1
					c0.2,0,0.3,0.1,0.4,0.1c0.1,0.1,0.2,0.1,0.2,0.2c0.1,0.1,0.1,0.2,0.1,0.3C152.8,54.6,152.8,54.7,152.8,54.8 M150.7,53.8h0.9
					c0.3,0,0.5-0.1,0.6-0.2c0.1-0.1,0.2-0.3,0.2-0.6c0-0.2-0.1-0.4-0.2-0.5c-0.1-0.1-0.3-0.2-0.6-0.2l-0.9,0V53.8z M150.7,55.6h0.9
					c0.6,0,0.9-0.3,0.9-0.8c0-0.1,0-0.3,0-0.4c0-0.1-0.1-0.2-0.2-0.2c-0.1-0.1-0.2-0.1-0.3-0.1c-0.1,0-0.3,0-0.5,0h-0.9V55.6z"/>
				<path class="st0" d="M151.7,56.1h-1.3v-4.1h1.3c0.4,0,0.6,0.1,0.8,0.3c0.2,0.2,0.3,0.4,0.3,0.8c0,0.1,0,0.2,0,0.3
					c0,0.1,0,0.2-0.1,0.3c0,0.1-0.1,0.2-0.2,0.2c0,0,0,0,0.1,0c0.1,0.1,0.2,0.2,0.3,0.3c0.1,0.1,0.1,0.2,0.1,0.3c0,0.1,0,0.2,0,0.3
					c0,0.4-0.1,0.7-0.3,0.9C152.4,56,152.1,56.1,151.7,56.1 M150.9,55.5h0.8c0.7,0,0.8-0.3,0.8-0.6c0-0.1,0-0.2,0-0.3
					c0-0.1-0.1-0.1-0.1-0.2c-0.1-0.1-0.1-0.1-0.2-0.1c-0.1,0-0.3,0-0.4,0h-0.7V55.5z M150.9,53.6h0.7c0.3,0,0.4,0,0.5-0.1
					c0.1-0.1,0.1-0.2,0.1-0.4c0-0.2,0-0.3-0.1-0.4c-0.1-0.1-0.3-0.1-0.5-0.1l-0.8,0V53.6z"/>
				<path class="st0" d="M154.5,56c-0.2,0-0.3,0-0.5-0.1c-0.1-0.1-0.3-0.2-0.4-0.3c-0.1-0.1-0.2-0.3-0.2-0.4
					c-0.1-0.2-0.1-0.4-0.1-0.6c0-0.2,0-0.4,0.1-0.6c0.1-0.2,0.1-0.3,0.2-0.4c0.1-0.1,0.2-0.2,0.3-0.3c0.1-0.1,0.3-0.1,0.4-0.1
					c0.2,0,0.3,0,0.4,0.1c0.1,0.1,0.2,0.2,0.3,0.3c0.1,0.1,0.2,0.3,0.2,0.4c0.1,0.2,0.1,0.4,0.1,0.6v0.1h-1.9c0,0.2,0,0.3,0.1,0.5
					c0,0.1,0.1,0.2,0.2,0.3c0.1,0.1,0.2,0.2,0.3,0.2c0.1,0,0.2,0.1,0.3,0.1c0.1,0,0.2,0,0.2,0c0.1,0,0.2-0.1,0.2-0.1
					c0.1,0,0.1-0.1,0.2-0.2c0-0.1,0.1-0.1,0.1-0.2h0.2c0,0.1-0.1,0.2-0.1,0.3c-0.1,0.1-0.1,0.2-0.2,0.3c-0.1,0.1-0.2,0.1-0.3,0.2
					C154.8,56,154.7,56,154.5,56 M155.3,54.3c0-0.3-0.1-0.5-0.3-0.7c-0.1-0.2-0.3-0.2-0.5-0.2c-0.1,0-0.2,0-0.3,0.1
					c-0.1,0-0.2,0.1-0.2,0.2c-0.1,0.1-0.1,0.2-0.2,0.3c0,0.1-0.1,0.3-0.1,0.4H155.3z"/>
				<path class="st0" d="M154.5,56.1c-0.2,0-0.4,0-0.5-0.1c-0.2-0.1-0.3-0.2-0.4-0.3c-0.1-0.1-0.2-0.3-0.3-0.5
					c-0.1-0.2-0.1-0.4-0.1-0.6c0-0.2,0-0.4,0.1-0.6c0.1-0.2,0.1-0.4,0.2-0.5c0.1-0.1,0.2-0.2,0.4-0.3c0.3-0.2,0.7-0.1,1,0
					c0.2,0.1,0.3,0.2,0.4,0.3c0.1,0.1,0.2,0.3,0.2,0.5c0.1,0.2,0.1,0.4,0.1,0.6v0.2h-1.9c0,0.1,0,0.2,0.1,0.3c0,0.1,0.1,0.2,0.2,0.3
					c0.1,0.1,0.1,0.1,0.2,0.2c0.1,0.1,0.3,0.1,0.5,0c0.1,0,0.1,0,0.2-0.1c0.1,0,0.1-0.1,0.1-0.1c0,0,0-0.1,0.1-0.2l0-0.1h0.6l0,0.2
					c0,0.1-0.1,0.3-0.1,0.4c-0.1,0.1-0.2,0.2-0.3,0.3c-0.1,0.1-0.2,0.1-0.3,0.2C154.8,56.1,154.7,56.1,154.5,56.1 M153.8,54.2h1.3
					c0-0.2-0.1-0.3-0.2-0.4c-0.1-0.1-0.3-0.2-0.4-0.2c-0.1,0-0.2,0-0.2,0c-0.1,0-0.1,0.1-0.2,0.1c-0.1,0.1-0.1,0.1-0.2,0.2
					C153.9,54.1,153.9,54.1,153.8,54.2"/>
				<path class="st0" d="M157.1,56c-0.6,0-0.9-0.3-1-0.8h0.3c0,0.2,0.1,0.3,0.2,0.4c0.1,0.1,0.3,0.1,0.5,0.1c0.1,0,0.2,0,0.3,0
					c0.1,0,0.2-0.1,0.2-0.1c0.1,0,0.1-0.1,0.1-0.2c0-0.1,0-0.1,0-0.2c0-0.1,0-0.1,0-0.2c0-0.1-0.1-0.1-0.1-0.1
					c-0.1,0-0.1-0.1-0.2-0.1c-0.1,0-0.2-0.1-0.4-0.1c-0.1,0-0.2-0.1-0.3-0.1c-0.1,0-0.2-0.1-0.3-0.1c-0.1-0.1-0.1-0.1-0.2-0.2
					c0-0.1-0.1-0.2-0.1-0.3c0-0.1,0-0.2,0.1-0.3c0-0.1,0.1-0.2,0.2-0.2c0.1-0.1,0.2-0.1,0.3-0.1c0.1,0,0.2,0,0.3,0
					c0.3,0,0.5,0.1,0.7,0.2c0.1,0.1,0.2,0.3,0.2,0.5h-0.3c0-0.1-0.1-0.2-0.2-0.3c-0.1-0.1-0.2-0.1-0.4-0.1c-0.1,0-0.2,0-0.3,0
					c-0.1,0-0.1,0-0.2,0.1c-0.1,0-0.1,0.1-0.1,0.1c0,0.1,0,0.1,0,0.2c0,0,0,0.1,0,0.1c0,0,0,0.1,0.1,0.1c0.1,0,0.1,0.1,0.2,0.1
					c0.1,0,0.2,0.1,0.4,0.1c0.1,0,0.3,0.1,0.4,0.1c0.1,0,0.2,0.1,0.3,0.2c0.1,0.1,0.1,0.1,0.2,0.2c0,0.1,0.1,0.2,0.1,0.3
					c0,0.1,0,0.2-0.1,0.3c0,0.1-0.1,0.2-0.2,0.3c-0.1,0.1-0.2,0.1-0.3,0.2C157.4,56,157.3,56,157.1,56"/>
				<path class="st0" d="M157.1,56.1c-0.8,0-1.1-0.5-1.1-0.9l0-0.2h0.6l0,0.1c0,0.1,0.1,0.2,0.1,0.3c0.1,0.1,0.2,0.1,0.4,0.1
					c0.1,0,0.2,0,0.2,0c0.1,0,0.1,0,0.2-0.1c0,0,0.1-0.1,0.1-0.1c0,0,0-0.1,0-0.1c0-0.1,0-0.1,0-0.1c0,0,0-0.1-0.1-0.1
					c0,0-0.1-0.1-0.2-0.1c-0.1,0-0.2-0.1-0.4-0.1c-0.1,0-0.3-0.1-0.4-0.1c-0.1,0-0.2-0.1-0.3-0.2c-0.1-0.1-0.2-0.2-0.2-0.3
					c0-0.1-0.1-0.2-0.1-0.4c0-0.1,0-0.2,0.1-0.4c0-0.1,0.1-0.2,0.2-0.3c0.1-0.1,0.2-0.1,0.3-0.2c0.1,0,0.3-0.1,0.4-0.1
					c0.3,0,0.6,0.1,0.7,0.2c0.2,0.1,0.3,0.3,0.3,0.6l0,0.2h-0.5l0-0.1c0-0.1-0.1-0.2-0.1-0.2c-0.1,0-0.2-0.1-0.4-0.1
					c-0.1,0-0.2,0-0.2,0c-0.1,0-0.1,0-0.2,0.1c0,0-0.1,0.1-0.1,0.1c0,0,0,0.1,0,0.1c0,0,0,0.1,0,0.1c0,0,0,0,0,0.1
					c0,0,0.1,0.1,0.2,0.1c0.1,0,0.2,0.1,0.4,0.1c0.1,0,0.3,0.1,0.4,0.1c0.1,0,0.2,0.1,0.3,0.2c0.1,0.1,0.1,0.2,0.2,0.3
					c0,0.1,0.1,0.2,0.1,0.3c0,0.1,0,0.3-0.1,0.4c-0.1,0.1-0.1,0.2-0.2,0.3c-0.1,0.1-0.2,0.2-0.3,0.2
					C157.4,56.1,157.3,56.1,157.1,56.1 M156.5,54.3c0.1,0,0.1,0.1,0.2,0.1c0,0,0,0,0,0C156.7,54.3,156.6,54.3,156.5,54.3"/>
				<path class="st0" d="M159,55.9h-0.2v-2.7h0.2V55.9z M159,52.5h-0.2v-0.4h0.2V52.5z"/>
				<path class="st0" d="M159.2,56.1h-0.5v-3h0.5V56.1z M159.2,52.7h-0.5v-0.7h0.5V52.7z"/>
				<path class="st0" d="M161.4,55.5c-0.1,0.1-0.1,0.2-0.2,0.2c-0.1,0.1-0.1,0.1-0.2,0.1c-0.1,0-0.1,0.1-0.2,0.1c-0.1,0-0.1,0-0.2,0
					c-0.2,0-0.3,0-0.4-0.1c-0.1-0.1-0.2-0.2-0.3-0.3c-0.1-0.1-0.1-0.3-0.2-0.4s-0.1-0.4-0.1-0.6c0-0.2,0-0.4,0.1-0.6
					c0-0.2,0.1-0.3,0.2-0.5c0.1-0.1,0.2-0.2,0.3-0.3c0.1-0.1,0.2-0.1,0.4-0.1c0.1,0,0.1,0,0.2,0c0.1,0,0.1,0,0.2,0
					c0.1,0,0.1,0.1,0.2,0.1c0.1,0,0.1,0.1,0.2,0.2v-1.4h0.2v3.8h-0.2V55.5z M161.4,53.8c-0.1-0.1-0.2-0.2-0.4-0.3
					c-0.1-0.1-0.3-0.1-0.4-0.1c-0.1,0-0.2,0-0.3,0.1c-0.1,0-0.2,0.1-0.2,0.2c-0.1,0.1-0.1,0.2-0.1,0.4c0,0.1-0.1,0.3-0.1,0.5
					c0,0.4,0.1,0.6,0.2,0.8c0.1,0.2,0.3,0.3,0.5,0.3c0.2,0,0.3,0,0.4-0.1c0.1-0.1,0.2-0.2,0.4-0.4V53.8z"/>
				<path class="st0" d="M160.6,56.1c-0.2,0-0.3,0-0.5-0.1c-0.1-0.1-0.3-0.2-0.3-0.3c-0.1-0.1-0.2-0.3-0.2-0.5
					c0-0.2-0.1-0.4-0.1-0.6c0-0.2,0-0.5,0.1-0.6c0.1-0.2,0.1-0.4,0.2-0.5c0.1-0.1,0.2-0.3,0.4-0.3c0.2-0.1,0.4-0.1,0.6-0.1
					c0.1,0,0.1,0,0.2,0.1c0.1,0,0.1,0.1,0.2,0.1v-1.2h0.5v4.1h-0.5v-0.2c-0.1,0.1-0.1,0.1-0.2,0.1c-0.1,0-0.2,0.1-0.2,0.1
					C160.7,56.1,160.7,56.1,160.6,56.1 M160.6,53.6c-0.1,0-0.2,0-0.2,0.1c-0.1,0-0.1,0.1-0.2,0.2c-0.1,0.1-0.1,0.2-0.1,0.3
					c0,0.1,0,0.3,0,0.5c0,0.3,0.1,0.6,0.2,0.8c0.1,0.2,0.2,0.2,0.4,0.2c0.1,0,0.2,0,0.3-0.1c0.1-0.1,0.2-0.2,0.3-0.3v-1.2
					c-0.1-0.1-0.2-0.2-0.3-0.2C160.9,53.6,160.8,53.6,160.6,53.6"/>
				<path class="st0" d="M163.4,56c-0.2,0-0.3,0-0.5-0.1c-0.1-0.1-0.3-0.2-0.4-0.3c-0.1-0.1-0.2-0.3-0.2-0.4
					c-0.1-0.2-0.1-0.4-0.1-0.6c0-0.2,0-0.4,0.1-0.6c0.1-0.2,0.1-0.3,0.2-0.4c0.1-0.1,0.2-0.2,0.3-0.3c0.1-0.1,0.3-0.1,0.4-0.1
					c0.2,0,0.3,0,0.4,0.1c0.1,0.1,0.2,0.2,0.3,0.3c0.1,0.1,0.2,0.3,0.2,0.4c0.1,0.2,0.1,0.4,0.1,0.6v0.1h-1.9c0,0.2,0,0.3,0.1,0.5
					c0,0.1,0.1,0.2,0.2,0.3c0.1,0.1,0.2,0.2,0.3,0.2c0.1,0,0.2,0.1,0.3,0.1c0.1,0,0.2,0,0.2,0c0.1,0,0.2-0.1,0.2-0.1
					c0.1,0,0.1-0.1,0.2-0.2c0-0.1,0.1-0.1,0.1-0.2h0.2c0,0.1-0.1,0.2-0.1,0.3c-0.1,0.1-0.1,0.2-0.2,0.3c-0.1,0.1-0.2,0.1-0.3,0.2
					C163.7,56,163.6,56,163.4,56 M164.2,54.3c0-0.3-0.1-0.5-0.3-0.7c-0.1-0.2-0.3-0.2-0.5-0.2c-0.1,0-0.2,0-0.3,0.1
					c-0.1,0-0.2,0.1-0.2,0.2c-0.1,0.1-0.1,0.2-0.2,0.3c0,0.1-0.1,0.3-0.1,0.4H164.2z"/>
				<path class="st0" d="M163.4,56.1c-0.2,0-0.4,0-0.5-0.1c-0.2-0.1-0.3-0.2-0.4-0.3c-0.1-0.1-0.2-0.3-0.3-0.5
					c-0.1-0.2-0.1-0.4-0.1-0.6c0-0.2,0-0.4,0.1-0.6c0.1-0.2,0.1-0.4,0.2-0.5c0.1-0.1,0.2-0.2,0.4-0.3c0.3-0.2,0.7-0.1,1,0
					c0.2,0.1,0.3,0.2,0.4,0.3c0.1,0.1,0.2,0.3,0.2,0.5c0.1,0.2,0.1,0.4,0.1,0.6v0.2h-1.9c0,0.1,0,0.2,0.1,0.3c0,0.1,0.1,0.2,0.2,0.3
					c0.1,0.1,0.1,0.1,0.2,0.2c0.1,0.1,0.3,0.1,0.5,0c0.1,0,0.1,0,0.2-0.1c0.1,0,0.1-0.1,0.1-0.1c0,0,0-0.1,0.1-0.2l0-0.1h0.6l0,0.2
					c0,0.1-0.1,0.3-0.1,0.4c-0.1,0.1-0.2,0.2-0.3,0.3c-0.1,0.1-0.2,0.1-0.3,0.2C163.7,56.1,163.6,56.1,163.4,56.1 M162.7,54.2h1.3
					c0-0.2-0.1-0.3-0.2-0.4c-0.2-0.2-0.5-0.2-0.7-0.1c-0.1,0-0.1,0.1-0.2,0.1c-0.1,0.1-0.1,0.1-0.2,0.2
					C162.8,54.1,162.8,54.1,162.7,54.2"/>
				<polygon class="st0" points="170.6,52.1 169.3,54.3 169.3,55.9 169,55.9 169,54.3 167.7,52.1 168,52.1 169.1,54 170.3,52.1 				
					"/>
				<polygon class="st0" points="169.4,56.1 168.9,56.1 168.9,54.3 167.4,51.9 168,51.9 169.1,53.7 170.2,51.9 170.9,51.9 
					169.4,54.3 				"/>
				<path class="st0" d="M172.1,53.1c0.2,0,0.3,0,0.4,0.1c0.1,0.1,0.2,0.2,0.3,0.3c0.1,0.1,0.2,0.3,0.2,0.4c0.1,0.2,0.1,0.4,0.1,0.6
					c0,0.2,0,0.4-0.1,0.6c-0.1,0.2-0.1,0.3-0.2,0.4c-0.1,0.1-0.2,0.2-0.3,0.3c-0.1,0.1-0.3,0.1-0.4,0.1s-0.3,0-0.4-0.1
					c-0.1-0.1-0.2-0.2-0.3-0.3c-0.1-0.1-0.2-0.3-0.2-0.4c-0.1-0.2-0.1-0.4-0.1-0.6c0-0.2,0-0.4,0.1-0.6c0.1-0.2,0.1-0.3,0.2-0.4
					c0.1-0.1,0.2-0.2,0.3-0.3C171.8,53.2,171.9,53.1,172.1,53.1 M172.1,55.7c0.1,0,0.2,0,0.3-0.1c0.1,0,0.2-0.1,0.3-0.2
					c0.1-0.1,0.1-0.2,0.2-0.4c0-0.1,0.1-0.3,0.1-0.5c0-0.2,0-0.4-0.1-0.5c0-0.1-0.1-0.3-0.2-0.4c-0.1-0.1-0.2-0.2-0.3-0.2
					c-0.1,0-0.2-0.1-0.3-0.1c-0.1,0-0.2,0-0.3,0.1c-0.1,0-0.2,0.1-0.3,0.2c-0.1,0.1-0.1,0.2-0.2,0.4c0,0.1-0.1,0.3-0.1,0.5
					c0,0.2,0,0.4,0.1,0.5c0,0.1,0.1,0.3,0.2,0.4c0.1,0.1,0.2,0.2,0.3,0.2C171.8,55.7,172,55.7,172.1,55.7"/>
				<path class="st0" d="M172.1,56.1c-0.2,0-0.4,0-0.5-0.1c-0.2-0.1-0.3-0.2-0.4-0.3c-0.1-0.1-0.2-0.3-0.2-0.5
					c-0.1-0.2-0.1-0.4-0.1-0.6c0-0.2,0-0.5,0.1-0.6c0.1-0.2,0.1-0.4,0.2-0.5c0.1-0.1,0.2-0.2,0.4-0.3c0.3-0.1,0.7-0.1,1,0
					c0.2,0.1,0.3,0.2,0.4,0.3c0.1,0.1,0.2,0.3,0.2,0.5c0.1,0.2,0.1,0.4,0.1,0.6c0,0.2,0,0.5-0.1,0.6c-0.1,0.2-0.1,0.4-0.2,0.5
					c-0.1,0.1-0.2,0.3-0.4,0.3C172.4,56.1,172.3,56.1,172.1,56.1 M172.1,53.6c-0.1,0-0.2,0-0.3,0.1c-0.1,0-0.1,0.1-0.2,0.2
					c-0.1,0.1-0.1,0.2-0.1,0.3c0,0.1-0.1,0.3-0.1,0.5c0,0.2,0,0.3,0.1,0.5c0,0.1,0.1,0.2,0.1,0.3c0.1,0.1,0.1,0.1,0.2,0.2
					c0.2,0.1,0.4,0.1,0.5,0c0.1,0,0.1-0.1,0.2-0.2c0.1-0.1,0.1-0.2,0.1-0.3c0-0.1,0.1-0.3,0.1-0.5c0-0.2,0-0.3-0.1-0.5
					c0-0.1-0.1-0.2-0.1-0.3c-0.1-0.1-0.1-0.1-0.2-0.2C172.3,53.6,172.2,53.6,172.1,53.6"/>
				<path class="st0" d="M175.4,55.6c-0.1,0.1-0.1,0.2-0.2,0.2c-0.1,0.1-0.2,0.1-0.2,0.1c-0.1,0-0.2,0.1-0.2,0.1c-0.1,0-0.1,0-0.2,0
					c-0.5,0-0.7-0.3-0.7-1v-1.8h0.2V55c0,0.3,0,0.4,0.1,0.6c0.1,0.1,0.2,0.2,0.4,0.2c0.2,0,0.3,0,0.4-0.1c0.1-0.1,0.3-0.2,0.4-0.4
					v-2h0.2v2.7h-0.2V55.6z"/>
				<path class="st0" d="M174.5,56.1c-0.4,0-0.9-0.2-0.9-1.1v-1.9h0.5V55c0,0.3,0.1,0.4,0.1,0.5c0.1,0.1,0.4,0.2,0.7,0
					c0.1-0.1,0.2-0.2,0.3-0.3v-2.1h0.5v3h-0.5v-0.2c-0.1,0.1-0.2,0.1-0.2,0.1c-0.1,0-0.2,0.1-0.3,0.1
					C174.7,56.1,174.6,56.1,174.5,56.1"/>
				<rect x="179.4" y="55.4" class="st0" width="0.5" height="0.5"/>
				<path class="st0" d="M179.9,56h-0.6v-0.6h0.6V56z M179.4,55.9h0.4v-0.4h-0.4V55.9z"/>
				<rect x="181.2" y="55.4" class="st0" width="0.5" height="0.5"/>
				<path class="st0" d="M181.7,56h-0.6v-0.6h0.6V56z M181.2,55.9h0.4v-0.4h-0.4V55.9z"/>
				<rect x="183" y="55.4" class="st0" width="0.5" height="0.5"/>
				<path class="st0" d="M183.5,56H183v-0.6h0.6V56z M183,55.9h0.4v-0.4H183V55.9z"/>
				<path class="st0" d="M212.5,50.1c-0.5,0.2-1,0.4-1.5,0.5l0,0l0.1-0.3c0.6-0.2,1.2-0.4,1.6-0.6l0,0L212.5,50.1z M212.5,50.7
					c-0.5,0.2-1,0.4-1.5,0.5l0,0l0.1-0.3c0.6-0.2,1.2-0.4,1.6-0.6l0,0L212.5,50.7z"/>
			</g>
			<path class="st0" d="M224.4,29.1h-1.8c-0.3,0.8-0.8,1.5-1.3,2c-0.6,0.6-1.2,1.1-1.9,1.4c-0.7,0.4-1.5,0.7-2.3,0.9
				c-0.8,0.2-1.7,0.3-2.5,0.3c-1.3,0-2.4-0.3-3.3-0.6c-0.9-0.4-1.5-0.9-2-1.5c-0.5-0.6-0.8-1.3-0.9-2c-0.1-0.8-0.1-1.5,0.1-2.3
				c0.2-0.8,0.4-1.5,0.8-2.2c0.4-0.7,0.9-1.4,1.4-1.9l1,0.9c-0.5,0.6-0.9,1.3-1.2,2.1c-0.3,0.8-0.3,1.6-0.1,2.3
				c0.2,0.7,0.6,1.4,1.2,2c0.6,0.6,1.6,0.9,2.8,1c1.2,0,2.4-0.2,3.6-0.7c1.2-0.4,2.1-1.1,2.8-2c-0.2-0.1-0.5-0.2-0.8-0.3
				c-0.3-0.1-0.6-0.2-0.9-0.3c-0.3-0.1-0.6-0.3-1-0.5c-0.3-0.2-0.6-0.5-0.8-0.8c-0.2-0.3-0.2-0.6-0.2-1c0-0.4,0.1-0.8,0.1-1.1
				c0.4,0.4,0.8,0.8,1.2,1c0.4,0.3,0.8,0.5,1.2,0.7c0.4,0.2,0.9,0.3,1.5,0.4c0.5,0.1,1.2,0.1,1.9,0.1h1.4V29.1z"/>
			<path class="st0" d="M228.1,29.2h-6.5c-0.4,0-0.7-0.1-0.9-0.3c-0.2-0.2-0.4-0.5-0.4-0.8c0-0.3,0.1-0.6,0.4-0.8
				c0.2-0.2,0.5-0.3,0.9-0.3h6.5V29.2z"/>
			<path class="st0" d="M228,29.2V27h2c0.1-0.4,0.2-0.8,0.3-1.3c0.1-0.5,0.3-1,0.6-1.5c0.3-0.5,0.6-0.9,1-1.2
				c0.4-0.3,0.9-0.5,1.5-0.5c0.6,0,1.2,0.2,1.6,0.5c0.4,0.3,0.7,0.8,1,1.2c0.3,0.5,0.5,1,0.6,1.5c0.1,0.5,0.3,1,0.4,1.4h1.2v2.2H228
				z M235.4,27c0-0.2,0-0.4-0.1-0.7c-0.1-0.3-0.2-0.5-0.4-0.7c-0.2-0.2-0.4-0.4-0.6-0.6c-0.2-0.2-0.5-0.2-0.8-0.2
				c-0.4,0-0.7,0.2-1,0.6c-0.3,0.3-0.6,0.9-0.9,1.7H235.4z"/>
			<path class="st0" d="M244.9,21.3c1.2,2.2,1.7,4.1,1.7,5.7l-0.2,2.2h-8.7V27h7.1c-0.2-0.7-0.5-1.3-0.9-1.9
				c-0.3-0.6-0.7-1.2-1.1-1.7L244.9,21.3z M240.9,30.4l1.2,1.2l-1.3,1.2l-1.2-1.2L240.9,30.4z M243.5,30.5l1.2,1.2l-1.3,1.2
				l-1.2-1.2L243.5,30.5z"/>
			<path class="st0" d="M253.1,29.2c-0.2,1.2-0.5,2.4-1.1,3.4c-0.6,1-1.3,2-2.2,2.9l-2.5-1.9c1.3-0.8,2.2-1.7,2.9-2.6
				c0.6-0.9,1-2,1.2-3.3c-0.1-0.3-0.1-0.7-0.3-1.1c-0.1-0.4-0.3-0.7-0.5-1.1c-0.2-0.4-0.4-0.7-0.6-1c-0.2-0.3-0.4-0.6-0.6-0.9
				l1.7-2.1c0.6,0.9,1,1.8,1.3,2.7c0.3,0.9,0.5,1.8,0.7,2.7h1v2.2H253.1z"/>
			<path class="st0" d="M260.2,22c0.9,0.3,1.7,0.6,2.4,1.1c0.7,0.4,1.3,1,1.8,1.6c0.5,0.6,0.8,1.4,1,2.2h0.7v2.2h-12.3V27h8.8
				c-0.2-0.7-0.6-1.3-1.1-1.7c-0.5-0.4-1.1-0.8-1.8-1c-0.7-0.2-1.4-0.4-2.2-0.5c-0.8-0.1-1.5-0.1-2.2-0.1v-2.1c0-0.5,0.1-1,0.3-1.3
				c0.2-0.3,0.5-0.6,1-1c0.5-0.3,1.2-0.7,2.1-1.2c0.9-0.5,2.1-1.1,3.5-2c0.6-0.4,1.2-0.5,1.5-0.4c0.4,0.1,0.6,0.4,0.6,0.9v1.8
				c-0.1-0.2-0.3-0.3-0.6-0.4c-0.3,0-0.7,0.1-1.2,0.4l-5.3,2.9C258.3,21.6,259.3,21.8,260.2,22"/>
			<polygon class="st0" points="208.4,30.9 208.4,32.7 206.7,32.7 206.6,30.9 			"/>
			<polygon class="st0" points="210.3,32.8 210.3,34.6 208.6,34.5 208.5,32.8 			"/>
		</g>
	</g>
	<g>
		<path class="st0" d="M212.5,43.6h-0.6c-0.1,0.3-0.3,0.6-0.5,0.9s-0.4,0.5-0.7,0.6c-0.3,0.2-0.5,0.3-0.8,0.4
			c-0.3,0.1-0.6,0.1-0.9,0.1c-0.5,0-0.9-0.1-1.2-0.3c-0.3-0.2-0.6-0.4-0.7-0.6c-0.2-0.3-0.3-0.6-0.3-0.9c0-0.3,0-0.7,0-1
			c0.1-0.3,0.2-0.7,0.3-1c0.1-0.3,0.3-0.6,0.5-0.8l0.4,0.4c-0.2,0.3-0.3,0.6-0.4,0.9c-0.1,0.3-0.1,0.7-0.1,1
			c0.1,0.3,0.2,0.6,0.4,0.8c0.2,0.2,0.6,0.4,1,0.4c0.4,0,0.9-0.1,1.3-0.3c0.4-0.2,0.8-0.5,1-0.8c-0.1,0-0.2-0.1-0.3-0.1
			c-0.1,0-0.2-0.1-0.3-0.1c-0.1-0.1-0.2-0.1-0.3-0.2c-0.1-0.1-0.2-0.2-0.3-0.3c-0.1-0.1-0.1-0.3-0.1-0.4s0-0.3,0-0.5
			c0.1,0.2,0.3,0.3,0.4,0.4c0.1,0.1,0.3,0.2,0.4,0.3s0.3,0.1,0.5,0.2c0.2,0,0.4,0,0.7,0h0.5V43.6z M208.9,46.1l0.6,0.6l-0.6,0.6
			l-0.6-0.6L208.9,46.1z M210.2,46.1l0.6,0.6l-0.6,0.6l-0.6-0.6L210.2,46.1z"/>
		<path class="st0" d="M214.6,40.8c0.3,0,0.5,0.1,0.8,0.4c0.2,0.2,0.4,0.5,0.5,0.8s0.2,0.6,0.2,0.9c0,0.3,0,0.6-0.1,0.8h-3.5v-0.9h1
			c0-0.1,0.1-0.3,0.1-0.6s0.1-0.4,0.2-0.6c0.1-0.2,0.2-0.4,0.3-0.5C214.2,40.9,214.3,40.8,214.6,40.8z M215.4,42.7
			c0-0.1,0-0.2-0.1-0.3s-0.1-0.2-0.1-0.3c-0.1-0.1-0.1-0.2-0.2-0.2s-0.2-0.1-0.3-0.1c-0.1,0-0.3,0.1-0.4,0.2s-0.2,0.4-0.3,0.7H215.4
			z"/>
		<path class="st0" d="M220.4,41.4c0,0.1,0,0.2,0,0.4c0,0.1,0,0.3,0,0.4c0,0.1,0.1,0.3,0.1,0.4c0.1,0.1,0.1,0.2,0.2,0.2h0.1v0.9
			h-0.5c-0.1,0-0.3-0.1-0.3-0.2c-0.1-0.1-0.1-0.3-0.1-0.4c-0.3,0.4-0.7,0.6-1.1,0.8s-1,0.2-1.6,0.2l-0.6-0.9c0.3,0,0.6,0,0.9,0
			s0.5,0,0.7-0.1c0-0.3,0-0.6,0-1c-0.1-0.3-0.2-0.7-0.3-1c-0.1-0.3-0.3-0.6-0.4-1s-0.3-0.6-0.4-0.9l0.8-0.7c0.1,0.3,0.2,0.6,0.4,1
			c0.2,0.4,0.3,0.8,0.4,1.1s0.2,0.8,0.2,1.2s0,0.7-0.2,1c0.4-0.1,0.6-0.3,0.7-0.6c0.1-0.3,0.2-0.6,0.2-0.9v-2.5l0.9-0.5V41.4z"/>
		<path class="st0" d="M226.2,41.7c0.1,0.4,0.1,0.7,0.1,1c0,0.1,0,0.3,0,0.4s0,0.3-0.1,0.4h-5.5v-0.9h1.6c0-0.1,0-0.1-0.1-0.2
			s-0.1-0.2-0.1-0.3c0-0.1-0.1-0.2-0.1-0.3c0-0.1-0.1-0.2-0.1-0.2l0.6-0.7c0,0.1,0.1,0.3,0.1,0.4c0,0.1,0.1,0.3,0.1,0.4
			s0.1,0.3,0.1,0.4c0,0.1,0.1,0.3,0.1,0.4h1.1c-0.1-0.2-0.2-0.4-0.3-0.6c-0.1-0.2-0.2-0.4-0.3-0.7l0.6-0.8c0.2,0.4,0.4,0.8,0.4,1.1
			c0.1,0.4,0.1,0.7,0.1,1h1.1c-0.1-0.3-0.2-0.5-0.3-0.7c-0.1-0.2-0.2-0.5-0.4-0.7l0.6-0.8C226,41,226.1,41.4,226.2,41.7z"/>
		<path class="st0" d="M230.8,41.4c0,0.5-0.1,0.9-0.2,1.3c-0.2,0.3-0.4,0.6-0.7,0.8c-0.3,0.2-0.6,0.3-1,0.4s-0.8,0.1-1.3,0.1
			l-0.6-0.9c0.3,0,0.6,0,0.9,0c0.3,0,0.5,0,0.7-0.1c0-0.3,0-0.6,0-1c-0.1-0.3-0.2-0.7-0.3-1c-0.1-0.3-0.3-0.6-0.4-1
			c-0.2-0.3-0.3-0.6-0.4-0.9l0.8-0.7c0.1,0.3,0.2,0.6,0.4,1s0.3,0.8,0.4,1.1c0.1,0.4,0.2,0.8,0.2,1.2c0,0.4,0,0.7-0.2,1
			c0.4-0.1,0.6-0.3,0.7-0.6c0.1-0.3,0.2-0.6,0.2-0.9v-2.5l0.9-0.5V41.4z M227.9,45.7c0.1,0.1,0.2,0.1,0.3,0.2c0.1,0,0.3,0,0.4,0
			c0.1,0,0.3-0.1,0.4-0.1c0.1-0.1,0.2-0.1,0.3-0.2l-0.2,0.7c-0.1,0-0.2,0.1-0.4,0.1s-0.3,0.1-0.4,0.2c-0.1,0.1-0.3,0.2-0.4,0.2
			c-0.1,0.1-0.2,0.2-0.3,0.3l0-0.1c0-0.1,0.1-0.3,0.1-0.4s0.1-0.2,0.2-0.3c-0.1,0-0.3-0.1-0.3-0.2c-0.1-0.1-0.1-0.2-0.1-0.3
			c0-0.2,0-0.4,0.1-0.5c0.1-0.2,0.2-0.3,0.3-0.4c0.1-0.1,0.3-0.2,0.5-0.2s0.4,0,0.5,0l-0.1,0.6c-0.2-0.1-0.4-0.1-0.6,0
			C228.2,45.3,228,45.4,227.9,45.7z"/>
		<path class="st0" d="M232.7,38.1v5l-0.9,0.5v-4.9L232.7,38.1z"/>
		<path class="st0" d="M237.1,43.6c-0.1,0.5-0.2,1-0.4,1.4c-0.2,0.4-0.5,0.8-0.8,1.2l-0.9-0.8c0.5-0.3,0.8-0.7,1.1-1
			c0.2-0.4,0.4-0.8,0.4-1.4c0-0.1-0.1-0.3-0.1-0.4c0-0.2-0.1-0.3-0.2-0.4c-0.1-0.1-0.1-0.3-0.2-0.4s-0.2-0.3-0.2-0.4l0.6-0.9
			c0.2,0.4,0.4,0.7,0.5,1.1c0.1,0.4,0.2,0.7,0.2,1.1h0.4v0.9H237.1z"/>
		<path class="st0" d="M242.1,43.6h-1.6c-0.1,0-0.2,0-0.3-0.1s-0.1-0.1-0.2-0.2c-0.1,0.1-0.1,0.1-0.2,0.2c-0.1,0.1-0.2,0.1-0.3,0.1
			h-2.1v-0.9h2.1c-0.1-0.2-0.2-0.4-0.4-0.6c-0.1-0.2-0.3-0.4-0.4-0.5c-0.2-0.1-0.3-0.3-0.5-0.3c-0.2-0.1-0.4-0.1-0.7-0.1l0.5-0.9
			c0.2,0,0.5-0.1,0.8-0.1c0.3,0,0.7-0.1,1-0.1c0.3,0,0.7,0,1,0.1c0.3,0.1,0.6,0.2,0.8,0.4c0.1,0.2,0.2,0.3,0.2,0.5
			c0,0.2,0,0.3-0.1,0.5c-0.1,0.1-0.1,0.3-0.3,0.4s-0.2,0.3-0.3,0.4l-0.3,0.3h1.3V43.6z M240.1,42.3c0.1,0,0.1-0.1,0.2-0.2
			c0.1-0.1,0.2-0.1,0.2-0.2s0.1-0.2,0.2-0.3c0.1-0.1,0.1-0.2,0.1-0.2c0-0.1-0.1-0.2-0.2-0.3c-0.2,0-0.3-0.1-0.5-0.1s-0.4,0-0.6,0
			c-0.2,0-0.3,0-0.4,0c0.2,0.2,0.4,0.4,0.6,0.6C239.8,41.8,240,42,240.1,42.3z M240.2,38.4l0.6,0.6l-0.6,0.6l-0.6-0.6L240.2,38.4z"
			/>
		<path class="st0" d="M249.4,42.7c0,0.1,0,0.3-0.1,0.4c0,0.1,0,0.3-0.1,0.4H242v-0.9h1.6c-0.1-0.4-0.3-0.8-0.5-1.1l0.7-0.7
			c0.1,0.3,0.2,0.6,0.3,0.9s0.2,0.6,0.2,0.9h0.3c0.1-0.1,0.3-0.3,0.5-0.5c0.2-0.2,0.4-0.4,0.6-0.6c0.2-0.2,0.4-0.4,0.7-0.6
			c0.2-0.2,0.5-0.3,0.7-0.4c0.2-0.1,0.5-0.2,0.7-0.2c0.2,0,0.5,0,0.7,0.1c0.2,0.1,0.3,0.2,0.5,0.4c0.1,0.2,0.2,0.4,0.3,0.6
			c0.1,0.2,0.1,0.4,0.1,0.6C249.5,42.3,249.5,42.5,249.4,42.7z M248.8,42.7c0-0.2,0-0.3-0.1-0.5c0-0.2-0.1-0.3-0.2-0.4
			s-0.2-0.2-0.3-0.3c-0.1-0.1-0.3-0.1-0.5-0.1c-0.2,0-0.4,0-0.6,0.1c-0.2,0.1-0.4,0.2-0.5,0.3s-0.3,0.3-0.5,0.4s-0.3,0.3-0.4,0.4
			H248.8z"/>
		<path class="st0" d="M250.4,37.3c0.1,0.1,0.2,0.1,0.3,0.2c0.1,0,0.3,0,0.4,0c0.1,0,0.3-0.1,0.4-0.1c0.1-0.1,0.2-0.1,0.3-0.2
			l-0.2,0.7c-0.1,0-0.2,0.1-0.4,0.1s-0.3,0.1-0.4,0.2s-0.3,0.2-0.4,0.2c-0.1,0.1-0.2,0.2-0.3,0.3l-0.1-0.1c0-0.1,0.1-0.3,0.1-0.4
			s0.1-0.2,0.2-0.3c-0.1,0-0.3-0.1-0.3-0.2c-0.1-0.1-0.1-0.2-0.1-0.3c0-0.2,0-0.4,0.1-0.5c0.1-0.2,0.2-0.3,0.3-0.4
			c0.1-0.1,0.3-0.2,0.5-0.2c0.2,0,0.3,0,0.5,0l-0.1,0.6c-0.2-0.1-0.4-0.1-0.6,0C250.7,36.9,250.5,37.1,250.4,37.3z M254,41.4
			c0,0.5-0.1,0.9-0.2,1.3c-0.2,0.3-0.4,0.6-0.7,0.8c-0.3,0.2-0.6,0.3-1,0.4s-0.8,0.1-1.3,0.1l-0.6-0.9c0.3,0,0.6,0,0.9,0
			c0.3,0,0.5,0,0.7-0.1c0-0.3,0-0.6,0-1c-0.1-0.3-0.2-0.7-0.3-1c-0.1-0.3-0.3-0.6-0.4-1c-0.2-0.3-0.3-0.6-0.4-0.9l0.8-0.7
			c0.1,0.3,0.2,0.6,0.4,1s0.3,0.8,0.4,1.1c0.1,0.4,0.2,0.8,0.2,1.2c0,0.4,0,0.7-0.2,1c0.4-0.1,0.6-0.3,0.7-0.6
			c0.1-0.3,0.2-0.6,0.2-0.9v-2.5l0.9-0.5V41.4z"/>
		<path class="st0" d="M255.8,38.1v5l-0.9,0.5v-4.9L255.8,38.1z"/>
		<path class="st0" d="M263.9,43.6h-0.5c0,0.3-0.1,0.6-0.2,0.9c-0.1,0.3-0.3,0.5-0.5,0.8c-0.2,0.2-0.5,0.4-0.7,0.5
			c-0.3,0.1-0.6,0.2-0.9,0.2c-0.4,0-0.7-0.1-1-0.2s-0.5-0.3-0.7-0.5s-0.4-0.5-0.5-0.8c-0.1-0.3-0.2-0.6-0.2-0.9
			c0-0.3,0.1-0.6,0.2-0.9c0.1-0.3,0.3-0.6,0.6-0.8l0.3,0.3c-0.2,0.3-0.3,0.5-0.3,0.9s0,0.6,0.1,0.9s0.3,0.5,0.5,0.7s0.5,0.3,0.9,0.3
			c0.5,0,0.8-0.2,1.1-0.5c0.3-0.3,0.4-0.7,0.4-1.3v-4.5l0.9-0.5v4.4h0.5V43.6z"/>
		<path class="st0" d="M266.4,40.4c0.4,0.9,0.6,1.7,0.6,2.3l-0.1,0.9h-3.2v-0.9h2.6c-0.1-0.3-0.2-0.5-0.3-0.8
			c-0.1-0.2-0.3-0.5-0.4-0.7L266.4,40.4z M264.8,44.4l0.6,0.6l-0.6,0.6l-0.6-0.6L264.8,44.4z M266.1,44.4l0.6,0.6l-0.6,0.6l-0.6-0.6
			L266.1,44.4z"/>
		<path class="st0" d="M270.2,43.6c-0.1,0.5-0.2,1-0.4,1.5c-0.2,0.4-0.5,0.9-0.8,1.3l-0.9-0.8c0.4-0.3,0.8-0.6,1-0.9s0.4-0.7,0.5-1
			c-0.1,0-0.3,0-0.4,0c-0.2,0-0.3,0-0.5,0c-0.2,0-0.3,0-0.5-0.1s-0.3-0.1-0.4-0.2c-0.1-0.1-0.2-0.2-0.2-0.2c0-0.1,0-0.2,0-0.3
			c0-0.2,0-0.4,0.1-0.7c0-0.3,0.1-0.6,0.2-0.8c0.1-0.3,0.2-0.5,0.4-0.7s0.4-0.3,0.6-0.3c0.2,0,0.5,0.1,0.6,0.3
			c0.2,0.2,0.3,0.4,0.4,0.6s0.2,0.5,0.2,0.8c0.1,0.3,0.1,0.5,0.1,0.7h0.3v0.9H270.2z M268,42.3c0,0.1,0.1,0.2,0.2,0.2
			c0.1,0.1,0.3,0.1,0.5,0.1c0.2,0,0.3,0,0.5,0c0.2,0,0.3,0,0.3,0c0-0.1,0-0.2,0-0.3c0-0.1,0-0.2-0.1-0.3c-0.1-0.3-0.2-0.5-0.3-0.6
			c-0.2-0.1-0.3-0.2-0.5-0.2s-0.3,0.1-0.4,0.2C268.1,41.8,268,42,268,42.3z"/>
		<path class="st0" d="M270.4,43.6v-0.9h0.7c0-0.1,0.1-0.3,0.1-0.5c0-0.2,0.1-0.4,0.2-0.6c0.1-0.2,0.2-0.4,0.4-0.5
			c0.1-0.1,0.3-0.2,0.5-0.2c0.2,0,0.4,0.1,0.6,0.2s0.3,0.3,0.4,0.5c0.1,0.2,0.2,0.4,0.2,0.6s0.1,0.4,0.1,0.6h0.4v0.9H270.4z
			 M273.1,42.7c0-0.1,0-0.2-0.1-0.3s-0.1-0.2-0.1-0.3c-0.1-0.1-0.1-0.2-0.2-0.2s-0.2-0.1-0.3-0.1c-0.1,0-0.3,0.1-0.4,0.2
			c-0.1,0.1-0.2,0.4-0.3,0.7H273.1z"/>
		<path class="st0" d="M277.6,43.6H274v-0.9h2.6c-0.1-0.2-0.2-0.5-0.3-0.8c-0.1-0.3-0.3-0.5-0.4-0.7l0.7-0.9
			c0.2,0.4,0.4,0.8,0.5,1.3s0.1,0.8,0.1,1.1h0.3V43.6z M275.1,38.7l0.6,0.6l-0.6,0.6l-0.6-0.6L275.1,38.7z M276.6,38.7l0.6,0.6
			l-0.6,0.6l-0.6-0.6L276.6,38.7z"/>
		<path class="st0" d="M280,43.6h-2.5v-0.9h1.2v-3.9l0.9-0.5v4.4h0.5V43.6z"/>
		<path class="st0" d="M281.9,43.6h-2v-0.9h1.2v-3.9l0.9-0.5V43.6z"/>
	</g>
	<g>
		<path class="st0" d="M81.6,39v5.4h-0.9V39H81.6z"/>
		<path class="st0" d="M82.6,43.4c0.3,0.2,0.7,0.3,1.2,0.3c0.6,0,0.9-0.3,0.9-0.7c0-0.4-0.2-0.7-0.9-0.9c-0.8-0.3-1.3-0.8-1.3-1.6
			c0-0.9,0.7-1.6,1.7-1.6c0.5,0,0.9,0.1,1.2,0.3L85.2,40c-0.2-0.1-0.5-0.3-1-0.3c-0.6,0-0.8,0.3-0.8,0.7c0,0.4,0.3,0.6,0.9,0.9
			c0.8,0.4,1.3,0.8,1.3,1.6c0,0.9-0.6,1.6-1.9,1.6c-0.5,0-1.1-0.2-1.3-0.3L82.6,43.4z"/>
		<path class="st0" d="M86.4,39h0.9v4.6h2v0.8h-2.9V39z"/>
		<path class="st0" d="M91,42.9l-0.4,1.5h-0.9l1.6-5.4h1.1l1.6,5.4h-1l-0.4-1.5H91z M92.4,42.2L92,40.8c-0.1-0.3-0.2-0.7-0.2-1h0
			c-0.1,0.3-0.1,0.7-0.2,1l-0.4,1.3H92.4z"/>
		<path class="st0" d="M98.7,42.2c0-0.7-0.1-1.5-0.1-2.3h0c-0.2,0.7-0.4,1.4-0.6,2.1l-0.7,2.4h-0.7L96,42.1
			c-0.2-0.7-0.4-1.4-0.5-2.1h0c0,0.7-0.1,1.6-0.1,2.3l-0.1,2.2h-0.8l0.3-5.4H96l0.6,2.2c0.2,0.6,0.3,1.3,0.5,1.9h0
			c0.1-0.6,0.3-1.3,0.5-1.9l0.7-2.2h1.2l0.3,5.4h-0.9L98.7,42.2z"/>
		<path class="st0" d="M101.5,39v5.4h-0.9V39H101.5z"/>
		<path class="st0" d="M106,44.3c-0.2,0.1-0.7,0.2-1.3,0.2c-1.6,0-2.5-1.1-2.5-2.7c0-1.8,1.1-2.9,2.6-2.9c0.6,0,1,0.1,1.2,0.2
			l-0.2,0.8c-0.2-0.1-0.6-0.2-1-0.2c-1,0-1.7,0.7-1.7,2c0,1.2,0.6,2,1.7,2c0.4,0,0.7-0.1,1-0.2L106,44.3z"/>
		<path class="st0" d="M112.4,42.2c0-0.7-0.1-1.5-0.1-2.3h0c-0.2,0.7-0.4,1.4-0.6,2.1l-0.7,2.4h-0.7l-0.7-2.3
			c-0.2-0.7-0.4-1.4-0.5-2.1h0c0,0.7-0.1,1.6-0.1,2.3l-0.1,2.2h-0.8l0.3-5.4h1.2l0.6,2.2c0.2,0.6,0.3,1.3,0.5,1.9h0
			c0.1-0.6,0.3-1.3,0.5-1.9l0.7-2.2h1.2l0.3,5.4h-0.9L112.4,42.2z"/>
		<path class="st0" d="M115.2,39v5.4h-0.9V39H115.2z"/>
		<path class="st0" d="M119.7,44.3c-0.2,0.1-0.7,0.2-1.3,0.2c-1.6,0-2.5-1.1-2.5-2.7c0-1.8,1.1-2.9,2.6-2.9c0.6,0,1,0.1,1.2,0.2
			l-0.2,0.8c-0.2-0.1-0.6-0.2-1-0.2c-1,0-1.7,0.7-1.7,2c0,1.2,0.6,2,1.7,2c0.4,0,0.7-0.1,1-0.2L119.7,44.3z"/>
		<path class="st0" d="M120.5,39.1c0.3-0.1,0.8-0.1,1.4-0.1c0.7,0,1.2,0.1,1.5,0.4c0.3,0.2,0.4,0.6,0.4,1.1c0,0.7-0.4,1.2-0.9,1.4v0
			c0.3,0.1,0.6,0.5,0.7,1c0.2,0.7,0.3,1.3,0.4,1.5H123c-0.1-0.2-0.2-0.6-0.3-1.3c-0.1-0.7-0.4-0.9-0.9-1h-0.5v2.2h-0.9V39.1z
			 M121.4,41.5h0.5c0.6,0,1-0.4,1-0.9c0-0.6-0.4-0.9-1-0.9c-0.3,0-0.5,0-0.6,0V41.5z"/>
		<path class="st0" d="M129,41.7c0,1.8-1,2.9-2.3,2.9c-1.4,0-2.3-1.2-2.3-2.8c0-1.7,0.9-2.8,2.3-2.8C128.1,38.9,129,40.1,129,41.7z
			 M125.3,41.8c0,1.1,0.5,2,1.4,2c0.9,0,1.4-0.9,1.4-2c0-1-0.5-2-1.4-2C125.8,39.7,125.3,40.6,125.3,41.8z"/>
		<path class="st0" d="M129.7,39h2.8v0.8h-1.9v1.5h1.8v0.8h-1.8v2.3h-0.9V39z"/>
		<path class="st0" d="M134.3,39v5.4h-0.9V39H134.3z"/>
		<path class="st0" d="M135.3,44.4V39h1l1.3,2.3c0.3,0.6,0.6,1.2,0.8,1.8h0c-0.1-0.7-0.1-1.4-0.1-2.3V39h0.8v5.4h-0.9l-1.3-2.4
			c-0.3-0.6-0.6-1.3-0.9-1.9l0,0c0,0.7,0,1.4,0,2.3v1.9H135.3z"/>
		<path class="st0" d="M141.2,42.9l-0.4,1.5h-0.9l1.6-5.4h1.1l1.6,5.4h-1l-0.4-1.5H141.2z M142.6,42.2l-0.4-1.3
			c-0.1-0.3-0.2-0.7-0.2-1h0c-0.1,0.3-0.1,0.7-0.2,1l-0.4,1.3H142.6z"/>
		<path class="st0" d="M144.9,44.4V39h1l1.3,2.3c0.3,0.6,0.6,1.2,0.8,1.8h0c-0.1-0.7-0.1-1.4-0.1-2.3V39h0.8v5.4h-0.9l-1.3-2.4
			c-0.3-0.6-0.6-1.3-0.9-1.9l0,0c0,0.7,0,1.4,0,2.3v1.9H144.9z"/>
		<path class="st0" d="M153.3,44.3c-0.2,0.1-0.7,0.2-1.3,0.2c-1.6,0-2.5-1.1-2.5-2.7c0-1.8,1.1-2.9,2.6-2.9c0.6,0,1,0.1,1.2,0.2
			l-0.2,0.8c-0.2-0.1-0.6-0.2-1-0.2c-1,0-1.7,0.7-1.7,2c0,1.2,0.6,2,1.7,2c0.4,0,0.7-0.1,1-0.2L153.3,44.3z"/>
		<path class="st0" d="M156.8,42h-1.8v1.6h2.1v0.8h-3V39h2.8v0.8h-2v1.4h1.8V42z"/>
	</g>
</g>
</svg>
