<?xml version="1.0" encoding="utf-8"?>
<!-- Generator: Adobe Illustrator 21.0.0, SVG Export Plug-In . SVG Version: 6.00 Build 0)  -->
<svg version="1.1" id="Layer_1" xmlns="http://www.w3.org/2000/svg" xmlns:xlink="http://www.w3.org/1999/xlink" x="0px" y="0px"
	 viewBox="0 0 250 44" style="enable-background:new 0 0 250 44;" width="290px" height="50.218509518023491px"  xml:space="preserve">
<style type="text/css">
	.st0{fill:#9b9b9b;}
</style>
<g>
	<polygon class="st0" points="236.1,13.5 236.9,14.3 236.1,15.1 235.2,14.3 	"/>
	<polygon class="st0" points="241.2,20.1 241.9,20.7 241.2,21.4 240.5,20.7 	"/>
	<polygon class="st0" points="221.1,19.3 217.9,19.3 217.9,18 219.8,18 219.8,12.2 221.1,11.5 	"/>
	<polygon class="st0" points="223.4,11.5 223.4,18.5 222.1,19.3 222.1,12.2 	"/>
	<path class="st0" d="M239.1,19.3h-5.8V18h4.3c-0.2-0.3-0.3-0.7-0.5-1.1c-0.2-0.4-0.4-0.7-0.7-1l1.1-1.2c0.4,0.6,0.6,1.2,0.8,1.8
		c0.2,0.6,0.2,1.1,0.2,1.5h0.5L239.1,19.3L239.1,19.3z"/>
	<path class="st0" d="M242,14.7c0.7,1.3,1,2.4,1,3.3l-0.1,1.3h-5V18h4.1c-0.2-0.4-0.3-0.8-0.5-1.1c-0.2-0.3-0.4-0.7-0.6-1L242,14.7z
		"/>
	<path class="st0" d="M229.6,14.5c0.2,0.2,0.3,0.2,0.5,0.2c0.2,0,0.4,0,0.6-0.1c0.2-0.1,0.4-0.1,0.6-0.2c0.2-0.1,0.3-0.2,0.5-0.2
		l-0.3,0.9c-0.2,0-0.3,0.1-0.5,0.2c-0.2,0.1-0.4,0.2-0.6,0.2c-0.2,0.1-0.4,0.2-0.5,0.3c-0.2,0.2-0.3,0.2-0.4,0.4l-0.1-0.2
		c0-0.2,0.1-0.4,0.2-0.5s0.2-0.3,0.3-0.4c-0.2,0-0.3-0.1-0.4-0.2c-0.1-0.1-0.1-0.2-0.1-0.4c0-0.2,0.1-0.5,0.2-0.7
		c0.2-0.2,0.3-0.4,0.5-0.5c0.2-0.2,0.4-0.2,0.6-0.3c0.2-0.1,0.5,0,0.8,0.1l-0.2,0.8c-0.2-0.2-0.5-0.2-0.8,0
		C230,14.1,229.8,14.2,229.6,14.5"/>
	<path class="st0" d="M226.9,18c-0.1-0.2-0.2-0.3-0.2-0.5c-0.1-0.5-0.1-0.9,0.1-1.4c0.2-0.5,0.4-0.8,0.7-1.2l-0.6-0.5
		c-0.3,0.3-0.6,0.7-0.8,1.1c-0.2,0.4-0.4,0.8-0.5,1.3c-0.1,0.5-0.1,0.9,0,1.4c0.1,0.4,0.2,0.8,0.5,1.1L226.9,18
		C226.8,18,226.9,18,226.9,18z"/>
	<path class="st0" d="M233,12.5V16V18h-1.6h-3.9h-0.6h-0.1l-0.8,1.2c0,0,0,0,0,0.1h0.8h4.9h2.7v-2.1V16v-4.3L233,12.5z"/>
	<path class="st0" d="M121.3,19.8l0.8-0.8v-3.6c0-0.4-0.7-0.4-0.8-0.1c-0.2,0-0.5,0-0.5,0s1.1-0.9,2.6-2.1c0.3,0,0.2,0.3,0.2,0.4
		c0,0-0.3,0.3-0.4,0.6v2.7V17h0.3c0,0,2.4-1.7,3.9-2.6c0.2-0.3-0.2-0.5-0.2-0.7c0,0-0.3-0.2-0.2-0.5c0.1-0.2,0.7,0.2,2.1,1.3
		c0,0,0.3,0.2,0.1,0.4c-0.2,0-0.4-0.2-0.6-0.1c0,0-3.9,2.3-4,2.4c0,0,2.5,0.8,5.2,1.4c0,0,0.5,0.2,0.5,0.8c-0.1,0.7,0,1.3-0.6,1.3
		c0,0-7.4,0-7.7,0c-0.3,0.1-0.4,0.4-0.5,0.5c-0.1,0.1-1-0.8-1.5-2.2c0-0.2,0.4-0.4,0.6,0c0.2,0.4,0.5,0.6,1,0.8c0,0,6.4,0,7.2,0
		c0.8,0,0.6-0.4,0.1-0.4c-0.6-0.2-4.4-1.3-4.8-1.4c-0.3-0.1-0.4-0.1-0.5,0v0.7l0.9,0.8L121.3,19.8z"/>
	<polygon class="st0" points="132.7,16.8 134.1,14.4 132.7,12.6 131.3,14.1 	"/>
	<polygon class="st0" points="125.6,9.7 127.8,8.3 129.7,9.6 128.5,11 	"/>
	<path class="st0" d="M131.1,13.8l1.4-1.5c0,0-1.5-2.2-2.4-2.6l-1.4,1.5C128.7,11.3,131,13.5,131.1,13.8"/>
	<polygon class="st0" points="129.8,9.2 132,7.8 129.4,6.5 128,8.1 	"/>
	<polygon class="st0" points="133,12.3 134.2,13.9 135.7,11.9 134.5,9.7 	"/>
	<polygon class="st0" points="117.4,16.8 116.1,14.4 117.4,12.6 118.9,14.1 	"/>
	<polygon class="st0" points="124.6,9.7 122.4,8.3 120.4,9.6 121.8,11 	"/>
	<path class="st0" d="M119,13.8l-1.4-1.5c0,0,1.5-2.2,2.4-2.6l1.4,1.5C121.5,11.3,119.1,13.5,119,13.8"/>
	<polygon class="st0" points="120.3,9.2 118.1,7.8 120.9,6.5 122.2,8.1 	"/>
	<polygon class="st0" points="117.1,12.3 115.9,13.9 114.4,11.9 115.6,9.7 	"/>
	<polygon class="st0" points="117.4,18.9 116.1,21.2 117.4,23 118.8,21.7 	"/>
	<polygon class="st0" points="124.5,25.9 122.3,27.4 120.4,26.1 121.7,24.6 	"/>
	<path class="st0" d="M119,21.9l-1.4,1.5c0,0,1.5,2.2,2.4,2.6l1.4-1.5C121.4,24.4,119.1,22.2,119,21.9"/>
	<polygon class="st0" points="120.3,26.4 118,27.9 120.8,29.1 122.1,27.6 	"/>
	<polygon class="st0" points="117.1,23.3 115.8,21.7 114.4,23.8 115.5,26 	"/>
	<polygon class="st0" points="132.6,18.9 134,21.2 132.6,23 131.3,21.7 	"/>
	<polygon class="st0" points="125.6,25.9 127.8,27.4 129.7,26.1 128.4,24.6 	"/>
	<path class="st0" d="M131.1,21.9l1.4,1.5c0,0-1.5,2.2-2.4,2.6l-1.4-1.5C128.6,24.4,131,22.2,131.1,21.9"/>
	<polygon class="st0" points="129.7,26.4 132,27.9 129.3,29.1 128,27.6 	"/>
	<polygon class="st0" points="132.9,23.3 134.2,21.7 135.7,23.7 134.5,26 	"/>
	<polygon class="st0" points="125,4.9 126.3,6.7 125,9 123.7,6.7 	"/>
	<polygon class="st0" points="125,30.8 126.5,29 125.1,26.5 123.7,29 	"/>
	<polygon class="st0" points="137.2,17.9 135.4,19.3 133,17.9 135.4,16.6 	"/>
	<polygon class="st0" points="113.1,17.9 115,19.3 117.3,17.9 115,16.6 	"/>
	<polygon class="st0" points="13.4,21.5 13.4,14.1 13.7,14.1 13.7,21.1 16.5,21.1 16.5,21.5 	"/>
	<polygon class="st0" points="16.9,21.9 13,21.9 13,13.8 14.1,13.8 14.1,20.7 16.9,20.7 	"/>
	<path class="st0" d="M26.8,20.8c-0.4,0.4-0.8,0.7-1.4,0.7h-0.1h-0.1h-0.1h-0.1c-0.5-0.1-0.9-0.3-1.4-0.7c-0.4-0.4-0.6-1-0.6-1.7v-5
		h0.3v1.3v1.3V18v1.3c0,0.5,0.2,1,0.5,1.3c0.3,0.3,0.7,0.5,1.1,0.6c0.1,0,0.1,0,0.2,0c0.1,0,0.1,0,0.2,0c0.1,0,0.1,0,0.2,0
		c0.1,0,0.1,0,0.2,0c0.4-0.1,0.7-0.3,1.1-0.6c0.3-0.3,0.5-0.8,0.5-1.3v-5h0.3v1.3v1.3v1.3v1.3C27.4,19.8,27.2,20.4,26.8,20.8"/>
	<path class="st0" d="M25.4,21.9h-0.2c-0.1,0-0.1,0-0.2,0c-0.5-0.1-1.1-0.3-1.5-0.8c-0.5-0.5-0.7-1.1-0.7-1.9v-5.4h1.1v5.4
		c0,0.5,0.2,0.8,0.4,1c0.2,0.3,0.5,0.5,0.8,0.5c0.1,0,0.1,0,0.2,0c0.1,0,0.2,0,0.2,0s0.1,0,0.2,0c0.3-0.1,0.5-0.2,0.8-0.5
		c0.2-0.2,0.4-0.6,0.4-1v-5.4H28v5.4c0,0.8-0.2,1.4-0.7,1.9c-0.5,0.5-1,0.8-1.5,0.8C25.5,21.9,25.5,21.9,25.4,21.9"/>
	<path class="st0" d="M33.4,21.5c-0.1,0-0.2,0-0.2-0.1c-0.1,0-0.2,0-0.2-0.1c-0.5-0.2-1.1-0.5-1.7-0.9c-0.5-0.4-1-0.8-1.4-1.4
		l0.2-0.4c0.1,0,0.2,0.1,0.2,0.1s0.2,0,0.2,0.1h0.1h0.1l0,0h0.1c0.5,0,0.9-0.2,1.3-0.6c0.4-0.4,0.6-0.9,0.6-1.5s-0.2-1.1-0.6-1.5
		c-0.4-0.4-0.8-0.6-1.3-0.6h-0.1h-0.1h-2v6.9h-0.3v-7.4h1.1h1.1c0.5,0,1.1,0.2,1.6,0.7c0.5,0.5,0.7,1.1,0.7,1.9
		c0,0.8-0.2,1.4-0.7,1.8c-0.5,0.5-1,0.7-1.5,0.8l0,0l0,0h-0.1c0,0,0,0.1-0.1,0c0.4,0.5,0.8,0.8,1.4,1.1c0.5,0.3,1,0.5,1.5,0.7
		L33.4,21.5z"/>
	<path class="st0" d="M33.7,22l-0.4-0.1c-0.1,0-0.2-0.1-0.2-0.1c-0.1,0-0.1,0-0.2-0.1l0,0c-0.6-0.2-1.2-0.5-1.7-0.9
		c-0.6-0.4-1.1-0.9-1.5-1.5l-0.2-0.2l0.5-0.8l0.3,0.2c0.1,0,0.1,0.1,0.2,0.1c0.1,0,0.1,0,0.2,0.1h0.1h0.1h0.1c0.4,0,0.7-0.2,1-0.5
		c0.3-0.3,0.5-0.8,0.5-1.3s-0.2-0.9-0.5-1.3c-0.3-0.3-0.6-0.5-1-0.5h-1.7v6.9H28v-8.1h2.7c0.7,0,1.3,0.3,1.8,0.8
		c0.5,0.5,0.8,1.3,0.8,2.1c0,0.8-0.3,1.6-0.8,2.1c-0.4,0.4-0.8,0.6-1.2,0.8c0.2,0.2,0.5,0.4,0.7,0.5c0.5,0.3,0.9,0.5,1.4,0.6
		l0.3,0.1L33.7,22z"/>
	<path class="st0" d="M39.6,21.5c0-0.2,0-0.4-0.1-0.5c0-0.2-0.1-0.3-0.1-0.5h-4c0,0.2-0.1,0.3-0.1,0.5c0,0.2,0,0.3-0.1,0.5H35
		c0-0.2,0-0.4,0-0.5c0-0.2,0-0.3,0.1-0.5h0.2l-0.2-0.5c0.2-1.1,0.5-2.1,0.8-3c0.4-0.9,0.8-1.8,1.5-2.7c0.8,1,1.3,2.1,1.7,3.3
		c0.4,1.2,0.6,2.5,0.8,3.9C39.9,21.5,39.6,21.5,39.6,21.5z M38.7,17.3c-0.3-0.8-0.8-1.7-1.3-2.4c-0.5,0.8-0.9,1.5-1.3,2.4
		c-0.3,0.8-0.5,1.7-0.7,2.7h3.9C39.2,19.2,39,18.2,38.7,17.3"/>
	<path class="st0" d="M40.3,21.9h-1.1v-0.4c0-0.2,0-0.3-0.1-0.5c0-0.1,0-0.1,0-0.2h-3.3l0,0h-0.1c0,0.1,0,0.1,0,0.2
		c0,0.2,0,0.3-0.1,0.5v0.4h-1.1v-0.4c0-0.1,0-0.2,0-0.2c0-0.1,0-0.2,0-0.3c0-0.2,0-0.4,0.1-0.5l0.1-0.3l0,0V20
		c0.2-1.1,0.5-2.1,0.8-3.1c0.4-1,0.9-1.9,1.5-2.8l0.3-0.4l0.3,0.4c0.8,1.1,1.4,2.2,1.7,3.4s0.7,2.6,0.8,3.9V21.9z M35.9,19.7h3
		c-0.2-0.8-0.4-1.5-0.6-2.2c-0.2-0.7-0.5-1.3-0.9-1.8c-0.4,0.6-0.7,1.2-0.9,1.8C36.2,18.2,36.1,18.9,35.9,19.7"/>
	<path class="st0" d="M11.9,21.5c0-0.2,0-0.4-0.1-0.5c0-0.2-0.1-0.3-0.1-0.5h-4c0,0.2-0.1,0.3-0.1,0.5c0,0.2,0,0.3-0.1,0.5H7.4
		c0-0.2,0-0.4,0-0.5c0-0.2,0-0.3,0.1-0.5l0.1-0.4v-0.1C7.7,19,8,17.9,8.4,17c0.4-1,0.8-1.8,1.5-2.7c0.8,1,1.3,2.1,1.7,3.3
		c0.4,1.2,0.6,2.5,0.8,3.9C12.2,21.5,11.9,21.5,11.9,21.5z M11.1,17.3c-0.3-0.8-0.8-1.7-1.3-2.4c-0.5,0.8-0.9,1.5-1.3,2.4
		c-0.3,0.8-0.5,1.7-0.7,2.7h3.9C11.6,19.2,11.4,18.2,11.1,17.3"/>
	<path class="st0" d="M12.7,21.9h-1.1v-0.4c0-0.2,0-0.3-0.1-0.5c0-0.1,0-0.1,0-0.2H8.1c0,0.1,0,0.1,0,0.2c0,0.2,0,0.3-0.1,0.5v0.4H7
		v-0.4c0-0.1,0-0.2,0-0.2c0-0.1,0-0.2,0-0.3c0-0.2,0-0.3,0.1-0.5l0.1-0.5c0.2-1.1,0.5-2.1,0.8-3.1s0.9-1.9,1.5-2.8l0.3-0.4l0.3,0.4
		c0.8,1.1,1.4,2.2,1.7,3.4c0.4,1.2,0.7,2.6,0.8,3.9L12.7,21.9z M8.3,19.7h3c-0.2-0.8-0.4-1.5-0.6-2.2c-0.2-0.7-0.5-1.3-0.9-1.8
		c-0.4,0.6-0.7,1.2-0.9,1.8C8.7,18.2,8.4,18.9,8.3,19.7"/>
	<rect x="41.1" y="14.1" class="st0" width="0.3" height="7.4"/>
	<rect x="40.7" y="13.8" class="st0" width="1.1" height="8.1"/>
	<path class="st0" d="M46.5,17.5c-0.5,0.8-0.7,1.7-0.8,2.7h-0.3c-0.2-1-0.4-1.8-0.8-2.7c-0.5-0.8-1-1.5-1.6-2.1v6.2h-0.3v-6.9
		l0.1,0.1c0,0,0.1,0,0.1,0.1l0.1,0.1c0,0,0.1,0,0.1,0.1c0.6,0.5,1.1,1.1,1.6,1.9s0.8,1.2,1,2.1"/>
	<path class="st0" d="M43.3,21.9h-1.1v-8.1l0.6,0.6c0,0,0.1,0,0.1,0.1h0.1h0.2l0.1,0.1c0.6,0.5,1.2,1.2,1.7,2l0.1,0.1
		c0.3,0.5,0.6,1,0.8,1.6c0.2-0.3,0.2-0.6,0.4-0.9l0.7,0.4c-0.4,0.8-0.7,1.6-0.8,2.5l0,0.4h-1L45,20.2c-0.1-0.9-0.4-1.7-0.8-2.5
		c-0.2-0.5-0.5-0.9-0.8-1.3C43.3,16.3,43.3,21.9,43.3,21.9z"/>
	<path class="st0" d="M45.7,18.8c0.2-0.9,0.5-1.4,1-2.1c0.5-0.8,1-1.4,1.6-1.9l0.1-0.1c0,0,0.1,0,0.1-0.1c0,0,0.1,0,0.1-0.1
		c0,0,0.1,0,0.1-0.1v6.9h-0.3v-6.2c-0.7,0.7-1.1,1.4-1.6,2.2c-0.5,0.8-0.7,1.7-0.8,2.7h-0.3c-0.1-1-0.4-1.8-0.8-2.7"/>
	<path class="st0" d="M48.9,21.9h-1.1v-5.5c-0.3,0.4-0.6,0.8-0.8,1.3c-0.4,0.8-0.7,1.6-0.8,2.5v0.4h-1l-0.1-0.3
		c-0.1-0.9-0.4-1.7-0.8-2.5l0.7-0.4c0.2,0.3,0.3,0.6,0.4,0.9c0.2-0.6,0.5-1.1,0.8-1.6l0.1-0.1c0.5-0.8,1.1-1.4,1.7-2l0.1-0.1
		l0.1-0.1l0.1-0.1l0.1-0.1l0.6-0.6C48.9,13.8,48.9,21.9,48.9,21.9z"/>
	<path class="st0" d="M18.2,18.6c0-0.2,0-0.3,0-0.5v-4h-0.3v7.4h0.3v-1.7l0,0V18.6z"/>
	<path class="st0" d="M18.5,21.9h-1.1v-8.1h1.1v4.5c0,0.1,0,0.2,0,0.4v0.8l0,0V21.9z"/>
	<path class="st0" d="M22.1,20.7c-0.2-0.5-0.5-0.8-0.8-1.1c-0.3-0.3-0.7-0.5-1.1-0.8c-0.4-0.2-0.8-0.3-1.3-0.4l-0.3-0.1l0.2-0.2
		l2.4-2.2c0.2-0.2,0.5-0.3,0.6-0.3H22h0.1v-0.9c0-0.2,0-0.5-0.2-0.5h-0.1c-0.1,0-0.2,0.1-0.5,0.3c-0.7,0.6-1.2,1.1-1.6,1.4
		c-0.4,0.4-0.8,0.6-0.9,0.8c-0.2,0.2-0.4,0.5-0.5,0.7c0,0.1-0.1,0.2-0.1,0.4v1.9h0.1c0.2,0,0.5,0,0.8,0.1c0.4,0.1,0.7,0.2,1.1,0.4
		c0.3,0.2,0.6,0.5,0.8,0.8c0.2,0.2,0.3,0.5,0.5,0.9h1C22.3,21.5,22.3,21.1,22.1,20.7"/>
	<rect x="49.6" y="14.1" class="st0" width="0.4" height="7.4"/>
	<rect x="49.3" y="13.8" class="st0" width="1" height="8.1"/>
	<path class="st0" d="M97.8,21.5c0-0.2,0-0.4-0.1-0.5c0-0.2-0.1-0.3-0.1-0.5h-4c0,0.2-0.1,0.3-0.1,0.5c0,0.2,0,0.3-0.1,0.5h-0.3
		c0-0.2,0-0.4,0-0.5c0-0.2,0-0.3,0.1-0.5h0.2l-0.2-0.5c0.2-1.1,0.5-2.1,0.8-3c0.4-0.9,0.8-1.8,1.5-2.7c0.8,1,1.3,2.1,1.7,3.3
		c0.4,1.2,0.6,2.5,0.8,3.9C98.1,21.5,97.8,21.5,97.8,21.5z M96.9,17.3c-0.3-0.8-0.8-1.7-1.3-2.4c-0.5,0.8-0.9,1.5-1.3,2.4
		c-0.3,0.8-0.5,1.7-0.7,2.7h3.9C97.5,19.2,97.2,18.2,96.9,17.3"/>
	<path class="st0" d="M98.6,21.9h-1.1v-0.4c0-0.2,0-0.3-0.1-0.5c0-0.1,0-0.1,0-0.2h-3.3c0,0.1,0,0.1,0,0.2c0,0.2,0,0.3-0.1,0.5v0.4
		H93v-0.4c0-0.1,0.2-1.4,0.2-1.4c0.2-1.1,0.5-2.1,0.8-3.1c0.4-1,0.9-1.9,1.5-2.7l0.3-0.4l0.3,0.4c0.8,1.1,1.4,2.2,1.7,3.4
		c0.4,1.2,0.7,2.6,0.8,3.9V21.9z M94.2,19.7h3c-0.2-0.8-0.4-1.5-0.6-2.2c-0.2-0.7-0.5-1.3-0.9-1.8c-0.4,0.6-0.7,1.2-0.9,1.8
		C94.6,18.2,94.4,18.9,94.2,19.7"/>
	<path class="st0" d="M103.8,14.7c0,0,0,4.1,0,5c-2.1-4.1-4.7-5.9-4.7-5.9v8.1h1.1v-5.5c2.4,2.4,3.6,5.5,3.6,5.5h1.1v-2.4v-1.3v-0.2
		v-0.6v-3.6C104.9,13.7,103.8,14.6,103.8,14.7"/>
	<path class="st0" d="M110.1,20.7c-0.2-0.5-0.5-0.8-0.8-1.1c-0.3-0.3-0.7-0.5-1.1-0.8c-0.4-0.2-0.8-0.3-1.3-0.4l-0.3-0.1l0.2-0.2
		l2.4-2.2c0.2-0.2,0.5-0.3,0.6-0.3h0.1h0.1v-0.9c0-0.2,0-0.5-0.2-0.5h-0.1c-0.1,0-0.2,0.1-0.5,0.3c-0.7,0.6-1.2,1.1-1.6,1.4
		c-0.4,0.4-0.8,0.6-0.9,0.8c-0.2,0.2-0.2,0.2-0.3,0.4v-3.4h-1.1v8.1h1.1v-2.1c0.2,0,0.4,0,0.6,0.1c0.4,0.1,0.7,0.2,1.1,0.4
		c0.3,0.2,0.6,0.5,0.8,0.8c0.2,0.2,0.3,0.5,0.5,0.9h1C110.3,21.4,110.2,21.1,110.1,20.7"/>
	<polygon class="st0" points="88.1,20.4 88.1,20.4 88.1,13.5 87,13.5 87,20.7 88.1,20.7 	"/>
	<path class="st0" d="M92.5,19.3c0-0.6-0.1-1.1-0.3-1.5c0-0.1,0.1-0.2,0.1-0.2c0.2-0.3,0.2-0.7,0.2-1.1c0-0.6-0.2-1.1-0.5-1.7
		c-0.1-0.2-0.2-0.4-0.4-0.5c-0.2-0.2-0.3-0.3-0.5-0.4c-0.5-0.3-0.9-0.5-1.4-0.5h-2.7l0,0h1.1v1.1h1.7c0,0,0,0,0.1,0
		c0.4,0,0.7,0.2,1,0.5c0.1,0.1,0.1,0.1,0.2,0.2c0.2,0.2,0.3,0.5,0.3,0.9c0,0.1,0,0.2,0,0.2c0,0.4-0.1,0.8-0.3,1c0,0,0,0.1-0.1,0.1
		c-0.3,0.3-0.7,0.5-1,0.5h-0.1h-0.1h-0.1c-0.1,0-0.1,0-0.2-0.1c-0.1,0-0.1,0-0.2-0.1l-0.3-0.2l-0.5,0.8c1.3,1,2.4,0.4,2.7,0.1l0,0
		c0,0.1,0.1,0.2,0.1,0.3c0,0.1,0,0.2,0,0.2c0,0.5-0.2,0.8-0.3,1.1c-0.1,0.1-0.1,0.2-0.2,0.2c-0.1,0.1-0.2,0.2-0.3,0.2h-2.4h-1.1v1.1
		h3.8c0.2-0.1,0.3-0.2,0.5-0.2c0.1-0.1,0.2-0.2,0.3-0.3c0.2-0.2,0.4-0.4,0.5-0.6c0.1-0.2,0.2-0.2,0.2-0.4c0-0.1,0-0.1,0,0
		C92.4,20.1,92.5,19.7,92.5,19.3"/>
	<path class="st0" d="M171.1,35.3c0.2,0.3,0.3,0.6,0.3,1.1c0,0.2,0.1,0.3,0.1,0.5c0,0.2,0,0.3-0.1,0.5h-1.8c-0.2,0-0.3,0-0.4-0.1
		c-0.1-0.1-0.2-0.2-0.2-0.3c0-0.1,0-0.2,0.1-0.4c0.1-0.2,0.1-0.2,0.2-0.3c0,0.1,0,0.2,0,0.2c0.1,0.1,0.2,0.1,0.3,0.1h1.4
		c0-0.3-0.2-0.6-0.3-0.8c-0.2-0.2-0.4-0.5-0.5-0.7l0.5-0.7C170.8,34.7,171,35,171.1,35.3"/>
	<path class="st0" d="M168.7,37c-0.1,0.4-0.2,0.8-0.3,1.1s-0.4,0.7-0.7,1l-0.8-0.6c0.3-0.2,0.6-0.5,0.8-0.8c0.2-0.3,0.3-0.5,0.4-0.8
		c-0.1,0-0.2,0-0.3,0c-0.1,0-0.2,0-0.4,0c-0.2,0-0.2,0-0.4-0.1c-0.2,0-0.2-0.1-0.3-0.2c-0.1-0.1-0.2-0.2-0.2-0.2c0-0.1,0-0.2,0-0.2
		c0-0.2,0-0.4,0.1-0.5c0.1-0.2,0.1-0.5,0.2-0.6c0.1-0.2,0.2-0.4,0.3-0.5c0.2-0.2,0.3-0.2,0.5-0.2s0.4,0.1,0.5,0.2
		c0.2,0.2,0.2,0.3,0.3,0.5s0.2,0.4,0.2,0.6c0.1,0.2,0.1,0.4,0.1,0.5C168.7,36.5,168.7,36.8,168.7,37 M167,35.9
		c0,0.1,0.1,0.2,0.2,0.2c0.1,0.1,0.2,0.1,0.4,0.1s0.2,0,0.4,0c0.2,0,0.2,0,0.3,0c0-0.1,0-0.2,0-0.2c0-0.1,0-0.2-0.1-0.2
		c-0.1-0.2-0.2-0.4-0.2-0.5c-0.2-0.1-0.2-0.2-0.4-0.2s-0.2,0.1-0.3,0.2C167,35.6,167,35.7,167,35.9"/>
	<path class="st0" d="M164.8,35.1c0.2,0,0.5,0.2,0.6,0.3c0.2,0.2,0.3,0.4,0.4,0.6s0.2,0.5,0.2,0.7s0,0.5-0.1,0.6h-9.5v-0.7h7.4
		c0-0.2,0.1-0.2,0.1-0.5c0-0.2,0.1-0.3,0.2-0.5c0.1-0.2,0.2-0.3,0.3-0.4C164.5,35.2,164.7,35.1,164.8,35.1 M165.5,36.6
		c0-0.1,0-0.2-0.1-0.2c0-0.1-0.1-0.2-0.1-0.2c-0.1-0.1-0.1-0.2-0.2-0.2c-0.1-0.1-0.2-0.1-0.2-0.1c-0.1,0-0.2,0.1-0.3,0.2
		c-0.1,0.1-0.2,0.3-0.2,0.5C164.5,36.6,165.5,36.6,165.5,36.6z"/>
	<polygon class="st0" points="157.3,36.6 157.3,37.3 156,37.3 156,33.5 156.7,33.1 156.7,36.6 	"/>
	<path class="st0" d="M152.9,35.1c0.2,0,0.5,0.2,0.6,0.3c0.2,0.2,0.3,0.4,0.4,0.6c0.1,0.2,0.2,0.5,0.2,0.7s0,0.5-0.1,0.6h-4.6v-0.7
		h2.6c0-0.2,0.1-0.2,0.1-0.5c0-0.2,0.1-0.3,0.2-0.5c0.1-0.2,0.2-0.3,0.3-0.4C152.5,35.2,152.7,35.1,152.9,35.1 M153.5,36.6
		c0-0.1,0-0.2-0.1-0.2c0-0.1-0.1-0.2-0.1-0.2c-0.1-0.1-0.1-0.2-0.2-0.2c-0.1-0.1-0.2-0.1-0.2-0.1s-0.2,0.1-0.3,0.2s-0.2,0.3-0.2,0.5
		C152.5,36.6,153.5,36.6,153.5,36.6z"/>
	<path class="st0" d="M149.9,37.3h-1.3c-0.1,0-0.2,0-0.2-0.1c-0.1-0.1-0.1-0.1-0.2-0.2c-0.1,0.1-0.2,0.2-0.2,0.2
		c-0.1,0.1-0.2,0.1-0.2,0.1h-13.6v-0.7h13.5c-0.1-0.2-0.2-0.3-0.3-0.5c-0.1-0.2-0.2-0.3-0.3-0.4c-0.2-0.2-0.3-0.2-0.4-0.2
		c-0.2-0.1-0.3-0.1-0.5-0.1l0.5-0.7c0.2,0,0.4-0.1,0.7-0.1c0.3,0,0.5-0.1,0.8-0.1s0.5,0,0.8,0.1c0.2,0.1,0.5,0.2,0.6,0.3
		c0.1,0.2,0.2,0.2,0.2,0.4c0,0.2,0,0.2-0.1,0.4c-0.1,0.2-0.2,0.2-0.2,0.3s-0.2,0.2-0.2,0.3l-0.2,0.2h1L149.9,37.3L149.9,37.3z
		 M148.3,36.2c0.1,0,0.1-0.1,0.2-0.2c0.1-0.1,0.2-0.2,0.2-0.2c0.1-0.1,0.2-0.2,0.2-0.2c0.1-0.1,0.1-0.2,0.1-0.2
		c0-0.1-0.1-0.2-0.2-0.2c-0.2,0-0.3-0.1-0.5-0.1c-0.2,0-0.3,0-0.5,0c-0.2,0-0.3,0-0.4,0c0.2,0.2,0.3,0.3,0.5,0.5
		C148,35.9,148.1,36.1,148.3,36.2"/>
	<path class="st0" d="M132.2,35c0.1,0.1,0.2,0.1,0.2,0.1s0.2,0,0.3,0c0.1,0,0.2-0.1,0.3-0.1c0.1,0,0.2-0.1,0.2-0.1l-0.2,0.5
		c-0.1,0-0.2,0.1-0.2,0.1c-0.1,0-0.2,0.1-0.3,0.2c-0.1,0.1-0.2,0.1-0.3,0.2c-0.1,0.1-0.2,0.2-0.2,0.2v-0.1c0-0.1,0.1-0.2,0.1-0.2
		c0-0.1,0.1-0.2,0.2-0.2c-0.1,0-0.2-0.1-0.2-0.1c0-0.1-0.1-0.1-0.1-0.2s0-0.2,0.1-0.3c0.1-0.1,0.2-0.2,0.2-0.2
		c0.1-0.1,0.2-0.1,0.3-0.2c0.1,0,0.2,0,0.4,0l-0.1,0.4c-0.1-0.1-0.2-0.1-0.4,0C132.4,34.7,132.3,34.8,132.2,35"/>
	<path class="st0" d="M131,36.6c-0.1-0.1-0.1-0.2-0.1-0.2c-0.1-0.2,0-0.5,0.1-0.7c0.1-0.2,0.2-0.5,0.3-0.6l-0.3-0.2
		c-0.2,0.2-0.3,0.4-0.4,0.5c-0.1,0.2-0.2,0.5-0.2,0.7c-0.1,0.2-0.1,0.5,0,0.7c0,0.2,0.1,0.4,0.2,0.5L131,36.6
		C130.9,36.6,131,36.6,131,36.6z"/>
	<path class="st0" d="M133.8,33.5v2.1v1.1h-0.8h-1.9h-0.3h-0.1l-0.4,0.6l0,0h0.4h2.4h1.3v-1.1v-0.6v-2.5L133.8,33.5z"/>
	<path class="st0" d="M81.6,37.3h-0.2l-0.3-1.1c0-0.1-0.1-0.2-0.1-0.3c-0.1-0.1-0.1-0.2-0.2-0.2c-0.1-0.1-0.1-0.2-0.2-0.2
		c-0.1-0.1-0.2-0.1-0.2-0.1h-1.1v1.7h-0.2v-3.9h1.4c0.2,0,0.3,0,0.4,0.1c0.2,0,0.2,0.1,0.4,0.2c0.1,0.1,0.2,0.2,0.2,0.3
		c0.1,0.2,0.1,0.3,0.1,0.5c0,0.2,0,0.2-0.1,0.4c0,0.1-0.1,0.2-0.2,0.3c-0.1,0.1-0.2,0.2-0.2,0.2c-0.1,0.1-0.2,0.1-0.3,0.2
		c0.1,0.1,0.1,0.1,0.2,0.2c0.1,0.1,0.1,0.1,0.1,0.2c0,0.1,0.1,0.2,0.1,0.2c0,0.1,0.1,0.2,0.1,0.2L81.6,37.3z M79.2,35.3h1.1
		c0.2,0,0.3,0,0.4-0.1c0.2,0,0.2-0.1,0.3-0.2c0.1-0.1,0.2-0.2,0.2-0.2c0-0.1,0.1-0.2,0.1-0.4c0-0.3-0.1-0.5-0.2-0.6
		s-0.4-0.2-0.6-0.2h-1.2C79.2,33.7,79.2,35.3,79.2,35.3z"/>
	<path class="st0" d="M81.7,37.5h-0.5l-0.4-1.1c0-0.1-0.1-0.2-0.1-0.3c0-0.1-0.1-0.2-0.2-0.2c-0.1-0.1-0.1-0.1-0.2-0.2
		c-0.1,0-0.1-0.1-0.2-0.1h-1v1.7h-0.5v-4.3h1.6c0.2,0,0.3,0,0.5,0.1c0.2,0,0.3,0.1,0.4,0.2c0.2,0.1,0.2,0.2,0.3,0.4
		c0.1,0.2,0.1,0.4,0.1,0.6c0,0.2,0,0.3-0.1,0.4c0,0.2-0.1,0.2-0.2,0.4c-0.1,0.1-0.2,0.2-0.2,0.3c-0.1,0-0.1,0.1-0.2,0.1l0,0
		c0.1,0.1,0.1,0.2,0.2,0.2c0,0.1,0.1,0.2,0.1,0.2L81.7,37.5z M80.5,35.3L80.5,35.3L80.5,35.3C80.5,35.3,80.5,35.3,80.5,35.3
		 M79.3,35.1h1c0.2,0,0.3,0,0.4-0.1c0.1,0,0.2-0.1,0.2-0.1c0.1-0.1,0.1-0.1,0.2-0.2c0-0.1,0.1-0.2,0.1-0.3c0-0.2-0.1-0.4-0.2-0.5
		c-0.2-0.1-0.3-0.2-0.5-0.2h-1.1L79.3,35.1L79.3,35.1z"/>
	<path class="st0" d="M82.7,37.3h-0.2v-2.8h0.2V37.3z M82.7,33.8h-0.2v-0.5h0.2V33.8z"/>
	<path class="st0" d="M82.8,37.5h-0.5v-3.1h0.5V37.5z M82.8,34h-0.5v-0.8h0.5V34z"/>
	<path class="st0" d="M85.5,37.2c0,0.2,0,0.4-0.1,0.5s-0.1,0.3-0.2,0.4c-0.1,0.1-0.2,0.2-0.3,0.2c-0.2,0.1-0.3,0.1-0.5,0.1
		c-0.2,0-0.3,0-0.4-0.1c-0.1,0-0.2-0.1-0.3-0.2c-0.1-0.1-0.2-0.2-0.2-0.2c-0.1-0.1-0.1-0.2-0.1-0.3h0.2c0,0.2,0.1,0.3,0.2,0.4
		c0.1,0.1,0.3,0.2,0.5,0.2c0.2,0,0.2,0,0.3-0.1c0.1,0,0.2-0.1,0.2-0.2c0.1-0.1,0.1-0.2,0.2-0.3c0-0.2,0.1-0.3,0.1-0.5V37
		c-0.1,0.1-0.2,0.2-0.2,0.2c-0.1,0.1-0.2,0.1-0.2,0.2c-0.1,0-0.2,0.1-0.2,0.1s-0.2,0-0.2,0c-0.2,0-0.3,0-0.4-0.1
		c-0.2-0.1-0.2-0.2-0.3-0.3s-0.2-0.3-0.2-0.5c-0.1-0.2-0.1-0.4-0.1-0.6s0-0.5,0.1-0.6c0.1-0.2,0.2-0.3,0.2-0.5
		c0.1-0.2,0.2-0.2,0.3-0.3c0.2-0.1,0.2-0.1,0.4-0.1c0.1,0,0.2,0,0.2,0c0.1,0,0.2,0,0.2,0.1c0.1,0,0.2,0.1,0.2,0.1
		c0.1,0.1,0.2,0.1,0.2,0.2v-0.2h0.2L85.5,37.2L85.5,37.2z M85.2,35.1c-0.2-0.2-0.2-0.2-0.4-0.3c-0.2-0.1-0.2-0.1-0.4-0.1
		c-0.2,0-0.2,0-0.3,0.1C84.1,34.9,84,35,83.9,35c-0.1,0.1-0.2,0.2-0.2,0.4s-0.1,0.3-0.1,0.5c0,0.4,0.1,0.7,0.2,0.8
		c0.2,0.2,0.3,0.3,0.5,0.3c0.2,0,0.3-0.1,0.5-0.2c0.2-0.1,0.2-0.2,0.4-0.5L85.2,35.1L85.2,35.1z"/>
	<path class="st0" d="M84.5,38.5c-0.2,0-0.3,0-0.5-0.1c-0.2-0.1-0.2-0.1-0.3-0.2c-0.1-0.1-0.2-0.2-0.2-0.3c-0.1-0.2-0.1-0.2-0.1-0.4
		v-0.2h0.5v0.2c0,0.2,0.1,0.2,0.2,0.2c0.1,0.1,0.2,0.1,0.4,0.1c0.1,0,0.2,0,0.3-0.1c0.1,0,0.2-0.1,0.2-0.2c0.1-0.1,0.1-0.2,0.2-0.2
		c0-0.1,0-0.2,0-0.2c-0.1,0.1-0.2,0.1-0.2,0.2c-0.1,0.1-0.2,0.1-0.2,0.1c-0.2,0-0.5,0-0.7-0.1c-0.2-0.1-0.2-0.2-0.4-0.4
		c-0.1-0.2-0.2-0.3-0.2-0.5c-0.1-0.2-0.1-0.4-0.1-0.6s0-0.5,0.1-0.7c0.1-0.2,0.2-0.4,0.2-0.5c0.1-0.2,0.2-0.2,0.4-0.3
		c0.2-0.2,0.5-0.2,0.7-0.1c0.1,0,0.2,0,0.2,0.1c0.1,0,0.2,0.1,0.2,0.1v-0.1h0.5v2.8c0,0.2,0,0.5-0.1,0.6c-0.1,0.2-0.2,0.3-0.2,0.5
		c-0.1,0.2-0.2,0.2-0.4,0.2C84.9,38.4,84.7,38.5,84.5,38.5 M84.5,34.9c-0.1,0-0.2,0-0.2,0.1c-0.1,0-0.2,0.1-0.2,0.2
		c-0.1,0.1-0.1,0.2-0.2,0.3c0,0.2-0.1,0.3-0.1,0.5c0,0.4,0.1,0.6,0.2,0.8s0.2,0.2,0.5,0.2c0.2,0,0.2,0,0.3-0.1
		c0.1-0.1,0.2-0.2,0.3-0.4v-1.3C85,35,84.9,35,84.8,34.9C84.7,34.9,84.6,34.9,84.5,34.9"/>
	<path class="st0" d="M86.6,34.9c0.1-0.1,0.2-0.2,0.2-0.2c0.1-0.1,0.2-0.2,0.2-0.2c0.1,0,0.2-0.1,0.2-0.1c0.1,0,0.2,0,0.2,0
		c0.5,0,0.8,0.3,0.8,1v1.8H88v-1.8c0-0.2,0-0.2,0-0.3C88,35,88,35,88,34.9c-0.1-0.1-0.1-0.1-0.2-0.2c-0.1,0-0.2-0.1-0.3-0.1
		s-0.3,0.1-0.4,0.2c-0.2,0.1-0.2,0.2-0.4,0.4v2.1h-0.4v-3.9h0.2V34.9L86.6,34.9z"/>
	<path class="st0" d="M88.4,37.5h-0.5v-2c0-0.2,0-0.2,0-0.3S87.8,35,87.8,35c0-0.1-0.1-0.1-0.2-0.1c-0.2-0.1-0.4-0.1-0.5,0.1
		c-0.1,0.1-0.2,0.2-0.3,0.3v2.1h-0.5v-4.3h0.5v1.4c0.1-0.1,0.2-0.2,0.2-0.2c0.1,0,0.2-0.1,0.2-0.1c0.1,0,0.2,0,0.2,0
		c0.5,0,0.9,0.2,0.9,1.1L88.4,37.5L88.4,37.5z"/>
	<path class="st0" d="M89.9,37.3L89.9,37.3h-0.2c-0.1,0-0.2,0-0.3-0.1c-0.1,0-0.2-0.1-0.2-0.2s-0.1-0.2-0.1-0.2c0-0.1,0-0.2,0-0.4
		v-1.7h-0.3v-0.3h0.3v-0.8h0.2v0.8h0.4v0.3h-0.4v1.7c0,0.2,0,0.2,0,0.3s0,0.2,0.1,0.2l0.1,0.1c0.1,0,0.1,0,0.2,0h0.1c0,0,0,0,0.1,0
		L89.9,37.3L89.9,37.3z"/>
	<path class="st0" d="M89.6,37.5c-0.2,0-0.2,0-0.3-0.1c-0.1-0.1-0.2-0.2-0.2-0.2C89,37.1,89,36.9,89,36.8c0-0.1,0-0.2,0-0.4V35h-0.4
		v-0.6H89v-0.8h0.5v0.8h0.4V35h-0.4v1.6c0,0.2,0,0.2,0,0.2c0,0.1,0,0.1,0,0.1c0.1,0,0.1,0,0.2,0h0.1c0,0,0,0,0.1,0h0.2v0.6h-0.2
		C89.7,37.5,89.7,37.5,89.6,37.5C89.7,37.5,89.7,37.5,89.6,37.5 M89.3,37L89.3,37C89.3,37.1,89.4,37.1,89.3,37l0.2,0.1
		C89.5,37.2,89.4,37.1,89.3,37C89.4,37,89.3,37,89.3,37"/>
	<path class="st0" d="M95.8,36.2c0,0.4-0.1,0.6-0.3,0.8c-0.2,0.2-0.5,0.3-0.9,0.3h-1.2v-3.9h1.2c0.3,0,0.6,0.1,0.8,0.2
		c0.2,0.2,0.2,0.4,0.2,0.7c0,0.1,0,0.2,0,0.3c0,0.1-0.1,0.2-0.1,0.3c-0.1,0.1-0.1,0.2-0.2,0.2c-0.1,0.1-0.2,0.1-0.3,0.2
		c0.2,0,0.3,0.1,0.4,0.2c0.1,0.1,0.2,0.2,0.2,0.2c0.1,0.1,0.1,0.2,0.1,0.3C95.8,35.9,95.8,36.1,95.8,36.2 M93.6,35.1h0.9
		c0.3,0,0.5-0.1,0.7-0.2c0.2-0.1,0.2-0.3,0.2-0.5c0-0.2-0.1-0.4-0.2-0.5c-0.2-0.2-0.3-0.2-0.6-0.2h-0.9L93.6,35.1L93.6,35.1z
		 M93.6,37h1c0.6,0,0.9-0.3,0.9-0.8c0-0.2,0-0.2-0.1-0.4c0-0.1-0.1-0.2-0.2-0.2c-0.1-0.1-0.2-0.2-0.3-0.2c-0.2,0-0.3-0.1-0.5-0.1
		h-0.9V37L93.6,37z"/>
	<path class="st0" d="M94.6,37.5h-1.4v-4.3h1.4c0.4,0,0.7,0.1,0.8,0.2c0.2,0.2,0.3,0.5,0.3,0.8c0,0.1,0,0.2,0,0.3s-0.1,0.2-0.1,0.3
		c-0.1,0.1-0.1,0.2-0.2,0.2h0.1c0.1,0.1,0.2,0.2,0.2,0.3c0.1,0.1,0.1,0.2,0.2,0.4c0,0.2,0,0.2,0,0.4c0,0.4-0.2,0.7-0.4,0.9
		S95,37.5,94.6,37.5 M93.7,36.8h0.8c0.7,0,0.8-0.4,0.8-0.7c0-0.2,0-0.2-0.1-0.3c0-0.1-0.1-0.2-0.2-0.2c-0.1-0.1-0.2-0.1-0.2-0.2
		c-0.2,0-0.3-0.1-0.5-0.1h-0.8L93.7,36.8L93.7,36.8z M93.7,35h0.8c0.2,0,0.5-0.1,0.5-0.2c0.1-0.1,0.2-0.2,0.2-0.5S95.1,34,95,34
		c-0.1-0.1-0.3-0.2-0.5-0.2h-0.8V35L93.7,35z"/>
	<path class="st0" d="M97.5,37.4c-0.2,0-0.3,0-0.5-0.1c-0.2-0.1-0.2-0.2-0.4-0.3c-0.1-0.2-0.2-0.3-0.2-0.5c-0.1-0.2-0.1-0.4-0.1-0.6
		c0-0.2,0-0.5,0.1-0.6c0.1-0.2,0.2-0.3,0.2-0.5c0.1-0.2,0.2-0.2,0.4-0.3c0.2-0.1,0.3-0.1,0.5-0.1c0.2,0,0.3,0,0.5,0.1
		c0.2,0.1,0.2,0.2,0.4,0.3c0.1,0.2,0.2,0.3,0.2,0.5c0.1,0.2,0.1,0.4,0.1,0.6V36h-2c0,0.2,0.1,0.4,0.1,0.5c0.1,0.2,0.1,0.2,0.2,0.4
		c0.1,0.1,0.2,0.2,0.3,0.2c0.1,0.1,0.2,0.1,0.3,0.1c0.1,0,0.2,0,0.2,0c0.1,0,0.2-0.1,0.2-0.1c0.1-0.1,0.2-0.1,0.2-0.2
		c0.1-0.1,0.1-0.2,0.1-0.2h0.2c0,0.2-0.1,0.2-0.2,0.4c-0.1,0.1-0.2,0.2-0.2,0.2c-0.1,0.1-0.2,0.2-0.3,0.2
		C97.8,37.3,97.6,37.4,97.5,37.4 M98.3,35.6c-0.1-0.3-0.2-0.5-0.3-0.7c-0.2-0.2-0.3-0.2-0.5-0.2c-0.1,0-0.2,0-0.3,0.1
		c-0.1,0.1-0.2,0.1-0.2,0.2c-0.1,0.1-0.2,0.2-0.2,0.3c-0.1,0.2-0.1,0.2-0.1,0.5L98.3,35.6L98.3,35.6z"/>
	<path class="st0" d="M97.5,37.5c-0.2,0-0.4,0-0.5-0.1c-0.2-0.1-0.3-0.2-0.5-0.3c-0.1-0.2-0.2-0.3-0.2-0.5c-0.1-0.2-0.1-0.5-0.1-0.7
		s0-0.5,0.1-0.7c0.1-0.2,0.2-0.4,0.2-0.5c0.1-0.2,0.2-0.2,0.4-0.3c0.3-0.2,0.8-0.2,1.1,0c0.2,0.1,0.3,0.2,0.4,0.3
		c0.1,0.2,0.2,0.3,0.2,0.5c0.1,0.2,0.1,0.4,0.1,0.7v0.2h-2c0,0.1,0.1,0.2,0.1,0.3c0.1,0.2,0.1,0.2,0.2,0.3c0.1,0.1,0.2,0.2,0.2,0.2
		c0.2,0.1,0.3,0.1,0.5,0c0.1,0,0.2-0.1,0.2-0.1c0.1,0,0.1-0.1,0.2-0.2c0-0.1,0.1-0.1,0.1-0.2v-0.2h0.6v0.2c0,0.2-0.1,0.3-0.2,0.4
		c-0.1,0.2-0.2,0.2-0.2,0.3c-0.1,0.1-0.2,0.2-0.4,0.2C97.8,37.5,97.6,37.5,97.5,37.5 M96.8,35.5h1.4c-0.1-0.2-0.2-0.4-0.2-0.5
		c-0.2-0.2-0.3-0.2-0.5-0.2c-0.1,0-0.2,0-0.2,0.1c-0.1,0-0.2,0.1-0.2,0.2c-0.1,0.1-0.1,0.2-0.2,0.2C96.9,35.3,96.8,35.4,96.8,35.5"
		/>
	<path class="st0" d="M100.2,37.4c-0.6,0-0.9-0.3-1-0.8h0.2c0,0.2,0.1,0.3,0.2,0.4c0.2,0.1,0.3,0.2,0.5,0.2c0.1,0,0.2,0,0.3-0.1
		c0.1,0,0.2-0.1,0.2-0.1c0.1-0.1,0.1-0.1,0.2-0.2c0-0.1,0.1-0.2,0.1-0.2c0-0.1,0-0.2,0-0.2c0-0.1-0.1-0.1-0.2-0.2
		c-0.1-0.1-0.2-0.1-0.2-0.2c-0.1-0.1-0.2-0.1-0.4-0.2c-0.2,0-0.2-0.1-0.4-0.2c-0.1-0.1-0.2-0.1-0.2-0.2c-0.1-0.1-0.2-0.2-0.2-0.2
		c0-0.1-0.1-0.2-0.1-0.3s0-0.2,0.1-0.3c0.1-0.1,0.1-0.2,0.2-0.2c0.1-0.1,0.2-0.1,0.3-0.2c0.1,0,0.2-0.1,0.4-0.1
		c0.3,0,0.5,0.1,0.7,0.2c0.2,0.1,0.2,0.3,0.2,0.5h-0.4c0-0.2-0.1-0.2-0.2-0.3c-0.1-0.1-0.2-0.1-0.5-0.1c-0.1,0-0.2,0-0.2,0
		c-0.1,0-0.2,0.1-0.2,0.1c-0.1,0-0.1,0.1-0.2,0.2c0,0.1-0.1,0.2-0.1,0.2c0,0.1,0,0.1,0,0.2s0.1,0.1,0.1,0.2c0.1,0.1,0.2,0.1,0.2,0.2
		c0.1,0.1,0.2,0.1,0.5,0.2c0.2,0.1,0.3,0.1,0.4,0.2c0.1,0.1,0.2,0.1,0.2,0.2c0.1,0.1,0.2,0.2,0.2,0.2c0,0.1,0.1,0.2,0.1,0.3
		s0,0.2-0.1,0.4c-0.1,0.1-0.1,0.2-0.2,0.3c-0.1,0.1-0.2,0.2-0.3,0.2C100.5,37.3,100.4,37.4,100.2,37.4"/>
	<path class="st0" d="M100.2,37.5c-0.8,0-1.1-0.5-1.1-1v-0.2h0.5v0.2c0,0.2,0.1,0.2,0.2,0.3c0.1,0.1,0.2,0.1,0.5,0.1
		c0.1,0,0.2,0,0.2,0c0.1,0,0.2-0.1,0.2-0.1c0.1,0,0.1-0.1,0.1-0.1c0-0.1,0-0.1,0-0.2s0-0.1,0-0.2c0,0,0-0.1-0.1-0.1
		c-0.1,0-0.2-0.1-0.2-0.1c-0.1,0-0.2-0.1-0.4-0.2c-0.2-0.1-0.2-0.1-0.4-0.2c-0.2-0.1-0.2-0.1-0.3-0.2c-0.1-0.1-0.2-0.2-0.2-0.3
		C99,35.5,99,35.3,99,35.2c0-0.2,0-0.2,0.1-0.4c0.1-0.1,0.2-0.2,0.2-0.3c0.1-0.1,0.2-0.2,0.3-0.2c0.2,0,0.2-0.1,0.4-0.1
		c0.3,0,0.6,0.1,0.8,0.2c0.2,0.2,0.3,0.4,0.3,0.6v0.2h-0.5v-0.2c0-0.2-0.1-0.2-0.1-0.2c-0.1,0-0.2-0.1-0.4-0.1c-0.1,0-0.2,0-0.2,0
		c-0.1,0-0.1,0-0.2,0.1L99.6,35c0,0,0,0.1,0,0.2v0.1c0,0,0,0,0.1,0.1c0,0,0.1,0.1,0.2,0.2c0.1,0.1,0.2,0.1,0.4,0.2
		c0.2,0.1,0.3,0.1,0.4,0.2c0.2,0.1,0.2,0.1,0.3,0.2c0.1,0.1,0.2,0.2,0.2,0.3c0.1,0.1,0.1,0.2,0.1,0.4c0,0.2,0,0.3-0.1,0.4
		c-0.1,0.2-0.2,0.2-0.2,0.3c-0.1,0.1-0.2,0.2-0.4,0.2C100.5,37.5,100.4,37.5,100.2,37.5 M99.6,35.6c0.1,0.1,0.2,0.1,0.2,0.2l0,0
		C99.7,35.6,99.6,35.6,99.6,35.6"/>
	<path class="st0" d="M102.1,37.3h-0.2v-2.8h0.2V37.3z M102.1,33.8h-0.2v-0.5h0.2V33.8z"/>
	<path class="st0" d="M102.3,37.5h-0.5v-3.1h0.5V37.5z M102.3,34h-0.5v-0.8h0.5V34z"/>
	<path class="st0" d="M104.6,36.9c-0.1,0.1-0.2,0.2-0.2,0.2c-0.1,0.1-0.2,0.1-0.2,0.2c-0.1,0-0.2,0.1-0.2,0.1c-0.1,0-0.2,0-0.2,0
		c-0.2,0-0.3,0-0.4-0.1c-0.1-0.1-0.2-0.2-0.3-0.3c-0.1-0.2-0.2-0.3-0.2-0.5c-0.1-0.2-0.1-0.4-0.1-0.6c0-0.2,0-0.5,0.1-0.6
		c0.1-0.2,0.2-0.3,0.2-0.5c0.1-0.2,0.2-0.2,0.3-0.3c0.2-0.1,0.2-0.1,0.4-0.1c0.1,0,0.2,0,0.2,0c0.1,0,0.2,0,0.2,0.1
		c0.1,0,0.2,0.1,0.2,0.1c0.1,0.1,0.2,0.1,0.2,0.2v-1.4h0.2v3.9h-0.3V36.9L104.6,36.9z M104.6,35.1c-0.2-0.2-0.2-0.2-0.4-0.3
		c-0.2-0.1-0.2-0.1-0.4-0.1c-0.2,0-0.2,0-0.3,0.1c-0.1,0.1-0.2,0.2-0.2,0.2c-0.1,0.1-0.2,0.2-0.2,0.4s-0.1,0.3-0.1,0.5
		c0,0.4,0.1,0.7,0.2,0.8c0.2,0.2,0.3,0.3,0.5,0.3c0.2,0,0.3-0.1,0.5-0.2c0.2-0.1,0.2-0.2,0.4-0.5L104.6,35.1L104.6,35.1z"/>
	<path class="st0" d="M103.8,37.5c-0.2,0-0.4-0.1-0.5-0.2c-0.2-0.1-0.2-0.2-0.4-0.4c-0.1-0.2-0.2-0.3-0.2-0.5
		c-0.1-0.2-0.1-0.4-0.1-0.6s0-0.5,0.1-0.7c0.1-0.2,0.2-0.4,0.2-0.5c0.1-0.2,0.2-0.2,0.4-0.3c0.2-0.2,0.5-0.2,0.7-0.1
		c0.1,0,0.2,0,0.2,0.1c0.1,0,0.2,0.1,0.2,0.1v-1.2h0.5v4.3h-0.5v-0.2c-0.1,0.1-0.2,0.1-0.2,0.2c-0.1,0-0.2,0.1-0.2,0.1
		C103.8,37.5,103.8,37.5,103.8,37.5 M103.8,34.9c-0.1,0-0.2,0-0.2,0.1c-0.1,0-0.2,0.1-0.2,0.2c-0.1,0.1-0.1,0.2-0.2,0.3
		c0,0.2-0.1,0.3-0.1,0.5c0,0.4,0.1,0.6,0.2,0.8c0.1,0.2,0.2,0.2,0.5,0.2c0.2,0,0.2,0,0.3-0.1c0.1-0.1,0.2-0.2,0.3-0.4v-1.3
		c-0.1-0.1-0.2-0.2-0.3-0.2C104,34.9,103.9,34.9,103.8,34.9"/>
	<path class="st0" d="M106.7,37.4c-0.2,0-0.3,0-0.5-0.1c-0.2-0.1-0.2-0.2-0.4-0.3c-0.1-0.2-0.2-0.3-0.2-0.5
		c-0.1-0.2-0.1-0.4-0.1-0.6c0-0.2,0-0.5,0.1-0.6c0.1-0.2,0.2-0.3,0.2-0.5c0.1-0.2,0.2-0.2,0.4-0.3c0.2-0.1,0.3-0.1,0.5-0.1
		c0.2,0,0.3,0,0.5,0.1c0.2,0.1,0.2,0.2,0.4,0.3c0.1,0.2,0.2,0.3,0.2,0.5c0.1,0.2,0.1,0.4,0.1,0.6V36h-2c0,0.2,0.1,0.4,0.1,0.5
		c0.1,0.2,0.1,0.2,0.2,0.4c0.1,0.1,0.2,0.2,0.3,0.2c0.1,0.1,0.2,0.1,0.3,0.1c0.1,0,0.2,0,0.2,0c0.1,0,0.2-0.1,0.2-0.1
		c0.1-0.1,0.2-0.1,0.2-0.2c0.1-0.1,0.1-0.2,0.1-0.2h0.2c0,0.2-0.1,0.2-0.2,0.4c-0.1,0.1-0.2,0.2-0.2,0.2c-0.1,0.1-0.2,0.2-0.3,0.2
		C106.9,37.3,106.8,37.4,106.7,37.4 M107.5,35.6c-0.1-0.3-0.2-0.5-0.3-0.7c-0.2-0.2-0.3-0.2-0.5-0.2c-0.1,0-0.2,0-0.3,0.1
		c-0.1,0.1-0.2,0.1-0.2,0.2c-0.1,0.1-0.2,0.2-0.2,0.3c-0.1,0.2-0.1,0.2-0.1,0.5L107.5,35.6L107.5,35.6z"/>
	<path class="st0" d="M106.7,37.5c-0.2,0-0.4,0-0.5-0.1c-0.2-0.1-0.3-0.2-0.5-0.3c-0.1-0.2-0.2-0.3-0.2-0.5
		c-0.1-0.2-0.1-0.5-0.1-0.7s0-0.5,0.1-0.7c0.1-0.2,0.2-0.4,0.2-0.5c0.1-0.2,0.2-0.2,0.4-0.3c0.3-0.2,0.8-0.2,1.1,0
		c0.2,0.1,0.3,0.2,0.4,0.3c0.1,0.2,0.2,0.3,0.2,0.5c0.1,0.2,0.1,0.4,0.1,0.7v0.2h-2c0,0.1,0,0.2,0.1,0.3c0.1,0.2,0.1,0.2,0.2,0.3
		c0.1,0.1,0.2,0.2,0.2,0.2c0.2,0.1,0.3,0.1,0.5,0c0.1,0,0.2-0.1,0.2-0.1c0.1,0,0.1-0.1,0.2-0.2c0-0.1,0.1-0.1,0.1-0.2v-0.2h0.6v0.2
		c0,0.2-0.1,0.3-0.2,0.4c-0.1,0.2-0.2,0.2-0.2,0.3c-0.1,0.1-0.2,0.2-0.4,0.2C107,37.5,106.8,37.5,106.7,37.5 M106,35.5h1.4
		c-0.1-0.2-0.2-0.4-0.2-0.5c-0.2-0.2-0.5-0.2-0.7-0.2c-0.1,0-0.2,0.1-0.2,0.2c-0.1,0.1-0.1,0.2-0.2,0.2C106,35.3,106,35.4,106,35.5"
		/>
	<polygon class="st0" points="114,33.4 112.7,35.6 112.7,37.3 112.4,37.3 112.4,35.6 111,33.4 111.3,33.4 112.5,35.3 113.7,33.4 	
		"/>
	<polygon class="st0" points="112.8,37.5 112.3,37.5 112.3,35.6 110.8,33.2 111.4,33.2 112.5,35 113.6,33.2 114.3,33.2 112.8,35.6 	
		"/>
	<path class="st0" d="M115.5,34.4c0.2,0,0.3,0,0.5,0.1c0.2,0.1,0.2,0.2,0.4,0.3c0.2,0.2,0.2,0.3,0.2,0.5c0.1,0.2,0.1,0.4,0.1,0.6
		c0,0.2,0,0.5-0.1,0.6c-0.1,0.2-0.2,0.3-0.2,0.5c-0.1,0.2-0.2,0.2-0.4,0.3c-0.2,0.1-0.3,0.1-0.5,0.1c-0.2,0-0.3,0-0.5-0.1
		c-0.2-0.1-0.2-0.2-0.4-0.3c-0.1-0.2-0.2-0.3-0.2-0.5c-0.1-0.2-0.1-0.4-0.1-0.6c0-0.2,0-0.5,0.1-0.6c0.1-0.2,0.2-0.3,0.2-0.5
		c0.1-0.2,0.2-0.2,0.4-0.3C115.2,34.5,115.4,34.4,115.5,34.4 M115.5,37.1c0.2,0,0.2,0,0.4-0.1c0.1-0.1,0.2-0.2,0.3-0.2
		c0.1-0.1,0.2-0.2,0.2-0.4c0.1-0.2,0.1-0.3,0.1-0.5s0-0.4-0.1-0.5c-0.1-0.2-0.1-0.3-0.2-0.4c-0.1-0.1-0.2-0.2-0.3-0.2
		c-0.1-0.1-0.2-0.1-0.4-0.1c-0.2,0-0.2,0-0.4,0.1c-0.1,0.1-0.2,0.2-0.3,0.2c-0.1,0.1-0.2,0.2-0.2,0.4c-0.1,0.2-0.1,0.3-0.1,0.5
		s0,0.4,0.1,0.5c0.1,0.2,0.1,0.3,0.2,0.4c0.1,0.1,0.2,0.2,0.3,0.2C115.3,37.1,115.4,37.1,115.5,37.1"/>
	<path class="st0" d="M115.5,37.5c-0.2,0-0.4,0-0.5-0.1c-0.2-0.1-0.3-0.2-0.4-0.3c-0.1-0.2-0.2-0.3-0.2-0.5
		c-0.1-0.2-0.1-0.5-0.1-0.7s0-0.5,0.1-0.7c0.1-0.2,0.2-0.4,0.2-0.5c0.1-0.2,0.2-0.2,0.4-0.3c0.3-0.2,0.8-0.2,1.1,0
		c0.2,0.1,0.3,0.2,0.4,0.3c0.1,0.2,0.2,0.3,0.2,0.5c0.1,0.2,0.1,0.4,0.1,0.7c0,0.2,0,0.5-0.1,0.7c-0.1,0.2-0.2,0.4-0.2,0.5
		c-0.1,0.2-0.2,0.2-0.4,0.3C115.9,37.5,115.7,37.5,115.5,37.5 M115.5,34.9c-0.1,0-0.2,0-0.3,0.1c-0.1,0.1-0.2,0.1-0.2,0.2
		c-0.1,0.1-0.1,0.2-0.2,0.3c0,0.2-0.1,0.3-0.1,0.5c0,0.2,0,0.3,0.1,0.5c0,0.2,0.1,0.2,0.2,0.3c0.1,0.1,0.2,0.2,0.2,0.2
		c0.2,0.1,0.4,0.1,0.5,0c0.1-0.1,0.2-0.1,0.2-0.2c0.1-0.1,0.1-0.2,0.2-0.3c0-0.2,0.1-0.3,0.1-0.5c0-0.2,0-0.3-0.1-0.5
		c0-0.2-0.1-0.2-0.2-0.3c-0.1-0.1-0.2-0.2-0.2-0.2C115.8,34.9,115.6,34.9,115.5,34.9"/>
	<path class="st0" d="M119,36.9c-0.1,0.1-0.2,0.2-0.2,0.2c-0.1,0.1-0.2,0.1-0.2,0.2c-0.1,0-0.2,0.1-0.2,0.1c-0.1,0-0.2,0-0.2,0
		c-0.5,0-0.8-0.3-0.8-1v-1.8h0.2v1.8c0,0.2,0.1,0.5,0.2,0.6c0.1,0.2,0.2,0.2,0.5,0.2c0.2,0,0.3-0.1,0.5-0.2c0.2-0.1,0.2-0.2,0.4-0.4
		v-2.1h0.2v2.8H119V36.9L119,36.9z"/>
	<path class="st0" d="M118,37.5c-0.5,0-0.9-0.2-0.9-1.1v-2h0.5v2c0,0.3,0.1,0.5,0.1,0.5c0.1,0.2,0.5,0.2,0.7,0
		c0.1-0.1,0.2-0.2,0.3-0.3v-2.1h0.5v3.1h-0.5v-0.3c-0.1,0.1-0.2,0.1-0.2,0.2c-0.1,0-0.2,0.1-0.3,0.1C118.2,37.5,118.1,37.5,118,37.5
		"/>
	<rect x="123.1" y="36.8" class="st0" width="0.5" height="0.5"/>
	<path class="st0" d="M123.6,37.3H123v-0.6h0.6V37.3z M123.1,37.2h0.4v-0.5h-0.4V37.2z"/>
	<rect x="124.9" y="36.8" class="st0" width="0.5" height="0.5"/>
	<path class="st0" d="M125.4,37.3h-0.6v-0.6h0.6V37.3z M125,37.2h0.4v-0.5H125V37.2z"/>
	<rect x="126.8" y="36.8" class="st0" width="0.5" height="0.5"/>
	<path class="st0" d="M127.3,37.3h-0.6v-0.6h0.6V37.3z M126.8,37.2h0.4v-0.5h-0.4V37.2z"/>
	<path class="st0" d="M157.1,31.2c-0.5,0.2-1.1,0.4-1.5,0.5l0,0l0.1-0.3c0.6-0.2,1.2-0.4,1.6-0.6l0,0L157.1,31.2z M157.1,31.9
		c-0.5,0.2-1.1,0.4-1.5,0.5l0,0l0.1-0.3c0.6-0.2,1.2-0.4,1.6-0.6l0,0L157.1,31.9z"/>
	<path class="st0" d="M151.6,19.2h-1c-0.2,0.5-0.4,0.9-0.8,1.3c-0.3,0.4-0.7,0.7-1.1,0.9c-0.4,0.2-0.8,0.4-1.3,0.5
		c-0.5,0.2-0.9,0.2-1.4,0.2c-0.8,0-1.4-0.2-1.8-0.4c-0.5-0.2-0.8-0.5-1.1-0.9c-0.2-0.4-0.5-0.8-0.5-1.3c-0.1-0.5-0.1-0.9,0-1.4
		c0.1-0.5,0.2-0.9,0.5-1.4c0.2-0.5,0.5-0.8,0.8-1.2l0.5,0.5c-0.3,0.4-0.5,0.8-0.7,1.3c-0.2,0.5-0.2,1-0.1,1.4
		c0.1,0.5,0.3,0.8,0.7,1.2s0.9,0.5,1.6,0.6c0.7,0,1.4-0.2,2-0.4c0.6-0.3,1.1-0.7,1.5-1.2c-0.2-0.1-0.3-0.1-0.5-0.2
		c-0.2-0.1-0.3-0.2-0.5-0.2c-0.2-0.1-0.4-0.2-0.5-0.3c-0.2-0.2-0.3-0.3-0.5-0.5c-0.1-0.2-0.2-0.4-0.1-0.7c0-0.2,0.1-0.5,0.1-0.7
		c0.2,0.2,0.5,0.5,0.7,0.7c0.2,0.2,0.5,0.3,0.7,0.5c0.2,0.2,0.5,0.2,0.8,0.2c0.3,0.1,0.6,0.1,1.1,0.1h0.8V19.2z M146.1,22.8l0.9,0.9
		l-0.9,0.9l-0.9-0.9L146.1,22.8z M148.1,22.8l0.9,0.9l-1,0.9l-0.9-0.9L148.1,22.8z"/>
	<path class="st0" d="M154.7,15.1c0.5,0,0.8,0.2,1.1,0.5c0.3,0.3,0.6,0.7,0.8,1.1c0.2,0.5,0.3,0.8,0.3,1.3c0,0.5,0,0.8-0.2,1.1h-5.3
		v-1.3h1.4c0-0.2,0.1-0.5,0.2-0.8c0.1-0.3,0.2-0.6,0.3-0.9c0.2-0.3,0.3-0.5,0.5-0.8C154.1,15.2,154.4,15.1,154.7,15.1 M155.9,17.9
		c0-0.1,0-0.2-0.1-0.4c-0.1-0.2-0.2-0.3-0.2-0.5c-0.1-0.2-0.2-0.2-0.3-0.3c-0.2-0.1-0.3-0.2-0.5-0.2c-0.2,0-0.4,0.2-0.5,0.3
		c-0.2,0.2-0.3,0.5-0.5,1C153.8,17.9,155.9,17.9,155.9,17.9z"/>
	<path class="st0" d="M163.9,16.9c0,0.2,0,0.3,0,0.5c0,0.2,0,0.5,0.1,0.6c0,0.2,0.1,0.4,0.2,0.5c0.1,0.2,0.2,0.2,0.4,0.2h0.2v1.3
		h-0.8c-0.2,0-0.4-0.1-0.5-0.3c-0.1-0.2-0.2-0.4-0.2-0.5c-0.5,0.5-1,0.9-1.7,1.1c-0.7,0.2-1.5,0.3-2.4,0.3l-0.9-1.2
		c0.5,0,0.9,0,1.4,0c0.4,0,0.8-0.1,1.1-0.2c0.1-0.5,0.1-0.9-0.1-1.4c-0.1-0.5-0.2-1-0.5-1.4c-0.2-0.5-0.4-0.9-0.6-1.4
		c-0.2-0.5-0.5-0.9-0.7-1.3l1.1-1c0.2,0.5,0.4,0.9,0.6,1.4c0.2,0.5,0.5,1.1,0.6,1.7c0.2,0.5,0.3,1.1,0.3,1.7c0,0.5-0.1,1.1-0.3,1.5
		c0.5-0.2,0.9-0.5,1.1-0.8c0.2-0.4,0.3-0.8,0.3-1.4v-3.6l1.3-0.8L163.9,16.9L163.9,16.9z"/>
	<path class="st0" d="M172.7,17.4c0.2,0.5,0.2,1.1,0.2,1.5c0,0.2,0,0.5-0.1,0.7c0,0.2-0.1,0.4-0.1,0.6h-8.2v-1.3h2.4
		c0-0.1-0.1-0.2-0.1-0.3c-0.1-0.2-0.1-0.3-0.2-0.5c-0.1-0.2-0.2-0.3-0.2-0.4c-0.1-0.2-0.2-0.2-0.2-0.3l1-1c0.1,0.2,0.2,0.4,0.2,0.6
		c0.1,0.2,0.2,0.5,0.2,0.6c0.1,0.2,0.2,0.5,0.2,0.6c0.1,0.2,0.1,0.4,0.1,0.6h1.7c-0.2-0.3-0.3-0.6-0.5-0.9c-0.2-0.2-0.3-0.6-0.5-0.9
		l0.9-1.1c0.3,0.5,0.5,1.1,0.7,1.6c0.2,0.5,0.2,1,0.2,1.4h1.7c-0.2-0.4-0.3-0.7-0.5-1.1c-0.2-0.3-0.4-0.7-0.5-1l0.9-1.1
		C172.3,16.3,172.5,16.9,172.7,17.4"/>
	<path class="st0" d="M180,16.9c0,0.8-0.2,1.4-0.4,1.8s-0.6,0.8-1,1.1c-0.5,0.3-0.9,0.5-1.5,0.6s-1.2,0.2-1.9,0.2l-0.9-1.2
		c0.5,0,1,0,1.4,0c0.4,0,0.8-0.1,1.1-0.2c0.1-0.5,0.1-0.9-0.1-1.4c-0.1-0.5-0.2-1-0.5-1.4c-0.2-0.5-0.4-0.9-0.6-1.4
		c-0.2-0.5-0.5-0.9-0.6-1.3l1.1-1c0.2,0.5,0.4,0.9,0.6,1.4c0.2,0.5,0.5,1.1,0.6,1.7c0.2,0.5,0.3,1.1,0.3,1.7c0,0.5-0.1,1.1-0.3,1.5
		c0.5-0.2,0.9-0.5,1.1-0.8c0.2-0.4,0.3-0.8,0.3-1.4v-3.6l1.3-0.8L180,16.9L180,16.9z M175.5,23c0.2,0.2,0.3,0.2,0.5,0.2
		s0.5,0,0.7-0.1c0.2-0.1,0.5-0.2,0.6-0.2c0.2-0.1,0.4-0.2,0.5-0.2l-0.4,1c-0.2,0.1-0.4,0.1-0.6,0.2c-0.2,0.1-0.5,0.2-0.7,0.2
		s-0.5,0.2-0.6,0.4c-0.2,0.2-0.3,0.3-0.4,0.5l-0.1-0.2c0-0.2,0.1-0.4,0.2-0.6c0.1-0.2,0.2-0.3,0.3-0.5c-0.2,0-0.4-0.2-0.5-0.2
		c-0.1-0.2-0.2-0.3-0.2-0.5c0-0.3,0.1-0.5,0.2-0.8c0.2-0.2,0.3-0.5,0.5-0.5c0.2-0.2,0.5-0.2,0.7-0.3s0.5,0,0.8,0.1l-0.2,0.9
		c-0.2-0.2-0.5-0.2-0.8,0C176,22.6,175.7,22.7,175.5,23"/>
	<polygon class="st0" points="183.1,12.2 183.1,19.4 181.8,20.1 181.8,13 	"/>
	<path class="st0" d="M194.5,19.2h-1c-0.2,0.5-0.5,0.8-0.8,1.2c-0.3,0.3-0.7,0.6-1.1,0.8c-0.4,0.2-0.8,0.4-1.4,0.5
		c-0.5,0.1-1,0.2-1.4,0.2c-0.8,0-1.4-0.2-1.9-0.4c-0.5-0.2-0.8-0.5-1.1-0.8c-0.3-0.4-0.5-0.8-0.5-1.2s-0.1-0.9,0-1.4
		c0.1-0.5,0.2-0.9,0.5-1.3c0.2-0.4,0.5-0.8,0.8-1.1l0.6,0.5c-0.3,0.4-0.5,0.8-0.7,1.2c-0.2,0.5-0.2,0.9-0.1,1.4
		c0.1,0.5,0.3,0.8,0.7,1.1c0.4,0.3,0.9,0.5,1.7,0.6c0.7,0,1.4-0.2,2.1-0.4c0.7-0.2,1.2-0.6,1.6-1.1c-0.2-0.1-0.3-0.1-0.5-0.2
		c-0.2-0.1-0.4-0.2-0.5-0.2c-0.2-0.1-0.4-0.2-0.5-0.3c-0.2-0.1-0.3-0.2-0.5-0.5c-0.1-0.2-0.2-0.4-0.1-0.6c0-0.2,0.1-0.5,0.1-0.6
		c0.2,0.2,0.5,0.5,0.7,0.6c0.2,0.2,0.5,0.3,0.7,0.4s0.5,0.2,0.8,0.2c0.3,0.1,0.7,0.1,1.1,0.1h0.8L194.5,19.2L194.5,19.2z"/>
	<path class="st0" d="M196.6,19.3h-3.7c-0.2,0-0.4-0.1-0.5-0.2c-0.2-0.1-0.2-0.2-0.2-0.5c0-0.2,0.1-0.3,0.2-0.5
		c0.2-0.2,0.3-0.2,0.5-0.2h3.7V19.3z"/>
	<path class="st0" d="M196.2,19.3V18h1.1c0.1-0.2,0.1-0.5,0.2-0.8c0.1-0.3,0.2-0.6,0.3-0.9c0.2-0.3,0.3-0.5,0.5-0.7
		c0.2-0.2,0.5-0.3,0.8-0.3c0.4,0,0.7,0.2,0.9,0.3c0.2,0.2,0.5,0.5,0.6,0.7c0.2,0.3,0.3,0.5,0.4,0.8c0.1,0.3,0.2,0.5,0.2,0.8h0.7v1.3
		L196.2,19.3L196.2,19.3z M200.5,18c0-0.1,0-0.2-0.1-0.4c-0.1-0.2-0.2-0.3-0.2-0.4c-0.1-0.2-0.2-0.2-0.4-0.3
		c-0.2-0.1-0.3-0.2-0.5-0.2c-0.2,0-0.4,0.2-0.5,0.3c-0.2,0.2-0.3,0.5-0.5,1C198.3,18,200.5,18,200.5,18z"/>
	<path class="st0" d="M205.9,14.7c0.7,1.3,1,2.4,1,3.3l-0.1,1.3h-5V18h4.1c-0.2-0.4-0.3-0.8-0.5-1.1c-0.2-0.3-0.4-0.7-0.6-1
		L205.9,14.7z M203.6,20l0.7,0.7l-0.8,0.7l-0.7-0.7L203.6,20z M205.2,20.1l0.7,0.7l-0.8,0.7l-0.7-0.7L205.2,20.1z"/>
	<path class="st0" d="M210.6,19.3c-0.1,0.7-0.3,1.4-0.6,2c-0.3,0.6-0.8,1.1-1.3,1.7l-1.4-1.1c0.8-0.5,1.3-1,1.7-1.4
		c0.4-0.5,0.6-1.1,0.7-1.9c0-0.2-0.1-0.4-0.2-0.6c-0.1-0.2-0.2-0.5-0.3-0.6c-0.1-0.2-0.2-0.4-0.4-0.6c-0.2-0.2-0.2-0.4-0.4-0.5
		l1-1.2c0.3,0.5,0.6,1.1,0.8,1.6c0.2,0.5,0.3,1.1,0.4,1.6h0.5v1.3h-0.5V19.3z"/>
	<path class="st0" d="M214.7,15.2c0.5,0.2,1,0.4,1.4,0.6c0.4,0.2,0.8,0.5,1,0.9c0.3,0.4,0.5,0.8,0.6,1.3h0.4v1.3H211V18h5.1
		c-0.2-0.4-0.3-0.7-0.6-1c-0.3-0.2-0.6-0.5-1.1-0.6c-0.4-0.2-0.8-0.2-1.2-0.3c-0.5-0.1-0.8-0.1-1.3-0.1v-1.2c0-0.3,0.1-0.5,0.2-0.8
		c0.1-0.2,0.3-0.4,0.6-0.5c0.3-0.2,0.7-0.4,1.2-0.7c0.5-0.3,1.2-0.6,2.1-1.1c0.4-0.2,0.7-0.3,0.9-0.2c0.2,0.1,0.3,0.2,0.3,0.5v1.1
		c-0.1-0.2-0.2-0.2-0.3-0.2c-0.2,0-0.4,0.1-0.7,0.2l-3,1.7C213.7,14.9,214.2,15,214.7,15.2"/>
	<polygon class="st0" points="185.2,20.5 185.2,21.5 184.2,21.5 184.2,20.5 	"/>
	<polygon class="st0" points="186.3,21.6 186.3,22.6 185.3,22.6 185.3,21.6 	"/>
	<path class="st0" d="M57.9,19.8c0-0.2-0.1-0.5-0.2-0.6c-0.2-0.2-0.4-0.3-0.6-0.5c-0.2-0.2-0.5-0.3-0.8-0.5
		c-0.3-0.2-0.5-0.3-0.8-0.5c-0.2-0.2-0.5-0.5-0.6-0.8c-0.2-0.3-0.2-0.6-0.2-1.1c0-0.4,0.1-0.7,0.2-1c0.2-0.2,0.3-0.5,0.5-0.7
		c0.2-0.2,0.5-0.3,0.8-0.4c0.3-0.1,0.6-0.2,1-0.2s0.8,0,1.1,0.1c0.4,0.1,0.7,0.2,0.9,0.3l-0.5,1.2c-0.2-0.1-0.4-0.2-0.6-0.2
		C57.8,15,57.6,15,57.2,15c-0.3,0-0.5,0.1-0.8,0.2c-0.2,0.2-0.2,0.3-0.2,0.5c0,0.2,0.1,0.4,0.2,0.5c0.2,0.2,0.4,0.3,0.6,0.5
		c0.2,0.2,0.5,0.3,0.8,0.5c0.3,0.2,0.5,0.4,0.8,0.5c0.2,0.2,0.5,0.5,0.6,0.8c0.2,0.3,0.2,0.6,0.2,1.1c0,0.4-0.1,0.8-0.2,1.1
		c-0.2,0.3-0.3,0.5-0.5,0.8c-0.2,0.2-0.5,0.3-0.8,0.5c-0.3,0.1-0.7,0.2-1.1,0.2c-0.5,0-0.9-0.1-1.3-0.2s-0.7-0.2-0.8-0.3l0.5-1.3
		c0.2,0.1,0.4,0.2,0.7,0.3c0.3,0.1,0.6,0.2,0.9,0.2C57.4,20.6,57.9,20.3,57.9,19.8"/>
	<path class="st0" d="M84.9,21.4c-0.2,0.2-0.5,0.3-0.8,0.4c-0.4,0.1-0.7,0.1-1.1,0.1c-0.5,0-0.8-0.1-1.2-0.2c-0.4-0.2-0.7-0.4-1-0.7
		c-0.3-0.3-0.5-0.8-0.7-1.2c-0.2-0.5-0.2-1.1-0.2-1.9s0.1-1.4,0.3-1.9c0.2-0.5,0.4-0.9,0.7-1.2c0.3-0.3,0.6-0.5,1-0.6
		c0.4-0.2,0.8-0.2,1.1-0.2c0.4,0,0.8,0,1,0.1c0.3,0.1,0.5,0.2,0.7,0.2l-0.3,1.2c-0.2-0.1-0.3-0.2-0.5-0.2c-0.2-0.1-0.5-0.1-0.7-0.1
		c-0.5,0-1,0.2-1.3,0.7c-0.3,0.5-0.5,1.1-0.5,2.1c0,0.4,0,0.8,0.1,1.1c0.1,0.3,0.2,0.6,0.3,0.8s0.3,0.5,0.5,0.5
		c0.2,0.2,0.5,0.2,0.8,0.2c0.3,0,0.5,0,0.7-0.1c0.2-0.1,0.4-0.2,0.5-0.2L84.9,21.4z"/>
	<path class="st0" d="M71.8,21.9h-1.1v-8.1l0.6,0.6c0,0,0.1,0,0.1,0.1h0.1l0.1,0.1l0.1,0.1c0.6,0.5,1.2,1.2,1.7,2l0.1,0.1
		c0.3,0.5,0.6,1,0.8,1.6c0.2-0.3,0.2-0.6,0.4-0.9l0.7,0.4c-0.4,0.8-0.7,1.6-0.8,2.5l-0.1,0.3h-0.9l-0.1-0.3
		c-0.1-0.9-0.4-1.7-0.8-2.5c-0.2-0.5-0.5-0.9-0.8-1.3C71.8,16.3,71.8,21.9,71.8,21.9z"/>
	<path class="st0" d="M77.4,21.9h-1.1v-5.5c-0.3,0.4-0.6,0.8-0.8,1.3c-0.4,0.8-0.7,1.6-0.8,2.5l-0.1,0.3h-1l-0.1-0.3
		c-0.1-0.9-0.4-1.7-0.8-2.5l0.7-0.4c0.2,0.3,0.3,0.6,0.4,0.9c0.2-0.6,0.5-1.1,0.8-1.6l0.1-0.1c0.5-0.8,1.1-1.4,1.7-2l0.1-0.1
		l0.1-0.1l0.1-0.1l0.1-0.1l0.6-0.6C77.4,13.8,77.4,21.9,77.4,21.9z"/>
	<path class="st0" d="M69.8,21.9h-1.1v-0.4c0-0.2,0-0.3-0.1-0.5c0-0.1,0-0.1,0-0.2h-3.3l0,0h-0.1c0,0.1,0,0.1,0,0.2
		c0,0.2,0,0.3-0.1,0.5v0.4h-1.1v-0.4c0-0.1,0-0.2,0-0.2c0-0.1,0-0.2,0-0.3c0-0.2,0.1-0.4,0.1-0.5l0.1-0.3l0,0V20
		c0.2-1.1,0.5-2.1,0.8-3.1c0.4-1,0.9-1.9,1.5-2.8l0.3-0.4l0.3,0.4c0.8,1.1,1.4,2.2,1.7,3.4c0.4,1.2,0.7,2.6,0.8,3.9V21.9z
		 M65.5,19.7h3c-0.2-0.8-0.4-1.5-0.6-2.2c-0.2-0.7-0.5-1.3-0.9-1.8c-0.4,0.6-0.7,1.2-0.9,1.8C65.8,18.2,65.6,18.9,65.5,19.7"/>
	<rect x="78.1" y="13.8" class="st0" width="1" height="8.1"/>
	<polygon class="st0" points="63.7,21.9 59.9,21.9 59.9,13.8 60.9,13.8 60.9,20.7 63.7,20.7 	"/>
	<rect x="52.6" y="13.8" class="st0" width="1.1" height="8.1"/>
</g>
</svg>
