<svg xmlns="http://www.w3.org/2000/svg" width="41.8" height="45" viewBox="0 0 41.8 45">
  <g id="logo" transform="translate(-160.5 -2.2)">
    <path id="Path_10" data-name="Path 10" d="M174.7,28.1l1.3-1.3V20.5c0-.6-1.1-.6-1.5-.2h-.9s1.9-1.6,4.5-3.5c.5,0,.4.6.3.7a3.651,3.651,0,0,0-.7,1v4.8h.5s4.2-2.8,6.9-4.4c.3-.5-.2-.9-.5-1.2,0,0-.5-.4-.4-.7.2-.4,1.2.4,3.7,2.3,0,0,.6.3.1.6-.3-.1-.7-.3-1-.1,0,0-6.7,3.9-7.1,4.2,0,0,4.3,1.3,9,2.5a1.218,1.218,0,0,1,.9,1.4c-.1,1.2,0,2.2-1.1,2.3H175.2c-.5.1-.7.6-.9.8-.2.1-1.8-1.5-2.6-3.8,0-.3.6-.6,1.1,0a3.2,3.2,0,0,0,1.7,1.5H187c1.3,0,1-.7.1-.7-1-.3-7.7-2.2-8.3-2.3s-.7-.1-.9,0v1.2l1.6,1.4Z" fill="#fff"/>
    <path id="Path_11" data-name="Path 11" d="M194.6,22.8l2.3-3.9-2.3-3.3-2.5,2.5Z" fill="#fff"/>
    <path id="Path_12" data-name="Path 12" d="M182.2,10.7l3.9-2.6,3.3,2.2-2.3,2.6Z" fill="#fff"/>
    <path id="Path_13" data-name="Path 13" d="M191.8,17.6l2.4-2.6s-2.6-3.8-4.3-4.4l-2.4,2.7a29.055,29.055,0,0,1,4.3,4.3" fill="#fff"/>
    <path id="Path_14" data-name="Path 14" d="M189.6,9.7l3.8-2.5L188.7,5l-2.3,2.7Z" fill="#fff"/>
    <path id="Path_15" data-name="Path 15" d="M195.1,15.1l2.1,2.8,2.6-3.5-2.1-3.9Z" fill="#fff"/>
    <path id="Path_16" data-name="Path 16" d="M168,22.9l-2.3-4,2.4-3.2,2.4,2.4Z" fill="#fff"/>
    <path id="Path_17" data-name="Path 17" d="M180.4,10.7l-3.8-2.6-3.4,2.2,2.3,2.6Z" fill="#fff"/>
    <path id="Path_18" data-name="Path 18" d="M170.8,17.6,168.4,15s2.6-3.8,4.2-4.4l2.4,2.7c.1,0-4,3.9-4.2,4.3" fill="#fff"/>
    <path id="Path_19" data-name="Path 19" d="M173.1,9.7l-3.9-2.5,4.7-2.1,2.3,2.6Z" fill="#fff"/>
    <path id="Path_20" data-name="Path 20" d="M167.6,15.1l-2.2,2.8-2.6-3.5,2.1-3.9Z" fill="#fff"/>
    <path id="Path_21" data-name="Path 21" d="M167.9,26.5l-2.3,4,2.3,3.2,2.5-2.4Z" fill="#fff"/>
    <path id="Path_22" data-name="Path 22" d="M180.3,38.7l-3.9,2.6-3.3-2.2,2.3-2.6Z" fill="#fff"/>
    <path id="Path_23" data-name="Path 23" d="M170.7,31.8l-2.4,2.6s2.6,3.8,4.2,4.4l2.4-2.7a58.192,58.192,0,0,1-4.2-4.3" fill="#fff"/>
    <path id="Path_24" data-name="Path 24" d="M173,39.7l-3.9,2.5,4.7,2.1,2.3-2.6Z" fill="#fff"/>
    <path id="Path_25" data-name="Path 25" d="M167.4,34.3l-2.1-2.8L162.7,35l2.1,3.9Z" fill="#fff"/>
    <path id="Path_26" data-name="Path 26" d="M194.5,26.5l2.3,4-2.3,3.2L192,31.3Z" fill="#fff"/>
    <path id="Path_27" data-name="Path 27" d="M182.1,38.7l3.9,2.5,3.3-2.1L187,36.5Z" fill="#fff"/>
    <path id="Path_28" data-name="Path 28" d="M191.7,31.7l2.4,2.6s-2.6,3.8-4.3,4.4L187.4,36a34.8,34.8,0,0,0,4.3-4.3" fill="#fff"/>
    <path id="Path_29" data-name="Path 29" d="M189.4,39.7l3.9,2.5-4.7,2.1-2.3-2.6Z" fill="#fff"/>
    <path id="Path_30" data-name="Path 30" d="M195,34.3l2.1-2.8,2.6,3.5-2.1,3.9Z" fill="#fff"/>
    <path id="Path_31" data-name="Path 31" d="M181.2,2.2l2.3,3.2-2.4,4-2.2-4.1Z" fill="#fff"/>
    <path id="Path_32" data-name="Path 32" d="M181.2,47.2l2.5-3.1-2.4-4.4L178.9,44Z" fill="#fff"/>
    <path id="Path_33" data-name="Path 33" d="M202.3,24.9l-3.2,2.3-4-2.4,4.2-2.2Z" fill="#fff"/>
    <path id="Path_34" data-name="Path 34" d="M160.5,24.9l3.2,2.3,4-2.4-3.9-2.2Z" fill="#fff"/>
  </g>
</svg>
